<ttFont>
    <TTGlyph name="A" xMin="-27" yMin="0" xMax="587" yMax="647">
      <contour>
        <pt x="385" y="0" on="1"/>
        <pt x="381" y="107" on="1"/>
        <pt x="381" y="111" on="1"/>
        <pt x="282" y="113" on="1"/>
        <pt x="199" y="109" on="1"/>
        <pt x="168" y="0" on="1"/>
        <pt x="-27" y="0" on="1"/>
        <pt x="249" y="647" on="1"/>
        <pt x="490" y="647" on="1"/>
        <pt x="587" y="0" on="1"/>
      </contour>
      <contour>
        <pt x="350" y="469" on="1"/>
        <pt x="338" y="469" on="1"/>
        <pt x="255" y="256" on="1"/>
        <pt x="312" y="255" on="1"/>
        <pt x="368" y="256" on="1"/>
      </contour>
    </TTGlyph>
    <TTGlyph name="AE" xMin="-49" yMin="0" xMax="833" yMax="647">
      <contour>
        <pt x="827" y="145" on="1"/>
        <pt x="797" y="0" on="1"/>
        <pt x="362" y="0" on="1"/>
        <pt x="370" y="107" on="1"/>
        <pt x="373" y="174" on="1"/>
        <pt x="195" y="122" on="1"/>
        <pt x="194" y="119" on="1"/>
        <pt x="146" y="0" on="1"/>
        <pt x="-49" y="0" on="1"/>
        <pt x="306" y="647" on="1"/>
        <pt x="824" y="647" on="1"/>
        <pt x="833" y="633" on="1"/>
        <pt x="803" y="488" on="1"/>
        <pt x="654" y="494" on="1"/>
        <pt x="579" y="494" on="1"/>
        <pt x="573" y="380" on="1"/>
        <pt x="748" y="433" on="1"/>
        <pt x="761" y="422" on="1"/>
        <pt x="762" y="284" on="1"/>
        <pt x="565" y="229" on="1"/>
        <pt x="561" y="153" on="1"/>
        <pt x="652" y="153" on="1"/>
        <pt x="817" y="159" on="1"/>
      </contour>
      <contour>
        <pt x="385" y="469" on="1"/>
        <pt x="373" y="469" on="1"/>
        <pt x="283" y="294" on="1"/>
        <pt x="379" y="322" on="1"/>
      </contour>
    </TTGlyph>
    <TTGlyph name="AEacute" xMin="-49" yMin="0" xMax="833" yMax="917">
      <component glyphName="AE" x="0" y="0" flags="0x1000"/>
      <component glyphName="acute.cap" x="337" y="175" flags="0x1000"/>
    </TTGlyph>
    <TTGlyph name="Aacute" xMin="-27" yMin="0" xMax="587" yMax="917">
      <component glyphName="A" x="0" y="0" flags="0x1000"/>
      <component glyphName="acute.cap" x="147" y="175" flags="0x1000"/>
    </TTGlyph>
    <TTGlyph name="Abreve" xMin="-27" yMin="0" xMax="587" yMax="899">
      <component glyphName="A" x="0" y="0" flags="0x1000"/>
      <component glyphName="breve.cap" x="138" y="175" flags="0x1000"/>
    </TTGlyph>
    <TTGlyph name="Abreveacute" xMin="-27" yMin="0" xMax="587" yMax="1055">
      <component glyphName="A" x="0" y="0" flags="0x1000"/>
      <component glyphName="breveacute" x="144" y="175" flags="0x1000"/>
    </TTGlyph>
    <TTGlyph name="Abrevedotbelow" xMin="-26" yMin="-233" xMax="588" yMax="899">
      <contour>
        <pt x="314" y="716" on="0"/>
        <pt x="224" y="780" on="0"/>
        <pt x="207" y="840" on="1"/>
        <pt x="255" y="899" on="1"/>
        <pt x="282" y="899" on="1"/>
        <pt x="296" y="874" on="0"/>
        <pt x="353" y="849" on="0"/>
        <pt x="389" y="849" on="1"/>
        <pt x="466" y="849" on="0"/>
        <pt x="503" y="899" on="1"/>
        <pt x="530" y="899" on="1"/>
        <pt x="562" y="840" on="1"/>
        <pt x="505" y="716" on="0"/>
        <pt x="379" y="716" on="1"/>
      </contour>
      <contour>
        <pt x="386" y="0" on="1"/>
        <pt x="382" y="107" on="1"/>
        <pt x="382" y="111" on="1"/>
        <pt x="281" y="113" on="1"/>
        <pt x="200" y="109" on="1"/>
        <pt x="169" y="0" on="1"/>
        <pt x="-26" y="0" on="1"/>
        <pt x="250" y="647" on="1"/>
        <pt x="491" y="647" on="1"/>
        <pt x="588" y="0" on="1"/>
      </contour>
      <contour>
        <pt x="351" y="469" on="1"/>
        <pt x="339" y="469" on="1"/>
        <pt x="256" y="256" on="1"/>
        <pt x="311" y="255" on="1"/>
        <pt x="369" y="256" on="1"/>
      </contour>
      <contour>
        <pt x="324" y="-35" on="0"/>
        <pt x="373" y="-85" on="0"/>
        <pt x="373" y="-130" on="1"/>
        <pt x="373" y="-178" on="0"/>
        <pt x="319" y="-233" on="0"/>
        <pt x="272" y="-233" on="1"/>
        <pt x="227" y="-233" on="0"/>
        <pt x="179" y="-184" on="0"/>
        <pt x="179" y="-139" on="1"/>
        <pt x="179" y="-91" on="0"/>
        <pt x="233" y="-35" on="0"/>
        <pt x="280" y="-35" on="1"/>
      </contour>
    </TTGlyph>
    <TTGlyph name="Abrevegrave" xMin="-27" yMin="0" xMax="587" yMax="1055">
      <component glyphName="A" x="0" y="0" flags="0x1000"/>
      <component glyphName="brevegrave" x="144" y="175" flags="0x1000"/>
    </TTGlyph>
    <TTGlyph name="Abrevehookabove" xMin="-27" yMin="0" xMax="587" yMax="1115">
      <component glyphName="A" x="0" y="0" flags="0x1000"/>
      <component glyphName="brevehookabove" x="144" y="175" flags="0x1000"/>
    </TTGlyph>
    <TTGlyph name="Abrevetilde" xMin="-27" yMin="0" xMax="598" yMax="1085">
      <component glyphName="A" x="0" y="0" flags="0x1000"/>
      <component glyphName="brevetilde" x="144" y="175" flags="0x1000"/>
    </TTGlyph>
    <TTGlyph name="Acaron" xMin="-27" yMin="0" xMax="587" yMax="906">
      <component glyphName="A" x="0" y="0" flags="0x1000"/>
      <component glyphName="caron.cap" x="138" y="175" flags="0x1000"/>
    </TTGlyph>
    <TTGlyph name="Acircumflex" xMin="-27" yMin="0" xMax="587" yMax="914">
      <component glyphName="A" x="0" y="0" flags="0x1000"/>
      <component glyphName="circumflex.cap" x="144" y="175" flags="0x1000"/>
    </TTGlyph>
    <TTGlyph name="Acircumflexacute" xMin="-27" yMin="0" xMax="638" yMax="1051">
      <component glyphName="A" x="0" y="0" flags="0x1000"/>
      <component glyphName="circumflexacute" x="144" y="175" flags="0x1000"/>
    </TTGlyph>
    <TTGlyph name="Acircumflexdotbelow" xMin="-26" yMin="-233" xMax="588" yMax="914">
      <contour>
        <pt x="216" y="796" on="1"/>
        <pt x="315" y="863" on="0"/>
        <pt x="374" y="914" on="1"/>
        <pt x="408" y="914" on="1"/>
        <pt x="466" y="859" on="0"/>
        <pt x="556" y="796" on="1"/>
        <pt x="513" y="720" on="1"/>
        <pt x="495" y="720" on="1"/>
        <pt x="387" y="780" on="1"/>
        <pt x="367" y="770" on="0"/>
        <pt x="323" y="750" on="1"/>
        <pt x="259" y="720" on="1"/>
        <pt x="241" y="720" on="1"/>
      </contour>
      <contour>
        <pt x="386" y="0" on="1"/>
        <pt x="382" y="107" on="1"/>
        <pt x="382" y="111" on="1"/>
        <pt x="281" y="113" on="1"/>
        <pt x="200" y="109" on="1"/>
        <pt x="169" y="0" on="1"/>
        <pt x="-26" y="0" on="1"/>
        <pt x="250" y="647" on="1"/>
        <pt x="491" y="647" on="1"/>
        <pt x="588" y="0" on="1"/>
      </contour>
      <contour>
        <pt x="351" y="469" on="1"/>
        <pt x="339" y="469" on="1"/>
        <pt x="256" y="256" on="1"/>
        <pt x="311" y="255" on="1"/>
        <pt x="369" y="256" on="1"/>
      </contour>
      <contour>
        <pt x="324" y="-35" on="0"/>
        <pt x="373" y="-85" on="0"/>
        <pt x="373" y="-130" on="1"/>
        <pt x="373" y="-178" on="0"/>
        <pt x="319" y="-233" on="0"/>
        <pt x="272" y="-233" on="1"/>
        <pt x="227" y="-233" on="0"/>
        <pt x="179" y="-184" on="0"/>
        <pt x="179" y="-139" on="1"/>
        <pt x="179" y="-91" on="0"/>
        <pt x="233" y="-35" on="0"/>
        <pt x="280" y="-35" on="1"/>
      </contour>
    </TTGlyph>
    <TTGlyph name="Acircumflexgrave" xMin="-27" yMin="0" xMax="587" yMax="1051">
      <component glyphName="A" x="0" y="0" flags="0x1000"/>
      <component glyphName="circumflexgrave" x="144" y="175" flags="0x1000"/>
    </TTGlyph>
    <TTGlyph name="Acircumflexhookabove" xMin="-27" yMin="0" xMax="587" yMax="1100">
      <component glyphName="A" x="0" y="0" flags="0x1000"/>
      <component glyphName="circumflexhookabove" x="144" y="175" flags="0x1000"/>
    </TTGlyph>
    <TTGlyph name="Acircumflextilde" xMin="-27" yMin="0" xMax="596" yMax="1080">
      <component glyphName="A" x="0" y="0" flags="0x1000"/>
      <component glyphName="circumflextilde" x="146" y="175" flags="0x1000"/>
    </TTGlyph>
    <TTGlyph name="Adieresis" xMin="-27" yMin="0" xMax="587" yMax="890">
      <component glyphName="A" x="0" y="0" flags="0x1000"/>
      <component glyphName="dieresis" x="141" y="175" flags="0x1000"/>
    </TTGlyph>
    <TTGlyph name="Adotbelow" xMin="-27" yMin="-233" xMax="587" yMax="647">
      <component glyphName="A" x="0" y="0" flags="0x1000"/>
      <component glyphName="dotbelowcomb" x="127" y="0" flags="0x1000"/>
    </TTGlyph>
    <TTGlyph name="Agrave" xMin="-27" yMin="0" xMax="587" yMax="917">
      <component glyphName="A" x="0" y="0" flags="0x1000"/>
      <component glyphName="grave.cap" x="144" y="175" flags="0x1000"/>
    </TTGlyph>
    <TTGlyph name="Ahookabove" xMin="-27" yMin="0" xMax="587" yMax="947">
      <component glyphName="A" x="0" y="0" flags="0x1000"/>
      <component glyphName="hookabove" x="91" y="175" flags="0x1000"/>
    </TTGlyph>
    <TTGlyph name="Amacron" xMin="-27" yMin="0" xMax="587" yMax="865">
      <component glyphName="A" x="0" y="0" flags="0x1000"/>
      <component glyphName="macron" x="141" y="175" flags="0x1000"/>
    </TTGlyph>
    <TTGlyph name="Aogonek" xMin="-26" yMin="-197" xMax="588" yMax="647">
      <contour>
        <pt x="565" y="-151" on="1"/>
        <pt x="500" y="-197" on="0"/>
        <pt x="450" y="-197" on="1"/>
        <pt x="405" y="-197" on="0"/>
        <pt x="356" y="-143" on="0"/>
        <pt x="356" y="-97" on="1"/>
        <pt x="356" y="-55" on="0"/>
        <pt x="385" y="0" on="1"/>
        <pt x="386" y="0" on="1"/>
        <pt x="382" y="107" on="1"/>
        <pt x="382" y="111" on="1"/>
        <pt x="281" y="113" on="1"/>
        <pt x="200" y="109" on="1"/>
        <pt x="169" y="0" on="1"/>
        <pt x="-26" y="0" on="1"/>
        <pt x="250" y="647" on="1"/>
        <pt x="491" y="647" on="1"/>
        <pt x="588" y="0" on="1"/>
        <pt x="481" y="0" on="1"/>
        <pt x="457" y="-47" on="0"/>
        <pt x="457" y="-70" on="1"/>
        <pt x="457" y="-99" on="0"/>
        <pt x="488" y="-99" on="1"/>
        <pt x="517" y="-99" on="0"/>
        <pt x="552" y="-79" on="1"/>
        <pt x="562" y="-79" on="1"/>
      </contour>
      <contour>
        <pt x="351" y="469" on="1"/>
        <pt x="339" y="469" on="1"/>
        <pt x="256" y="256" on="1"/>
        <pt x="311" y="255" on="1"/>
        <pt x="369" y="256" on="1"/>
      </contour>
    </TTGlyph>
    <TTGlyph name="Aring" xMin="-27" yMin="0" xMax="587" yMax="930">
      <component glyphName="A" x="0" y="0" flags="0x1000"/>
      <component glyphName="ring" x="140" y="175" flags="0x1000"/>
    </TTGlyph>
    <TTGlyph name="Aringacute" xMin="4" yMin="0" xMax="618" yMax="978">
      <contour>
        <pt x="283" y="887" on="1"/>
        <pt x="401" y="928" on="0"/>
        <pt x="522" y="978" on="1"/>
        <pt x="538" y="972" on="1"/>
        <pt x="570" y="850" on="1"/>
        <pt x="562" y="835" on="1"/>
        <pt x="432" y="813" on="0"/>
        <pt x="317" y="800" on="1"/>
        <pt x="301" y="806" on="1"/>
      </contour>
      <contour>
        <pt x="416" y="0" on="1"/>
        <pt x="411" y="103" on="1"/>
        <pt x="411" y="107" on="1"/>
        <pt x="311" y="109" on="1"/>
        <pt x="229" y="105" on="1"/>
        <pt x="199" y="0" on="1"/>
        <pt x="4" y="0" on="1"/>
        <pt x="296" y="638" on="1"/>
        <pt x="291" y="658" on="0"/>
        <pt x="291" y="678" on="1"/>
        <pt x="291" y="789" on="0"/>
        <pt x="404" y="789" on="1"/>
        <pt x="510" y="789" on="0"/>
        <pt x="510" y="685" on="1"/>
        <pt x="510" y="657" on="0"/>
        <pt x="502" y="635" on="1"/>
        <pt x="618" y="0" on="1"/>
      </contour>
      <contour>
        <pt x="380" y="711" on="0"/>
        <pt x="365" y="698" on="0"/>
        <pt x="365" y="681" on="1"/>
        <pt x="365" y="662" on="0"/>
        <pt x="381" y="647" on="0"/>
        <pt x="401" y="647" on="1"/>
        <pt x="420" y="647" on="0"/>
        <pt x="435" y="661" on="0"/>
        <pt x="435" y="678" on="1"/>
        <pt x="435" y="696" on="0"/>
        <pt x="419" y="711" on="0"/>
        <pt x="399" y="711" on="1"/>
      </contour>
      <contour>
        <pt x="378" y="451" on="1"/>
        <pt x="366" y="451" on="1"/>
        <pt x="285" y="247" on="1"/>
        <pt x="340" y="246" on="1"/>
        <pt x="397" y="247" on="1"/>
      </contour>
    </TTGlyph>
    <TTGlyph name="Atilde" xMin="-27" yMin="0" xMax="587" yMax="915">
      <component glyphName="A" x="0" y="0" flags="0x1000"/>
      <component glyphName="tilde" x="142" y="175" flags="0x1000"/>
    </TTGlyph>
    <TTGlyph name="B" xMin="33" yMin="-7" xMax="615" yMax="648">
      <contour>
        <pt x="554" y="310" on="0"/>
        <pt x="601" y="248" on="0"/>
        <pt x="601" y="196" on="1"/>
        <pt x="601" y="95" on="0"/>
        <pt x="433" y="-7" on="0"/>
        <pt x="251" y="-7" on="1"/>
        <pt x="194" y="-7" on="0"/>
        <pt x="33" y="0" on="1"/>
        <pt x="66" y="190" on="1"/>
        <pt x="112" y="647" on="1"/>
        <pt x="390" y="648" on="1"/>
        <pt x="494" y="648" on="0"/>
        <pt x="615" y="571" on="0"/>
        <pt x="615" y="497" on="1"/>
        <pt x="615" y="446" on="0"/>
        <pt x="555" y="358" on="0"/>
        <pt x="497" y="333" on="1"/>
      </contour>
      <contour>
        <pt x="409" y="399" on="0"/>
        <pt x="409" y="460" on="1"/>
        <pt x="409" y="482" on="0"/>
        <pt x="391" y="506" on="0"/>
        <pt x="347" y="516" on="0"/>
        <pt x="305" y="516" on="1"/>
        <pt x="288" y="516" on="1"/>
        <pt x="268" y="383" on="1"/>
        <pt x="343" y="380" on="1"/>
      </contour>
      <contour>
        <pt x="345" y="124" on="0"/>
        <pt x="399" y="165" on="0"/>
        <pt x="399" y="200" on="1"/>
        <pt x="399" y="222" on="0"/>
        <pt x="375" y="246" on="0"/>
        <pt x="348" y="256" on="1"/>
        <pt x="249" y="254" on="1"/>
        <pt x="243" y="210" on="1"/>
        <pt x="236" y="128" on="1"/>
        <pt x="286" y="124" on="0"/>
        <pt x="299" y="124" on="1"/>
      </contour>
    </TTGlyph>
    <TTGlyph name="C" xMin="25" yMin="-11" xMax="564" yMax="658">
      <contour>
        <pt x="491" y="658" on="0"/>
        <pt x="564" y="631" on="1"/>
        <pt x="511" y="472" on="1"/>
        <pt x="497" y="465" on="1"/>
        <pt x="473" y="479" on="0"/>
        <pt x="407" y="496" on="0"/>
        <pt x="378" y="496" on="1"/>
        <pt x="302" y="496" on="0"/>
        <pt x="239" y="400" on="0"/>
        <pt x="239" y="295" on="1"/>
        <pt x="239" y="222" on="0"/>
        <pt x="292" y="154" on="0"/>
        <pt x="348" y="154" on="1"/>
        <pt x="414" y="154" on="0"/>
        <pt x="475" y="175" on="1"/>
        <pt x="489" y="166" on="1"/>
        <pt x="454" y="8" on="1"/>
        <pt x="392" y="-11" on="0"/>
        <pt x="322" y="-11" on="1"/>
        <pt x="178" y="-11" on="0"/>
        <pt x="25" y="131" on="0"/>
        <pt x="25" y="263" on="1"/>
        <pt x="25" y="449" on="0"/>
        <pt x="218" y="658" on="0"/>
        <pt x="396" y="658" on="1"/>
      </contour>
    </TTGlyph>
    <TTGlyph name="C.ss01" xMin="-128" yMin="0" xMax="581" yMax="513">
      <contour>
        <pt x="256" y="367" on="0"/>
        <pt x="214" y="311" on="0"/>
        <pt x="214" y="242" on="1"/>
        <pt x="214" y="192" on="0"/>
        <pt x="254" y="147" on="0"/>
        <pt x="296" y="147" on="1"/>
        <pt x="346" y="147" on="0"/>
        <pt x="390" y="158" on="1"/>
        <pt x="403" y="149" on="1"/>
        <pt x="384" y="65" on="1"/>
        <pt x="526" y="65" on="1"/>
        <pt x="519" y="0" on="1"/>
        <pt x="-128" y="0" on="1"/>
        <pt x="-121" y="65" on="1"/>
        <pt x="76" y="65" on="1"/>
        <pt x="26" y="118" on="0"/>
        <pt x="26" y="212" on="1"/>
        <pt x="26" y="369" on="0"/>
        <pt x="130" y="448" on="1"/>
        <pt x="-73" y="448" on="1"/>
        <pt x="-66" y="513" on="1"/>
        <pt x="581" y="513" on="1"/>
        <pt x="574" y="448" on="1"/>
        <pt x="446" y="448" on="1"/>
        <pt x="415" y="353" on="1"/>
        <pt x="402" y="346" on="1"/>
        <pt x="362" y="367" on="0"/>
        <pt x="310" y="367" on="1"/>
      </contour>
    </TTGlyph>
    <TTGlyph name="Cacute" xMin="25" yMin="-11" xMax="564" yMax="917">
      <component glyphName="C" x="0" y="0" flags="0x1000"/>
      <component glyphName="acute.cap" x="126" y="175" flags="0x1000"/>
    </TTGlyph>
    <TTGlyph name="Ccaron" xMin="25" yMin="-11" xMax="564" yMax="906">
      <component glyphName="C" x="0" y="0" flags="0x1000"/>
      <component glyphName="caron.cap" x="117" y="175" flags="0x1000"/>
    </TTGlyph>
    <TTGlyph name="Ccedilla" xMin="25" yMin="-208" xMax="563" yMax="658">
      <contour>
        <pt x="490" y="658" on="0"/>
        <pt x="563" y="631" on="1"/>
        <pt x="511" y="472" on="1"/>
        <pt x="497" y="465" on="1"/>
        <pt x="473" y="479" on="0"/>
        <pt x="407" y="496" on="0"/>
        <pt x="378" y="496" on="1"/>
        <pt x="302" y="496" on="0"/>
        <pt x="239" y="400" on="0"/>
        <pt x="239" y="295" on="1"/>
        <pt x="239" y="222" on="0"/>
        <pt x="292" y="154" on="0"/>
        <pt x="348" y="154" on="1"/>
        <pt x="412" y="154" on="0"/>
        <pt x="475" y="175" on="1"/>
        <pt x="489" y="166" on="1"/>
        <pt x="454" y="8" on="1"/>
        <pt x="401" y="-8" on="0"/>
        <pt x="346" y="-11" on="1"/>
        <pt x="340" y="-42" on="1"/>
        <pt x="374" y="-61" on="1"/>
        <pt x="418" y="-84" on="0"/>
        <pt x="418" y="-124" on="1"/>
        <pt x="418" y="-161" on="0"/>
        <pt x="359" y="-208" on="0"/>
        <pt x="308" y="-208" on="1"/>
        <pt x="259" y="-208" on="0"/>
        <pt x="216" y="-184" on="1"/>
        <pt x="227" y="-109" on="1"/>
        <pt x="235" y="-106" on="1"/>
        <pt x="268" y="-134" on="0"/>
        <pt x="295" y="-134" on="1"/>
        <pt x="311" y="-134" on="0"/>
        <pt x="311" y="-120" on="1"/>
        <pt x="311" y="-111" on="0"/>
        <pt x="299" y="-105" on="1"/>
        <pt x="249" y="-78" on="1"/>
        <pt x="263" y="-8" on="1"/>
        <pt x="147" y="6" on="0"/>
        <pt x="25" y="145" on="0"/>
        <pt x="25" y="263" on="1"/>
        <pt x="25" y="449" on="0"/>
        <pt x="217" y="658" on="0"/>
        <pt x="395" y="658" on="1"/>
      </contour>
    </TTGlyph>
    <TTGlyph name="Ccircumflex" xMin="25" yMin="-11" xMax="564" yMax="914">
      <component glyphName="C" x="0" y="0" flags="0x1000"/>
      <component glyphName="circumflex.cap" x="123" y="175" flags="0x1000"/>
    </TTGlyph>
    <TTGlyph name="Cdotaccent" xMin="25" yMin="-11" xMax="564" yMax="905">
      <component glyphName="C" x="0" y="0" flags="0x1000"/>
      <component glyphName="dotaccent" x="121" y="175" flags="0x1000"/>
    </TTGlyph>
    <TTGlyph name="D" xMin="32" yMin="-9" xMax="665" yMax="651">
      <contour>
        <pt x="522" y="651" on="0"/>
        <pt x="665" y="519" on="0"/>
        <pt x="665" y="397" on="1"/>
        <pt x="665" y="206" on="0"/>
        <pt x="469" y="-9" on="0"/>
        <pt x="285" y="-9" on="1"/>
        <pt x="171" y="-9" on="0"/>
        <pt x="32" y="0" on="1"/>
        <pt x="65" y="190" on="1"/>
        <pt x="111" y="647" on="1"/>
        <pt x="394" y="651" on="1"/>
      </contour>
      <contour>
        <pt x="454" y="139" on="0"/>
        <pt x="454" y="368" on="1"/>
        <pt x="454" y="437" on="0"/>
        <pt x="413" y="496" on="0"/>
        <pt x="367" y="496" on="1"/>
        <pt x="330" y="496" on="0"/>
        <pt x="291" y="492" on="1"/>
        <pt x="249" y="210" on="1"/>
        <pt x="244" y="147" on="1"/>
        <pt x="304" y="139" on="0"/>
        <pt x="331" y="139" on="1"/>
      </contour>
    </TTGlyph>
    <TTGlyph name="D.ss01" xMin="-128" yMin="0" xMax="709" yMax="513">
      <contour>
        <pt x="506" y="448" on="1"/>
        <pt x="554" y="398" on="0"/>
        <pt x="554" y="310" on="1"/>
        <pt x="554" y="146" on="0"/>
        <pt x="451" y="65" on="1"/>
        <pt x="654" y="65" on="1"/>
        <pt x="647" y="0" on="1"/>
        <pt x="-128" y="0" on="1"/>
        <pt x="-121" y="65" on="1"/>
        <pt x="46" y="65" on="1"/>
        <pt x="62" y="152" on="1"/>
        <pt x="91" y="448" on="1"/>
        <pt x="-73" y="448" on="1"/>
        <pt x="-66" y="513" on="1"/>
        <pt x="709" y="513" on="1"/>
        <pt x="702" y="448" on="1"/>
      </contour>
      <contour>
        <pt x="267" y="132" on="0"/>
        <pt x="286" y="132" on="1"/>
        <pt x="325" y="132" on="0"/>
        <pt x="367" y="198" on="0"/>
        <pt x="367" y="282" on="1"/>
        <pt x="367" y="329" on="0"/>
        <pt x="339" y="367" on="0"/>
        <pt x="308" y="367" on="1"/>
        <pt x="276" y="367" on="0"/>
        <pt x="256" y="365" on="1"/>
        <pt x="225" y="170" on="1"/>
        <pt x="223" y="140" on="1"/>
      </contour>
    </TTGlyph>
    <TTGlyph name="Dcaron" xMin="32" yMin="-9" xMax="665" yMax="906">
      <component glyphName="D" x="0" y="0" flags="0x1000"/>
      <component glyphName="caron.cap" x="125" y="175" flags="0x1000"/>
    </TTGlyph>
    <TTGlyph name="Dcroat" xMin="32" yMin="-9" xMax="665" yMax="865">
      <component glyphName="D" x="0" y="0" flags="0x1000"/>
      <component glyphName="macron" x="128" y="175" flags="0x1000"/>
    </TTGlyph>
    <TTGlyph name="Delta" xMin="-27" yMin="0" xMax="587" yMax="647">
      <contour>
        <pt x="-27" y="0" on="1"/>
        <pt x="248" y="647" on="1"/>
        <pt x="489" y="647" on="1"/>
        <pt x="587" y="0" on="1"/>
      </contour>
      <contour>
        <pt x="212" y="144" on="1"/>
        <pt x="377" y="144" on="1"/>
        <pt x="349" y="469" on="1"/>
        <pt x="337" y="469" on="1"/>
      </contour>
    </TTGlyph>
    <TTGlyph name="E" xMin="31" yMin="0" xMax="583" yMax="647">
      <contour>
        <pt x="278" y="402" on="1"/>
        <pt x="376" y="402" on="1"/>
        <pt x="481" y="405" on="1"/>
        <pt x="490" y="391" on="1"/>
        <pt x="460" y="245" on="1"/>
        <pt x="345" y="248" on="1"/>
        <pt x="255" y="248" on="1"/>
        <pt x="249" y="210" on="1"/>
        <pt x="244" y="153" on="1"/>
        <pt x="340" y="153" on="1"/>
        <pt x="507" y="159" on="1"/>
        <pt x="516" y="145" on="1"/>
        <pt x="486" y="0" on="1"/>
        <pt x="31" y="0" on="1"/>
        <pt x="64" y="190" on="1"/>
        <pt x="111" y="647" on="1"/>
        <pt x="574" y="647" on="1"/>
        <pt x="583" y="633" on="1"/>
        <pt x="552" y="488" on="1"/>
        <pt x="394" y="494" on="1"/>
        <pt x="291" y="494" on="1"/>
      </contour>
    </TTGlyph>
    <TTGlyph name="Eacute" xMin="31" yMin="0" xMax="583" yMax="917">
      <component glyphName="E" x="0" y="0" flags="0x1000"/>
      <component glyphName="acute.cap" x="119" y="175" flags="0x1000"/>
    </TTGlyph>
    <TTGlyph name="Ebreve" xMin="31" yMin="0" xMax="583" yMax="899">
      <component glyphName="E" x="0" y="0" flags="0x1000"/>
      <component glyphName="breve.cap" x="110" y="175" flags="0x1000"/>
    </TTGlyph>
    <TTGlyph name="Ecaron" xMin="31" yMin="0" xMax="583" yMax="906">
      <component glyphName="E" x="0" y="0" flags="0x1000"/>
      <component glyphName="caron.cap" x="110" y="175" flags="0x1000"/>
    </TTGlyph>
    <TTGlyph name="Ecircumflex" xMin="31" yMin="0" xMax="583" yMax="914">
      <component glyphName="E" x="0" y="0" flags="0x1000"/>
      <component glyphName="circumflex.cap" x="116" y="175" flags="0x1000"/>
    </TTGlyph>
    <TTGlyph name="Ecircumflexacute" xMin="31" yMin="0" xMax="610" yMax="1051">
      <component glyphName="E" x="0" y="0" flags="0x1000"/>
      <component glyphName="circumflexacute" x="116" y="175" flags="0x1000"/>
    </TTGlyph>
    <TTGlyph name="Ecircumflexdotbelow" xMin="31" yMin="-233" xMax="583" yMax="914">
      <component glyphName="E" x="0" y="0" flags="0x1000"/>
      <component glyphName="dotbelowcomb" x="133" y="0" flags="0x1000"/>
      <component glyphName="circumflex.cap" x="116" y="175" flags="0x1000"/>
    </TTGlyph>
    <TTGlyph name="Ecircumflexgrave" xMin="31" yMin="0" xMax="583" yMax="1051">
      <component glyphName="E" x="0" y="0" flags="0x1000"/>
      <component glyphName="circumflexgrave" x="116" y="175" flags="0x1000"/>
    </TTGlyph>
    <TTGlyph name="Ecircumflexhookabove" xMin="31" yMin="0" xMax="583" yMax="1100">
      <component glyphName="E" x="0" y="0" flags="0x1000"/>
      <component glyphName="circumflexhookabove" x="116" y="175" flags="0x1000"/>
    </TTGlyph>
    <TTGlyph name="Ecircumflextilde" xMin="31" yMin="0" xMax="583" yMax="1051">
      <component glyphName="E" x="0" y="0" flags="0x1000"/>
      <component glyphName="circumflexgrave" x="116" y="175" flags="0x1000"/>
    </TTGlyph>
    <TTGlyph name="Edieresis" xMin="31" yMin="0" xMax="583" yMax="890">
      <component glyphName="E" x="0" y="0" flags="0x1000"/>
      <component glyphName="dieresis" x="113" y="175" flags="0x1000"/>
    </TTGlyph>
    <TTGlyph name="Edotaccent" xMin="31" yMin="0" xMax="583" yMax="905">
      <component glyphName="E" x="0" y="0" flags="0x1000"/>
      <component glyphName="dotaccent" x="114" y="175" flags="0x1000"/>
    </TTGlyph>
    <TTGlyph name="Edotbelow" xMin="31" yMin="-233" xMax="583" yMax="647">
      <component glyphName="E" x="0" y="0" flags="0x1000"/>
      <component glyphName="dotbelowcomb" x="133" y="0" flags="0x1000"/>
    </TTGlyph>
    <TTGlyph name="Egrave" xMin="31" yMin="0" xMax="583" yMax="917">
      <component glyphName="E" x="0" y="0" flags="0x1000"/>
      <component glyphName="grave.cap" x="116" y="175" flags="0x1000"/>
    </TTGlyph>
    <TTGlyph name="Ehookabove" xMin="31" yMin="0" xMax="583" yMax="947">
      <component glyphName="E" x="0" y="0" flags="0x1000"/>
      <component glyphName="hookabove" x="63" y="175" flags="0x1000"/>
    </TTGlyph>
    <TTGlyph name="Emacron" xMin="31" yMin="0" xMax="583" yMax="865">
      <component glyphName="E" x="0" y="0" flags="0x1000"/>
      <component glyphName="macron" x="113" y="175" flags="0x1000"/>
    </TTGlyph>
    <TTGlyph name="Eng" xMin="32" yMin="-182" xMax="701" yMax="651">
      <contour>
        <pt x="623" y="54" on="1"/>
        <pt x="615" y="-9" on="0"/>
        <pt x="563" y="-95" on="0"/>
        <pt x="458" y="-157" on="0"/>
        <pt x="370" y="-182" on="1"/>
        <pt x="331" y="-79" on="1"/>
        <pt x="332" y="-63" on="1"/>
        <pt x="395" y="-35" on="0"/>
        <pt x="419" y="0" on="1"/>
        <pt x="261" y="348" on="1"/>
        <pt x="249" y="348" on="1"/>
        <pt x="234" y="234" on="1"/>
        <pt x="213" y="0" on="1"/>
        <pt x="32" y="0" on="1"/>
        <pt x="66" y="190" on="1"/>
        <pt x="112" y="647" on="1"/>
        <pt x="329" y="647" on="1"/>
        <pt x="472" y="319" on="1"/>
        <pt x="484" y="319" on="1"/>
        <pt x="517" y="640" on="1"/>
        <pt x="701" y="651" on="1"/>
        <pt x="636" y="211" on="1"/>
      </contour>
    </TTGlyph>
    <TTGlyph name="Eogonek" xMin="31" yMin="-197" xMax="583" yMax="647">
      <contour>
        <pt x="278" y="402" on="1"/>
        <pt x="377" y="402" on="1"/>
        <pt x="482" y="405" on="1"/>
        <pt x="491" y="391" on="1"/>
        <pt x="461" y="245" on="1"/>
        <pt x="346" y="248" on="1"/>
        <pt x="255" y="248" on="1"/>
        <pt x="249" y="210" on="1"/>
        <pt x="244" y="153" on="1"/>
        <pt x="341" y="153" on="1"/>
        <pt x="508" y="159" on="1"/>
        <pt x="517" y="145" on="1"/>
        <pt x="487" y="0" on="1"/>
        <pt x="415" y="0" on="1"/>
        <pt x="400" y="-22" on="1"/>
        <pt x="384" y="-46" on="0"/>
        <pt x="384" y="-66" on="1"/>
        <pt x="384" y="-99" on="0"/>
        <pt x="420" y="-99" on="1"/>
        <pt x="449" y="-99" on="0"/>
        <pt x="481" y="-79" on="1"/>
        <pt x="491" y="-79" on="1"/>
        <pt x="503" y="-151" on="1"/>
        <pt x="443" y="-197" on="0"/>
        <pt x="392" y="-197" on="1"/>
        <pt x="344" y="-197" on="0"/>
        <pt x="288" y="-142" on="0"/>
        <pt x="288" y="-100" on="1"/>
        <pt x="288" y="-53" on="0"/>
        <pt x="321" y="-9" on="1"/>
        <pt x="328" y="0" on="1"/>
        <pt x="31" y="0" on="1"/>
        <pt x="64" y="190" on="1"/>
        <pt x="111" y="647" on="1"/>
        <pt x="575" y="647" on="1"/>
        <pt x="583" y="633" on="1"/>
        <pt x="553" y="488" on="1"/>
        <pt x="395" y="494" on="1"/>
        <pt x="291" y="494" on="1"/>
      </contour>
    </TTGlyph>
    <TTGlyph name="Eth" xMin="18" yMin="-9" xMax="696" yMax="651">
      <contour>
        <pt x="553" y="651" on="0"/>
        <pt x="696" y="519" on="0"/>
        <pt x="696" y="397" on="1"/>
        <pt x="696" y="206" on="0"/>
        <pt x="500" y="-9" on="0"/>
        <pt x="316" y="-9" on="1"/>
        <pt x="202" y="-9" on="0"/>
        <pt x="63" y="0" on="1"/>
        <pt x="96" y="190" on="1"/>
        <pt x="102" y="249" on="1"/>
        <pt x="26" y="249" on="1"/>
        <pt x="18" y="262" on="1"/>
        <pt x="36" y="379" on="1"/>
        <pt x="115" y="379" on="1"/>
        <pt x="142" y="647" on="1"/>
        <pt x="425" y="651" on="1"/>
      </contour>
      <contour>
        <pt x="485" y="139" on="0"/>
        <pt x="485" y="368" on="1"/>
        <pt x="485" y="437" on="0"/>
        <pt x="444" y="496" on="0"/>
        <pt x="398" y="496" on="1"/>
        <pt x="361" y="496" on="0"/>
        <pt x="322" y="492" on="1"/>
        <pt x="305" y="379" on="1"/>
        <pt x="381" y="379" on="1"/>
        <pt x="388" y="366" on="1"/>
        <pt x="371" y="249" on="1"/>
        <pt x="286" y="249" on="1"/>
        <pt x="280" y="210" on="1"/>
        <pt x="275" y="147" on="1"/>
        <pt x="335" y="139" on="0"/>
        <pt x="361" y="139" on="1"/>
      </contour>
    </TTGlyph>
    <TTGlyph name="Etilde" xMin="31" yMin="0" xMax="583" yMax="915">
      <component glyphName="E" x="0" y="0" flags="0x1000"/>
      <component glyphName="tilde" x="114" y="175" flags="0x1000"/>
    </TTGlyph>
    <TTGlyph name="Euro" xMin="-8" yMin="-9" xMax="483" yMax="519">
      <contour>
        <pt x="428" y="519" on="0"/>
        <pt x="483" y="500" on="1"/>
        <pt x="439" y="367" on="1"/>
        <pt x="427" y="360" on="1"/>
        <pt x="389" y="384" on="0"/>
        <pt x="337" y="384" on="1"/>
        <pt x="293" y="384" on="0"/>
        <pt x="270" y="355" on="1"/>
        <pt x="372" y="355" on="1"/>
        <pt x="378" y="348" on="1"/>
        <pt x="364" y="268" on="1"/>
        <pt x="11" y="268" on="1"/>
        <pt x="6" y="277" on="1"/>
        <pt x="20" y="355" on="1"/>
        <pt x="91" y="355" on="1"/>
        <pt x="126" y="434" on="0"/>
        <pt x="261" y="519" on="0"/>
        <pt x="357" y="519" on="1"/>
      </contour>
      <contour>
        <pt x="362" y="126" on="0"/>
        <pt x="412" y="142" on="1"/>
        <pt x="423" y="135" on="1"/>
        <pt x="395" y="3" on="1"/>
        <pt x="349" y="-9" on="0"/>
        <pt x="292" y="-9" on="1"/>
        <pt x="83" y="-9" on="0"/>
        <pt x="60" y="155" on="1"/>
        <pt x="-3" y="155" on="1"/>
        <pt x="-8" y="163" on="1"/>
        <pt x="6" y="242" on="1"/>
        <pt x="358" y="242" on="1"/>
        <pt x="364" y="234" on="1"/>
        <pt x="350" y="155" on="1"/>
        <pt x="250" y="155" on="1"/>
        <pt x="269" y="126" on="0"/>
        <pt x="315" y="126" on="1"/>
      </contour>
    </TTGlyph>
    <TTGlyph name="F" xMin="31" yMin="0" xMax="551" yMax="647">
      <contour>
        <pt x="274" y="377" on="1"/>
        <pt x="341" y="377" on="1"/>
        <pt x="458" y="380" on="1"/>
        <pt x="467" y="366" on="1"/>
        <pt x="437" y="221" on="1"/>
        <pt x="310" y="224" on="1"/>
        <pt x="251" y="224" on="1"/>
        <pt x="249" y="210" on="1"/>
        <pt x="231" y="0" on="1"/>
        <pt x="31" y="0" on="1"/>
        <pt x="64" y="190" on="1"/>
        <pt x="111" y="647" on="1"/>
        <pt x="542" y="647" on="1"/>
        <pt x="551" y="633" on="1"/>
        <pt x="520" y="488" on="1"/>
        <pt x="362" y="494" on="1"/>
        <pt x="291" y="494" on="1"/>
      </contour>
    </TTGlyph>
    <TTGlyph name="G" xMin="24" yMin="-12" xMax="619" yMax="658">
      <contour>
        <pt x="543" y="658" on="0"/>
        <pt x="619" y="628" on="1"/>
        <pt x="555" y="452" on="1"/>
        <pt x="539" y="452" on="1"/>
        <pt x="492" y="477" on="0"/>
        <pt x="422" y="499" on="0"/>
        <pt x="379" y="499" on="1"/>
        <pt x="330" y="499" on="0"/>
        <pt x="268" y="462" on="0"/>
        <pt x="233" y="358" on="0"/>
        <pt x="233" y="260" on="1"/>
        <pt x="233" y="191" on="0"/>
        <pt x="283" y="138" on="0"/>
        <pt x="343" y="138" on="1"/>
        <pt x="357" y="138" on="0"/>
        <pt x="379" y="142" on="1"/>
        <pt x="383" y="175" on="1"/>
        <pt x="393" y="284" on="1"/>
        <pt x="577" y="297" on="1"/>
        <pt x="563" y="209" on="1"/>
        <pt x="541" y="32" on="1"/>
        <pt x="422" y="-12" on="0"/>
        <pt x="316" y="-12" on="1"/>
        <pt x="175" y="-12" on="0"/>
        <pt x="24" y="130" on="0"/>
        <pt x="24" y="258" on="1"/>
        <pt x="24" y="451" on="0"/>
        <pt x="231" y="658" on="0"/>
        <pt x="426" y="658" on="1"/>
      </contour>
    </TTGlyph>
    <TTGlyph name="Gbreve" xMin="24" yMin="-12" xMax="619" yMax="899">
      <component glyphName="G" x="0" y="0" flags="0x1000"/>
      <component glyphName="breve.cap" x="149" y="175" flags="0x1000"/>
    </TTGlyph>
    <TTGlyph name="Gcircumflex" xMin="24" yMin="-12" xMax="619" yMax="914">
      <component glyphName="G" x="0" y="0" flags="0x1000"/>
      <component glyphName="circumflex.cap" x="155" y="175" flags="0x1000"/>
    </TTGlyph>
    <TTGlyph name="Gcommaaccent" xMin="24" yMin="-311" xMax="619" yMax="658">
      <component glyphName="G" x="0" y="0" flags="0x1000"/>
      <component glyphName="commaaccentcomb" x="163" y="0" flags="0x1000"/>
    </TTGlyph>
    <TTGlyph name="Gdieresis" xMin="24" yMin="-12" xMax="619" yMax="890">
      <component glyphName="G" x="0" y="0" flags="0x1000"/>
      <component glyphName="dieresis" x="152" y="175" flags="0x1000"/>
    </TTGlyph>
    <TTGlyph name="Gdotaccent" xMin="24" yMin="-12" xMax="619" yMax="905">
      <component glyphName="G" x="0" y="0" flags="0x1000"/>
      <component glyphName="dotaccent" x="153" y="175" flags="0x1000"/>
    </TTGlyph>
    <TTGlyph name="Gtilde" xMin="24" yMin="-12" xMax="619" yMax="915">
      <component glyphName="G" x="0" y="0" flags="0x1000"/>
      <component glyphName="tilde" x="153" y="175" flags="0x1000"/>
    </TTGlyph>
    <TTGlyph name="H" xMin="31" yMin="0" xMax="700" yMax="647">
      <contour>
        <pt x="635" y="210" on="1"/>
        <pt x="617" y="0" on="1"/>
        <pt x="417" y="0" on="1"/>
        <pt x="451" y="190" on="1"/>
        <pt x="456" y="240" on="1"/>
        <pt x="348" y="242" on="1"/>
        <pt x="253" y="239" on="1"/>
        <pt x="249" y="210" on="1"/>
        <pt x="231" y="0" on="1"/>
        <pt x="31" y="0" on="1"/>
        <pt x="65" y="190" on="1"/>
        <pt x="111" y="647" on="1"/>
        <pt x="314" y="647" on="1"/>
        <pt x="278" y="402" on="1"/>
        <pt x="379" y="400" on="1"/>
        <pt x="472" y="402" on="1"/>
        <pt x="497" y="647" on="1"/>
        <pt x="700" y="647" on="1"/>
      </contour>
    </TTGlyph>
    <TTGlyph name="Hbar" xMin="46" yMin="0" xMax="769" yMax="647">
      <contour>
        <pt x="691" y="472" on="1"/>
        <pt x="652" y="210" on="1"/>
        <pt x="634" y="0" on="1"/>
        <pt x="434" y="0" on="1"/>
        <pt x="468" y="190" on="1"/>
        <pt x="473" y="240" on="1"/>
        <pt x="365" y="242" on="1"/>
        <pt x="270" y="239" on="1"/>
        <pt x="266" y="210" on="1"/>
        <pt x="248" y="0" on="1"/>
        <pt x="48" y="0" on="1"/>
        <pt x="82" y="190" on="1"/>
        <pt x="110" y="472" on="1"/>
        <pt x="54" y="472" on="1"/>
        <pt x="46" y="482" on="1"/>
        <pt x="52" y="573" on="1"/>
        <pt x="121" y="573" on="1"/>
        <pt x="128" y="647" on="1"/>
        <pt x="331" y="647" on="1"/>
        <pt x="320" y="573" on="1"/>
        <pt x="507" y="573" on="1"/>
        <pt x="514" y="647" on="1"/>
        <pt x="717" y="647" on="1"/>
        <pt x="706" y="573" on="1"/>
        <pt x="761" y="573" on="1"/>
        <pt x="769" y="563" on="1"/>
        <pt x="764" y="472" on="1"/>
      </contour>
      <contour>
        <pt x="305" y="472" on="1"/>
        <pt x="295" y="402" on="1"/>
        <pt x="396" y="400" on="1"/>
        <pt x="489" y="402" on="1"/>
        <pt x="496" y="472" on="1"/>
      </contour>
    </TTGlyph>
    <TTGlyph name="Hcircumflex" xMin="31" yMin="0" xMax="700" yMax="914">
      <component glyphName="H" x="0" y="0" flags="0x1000"/>
      <component glyphName="circumflex.cap" x="185" y="175" flags="0x1000"/>
    </TTGlyph>
    <TTGlyph name="I" xMin="31" yMin="0" xMax="314" yMax="647">
      <contour>
        <pt x="231" y="0" on="1"/>
        <pt x="31" y="0" on="1"/>
        <pt x="65" y="190" on="1"/>
        <pt x="111" y="647" on="1"/>
        <pt x="314" y="647" on="1"/>
        <pt x="249" y="210" on="1"/>
      </contour>
    </TTGlyph>
    <TTGlyph name="I.ss01" xMin="-128" yMin="0" xMax="436" yMax="513">
      <contour>
        <pt x="215" y="65" on="1"/>
        <pt x="381" y="65" on="1"/>
        <pt x="374" y="0" on="1"/>
        <pt x="-128" y="0" on="1"/>
        <pt x="-121" y="65" on="1"/>
        <pt x="37" y="65" on="1"/>
        <pt x="52" y="149" on="1"/>
        <pt x="81" y="448" on="1"/>
        <pt x="-73" y="448" on="1"/>
        <pt x="-66" y="513" on="1"/>
        <pt x="436" y="513" on="1"/>
        <pt x="429" y="448" on="1"/>
        <pt x="265" y="448" on="1"/>
        <pt x="222" y="168" on="1"/>
      </contour>
    </TTGlyph>
    <TTGlyph name="IJ" xMin="31" yMin="-112" xMax="675" yMax="647">
      <component glyphName="I" x="0" y="0" flags="0x1000"/>
      <component glyphName="J" x="327" y="0" flags="0x1000"/>
    </TTGlyph>
    <TTGlyph name="Iacute" xMin="31" yMin="0" xMax="380" yMax="917">
      <component glyphName="I" x="0" y="0" flags="0x1000"/>
      <component glyphName="acute.cap" x="-7" y="175" flags="0x1000"/>
    </TTGlyph>
    <TTGlyph name="Iacute_J.loclNLD" xMin="31" yMin="-112" xMax="706" yMax="917">
      <component glyphName="I" x="0" y="0" flags="0x1000"/>
      <component glyphName="acute.cap" x="-7" y="175" flags="0x1000"/>
      <component glyphName="J" x="327" y="0" flags="0x1000"/>
      <component glyphName="acute.cap" x="319" y="175" flags="0x1000"/>
    </TTGlyph>
    <TTGlyph name="Ibreve" xMin="31" yMin="0" xMax="408" yMax="899">
      <component glyphName="I" x="0" y="0" flags="0x1000"/>
      <component glyphName="breve.cap" x="-16" y="175" flags="0x1000"/>
    </TTGlyph>
    <TTGlyph name="Icaron" xMin="31" yMin="0" xMax="401" yMax="906">
      <component glyphName="I" x="0" y="0" flags="0x1000"/>
      <component glyphName="caron.cap" x="-16" y="175" flags="0x1000"/>
    </TTGlyph>
    <TTGlyph name="Icircumflex" xMin="31" yMin="0" xMax="402" yMax="914">
      <component glyphName="I" x="0" y="0" flags="0x1000"/>
      <component glyphName="circumflex.cap" x="-10" y="175" flags="0x1000"/>
    </TTGlyph>
    <TTGlyph name="Idieresis" xMin="31" yMin="0" xMax="406" yMax="890">
      <component glyphName="I" x="0" y="0" flags="0x1000"/>
      <component glyphName="dieresis.i" x="-13" y="175" flags="0x1000"/>
    </TTGlyph>
    <TTGlyph name="Idotaccent" xMin="31" yMin="0" xMax="327" yMax="905">
      <component glyphName="I" x="0" y="0" flags="0x1000"/>
      <component glyphName="dotaccent" x="-12" y="175" flags="0x1000"/>
    </TTGlyph>
    <TTGlyph name="Idotbelow" xMin="24" yMin="-233" xMax="314" yMax="647">
      <component glyphName="I" x="0" y="0" flags="0x1000"/>
      <component glyphName="dotbelowcomb" x="-28" y="0" flags="0x1000"/>
    </TTGlyph>
    <TTGlyph name="Igrave" xMin="31" yMin="0" xMax="377" yMax="917">
      <component glyphName="I" x="0" y="0" flags="0x1000"/>
      <component glyphName="grave.cap" x="-10" y="175" flags="0x1000"/>
    </TTGlyph>
    <TTGlyph name="Ihookabove" xMin="31" yMin="0" xMax="314" yMax="947">
      <component glyphName="I" x="0" y="0" flags="0x1000"/>
      <component glyphName="hookabove" x="-63" y="175" flags="0x1000"/>
    </TTGlyph>
    <TTGlyph name="Imacron" xMin="31" yMin="0" xMax="359" yMax="865">
      <component glyphName="I" x="0" y="0" flags="0x1000"/>
      <component glyphName="macron.i" x="-13" y="175" flags="0x1000"/>
    </TTGlyph>
    <TTGlyph name="Iogonek" xMin="0" yMin="-197" xMax="314" yMax="647">
      <contour>
        <pt x="249" y="210" on="1"/>
        <pt x="231" y="0" on="1"/>
        <pt x="122" y="0" on="1"/>
        <pt x="96" y="-40" on="0"/>
        <pt x="96" y="-68" on="1"/>
        <pt x="96" y="-99" on="0"/>
        <pt x="131" y="-99" on="1"/>
        <pt x="165" y="-99" on="0"/>
        <pt x="195" y="-76" on="1"/>
        <pt x="205" y="-76" on="1"/>
        <pt x="217" y="-149" on="1"/>
        <pt x="159" y="-197" on="0"/>
        <pt x="104" y="-197" on="1"/>
        <pt x="56" y="-197" on="0"/>
        <pt x="0" y="-141" on="0"/>
        <pt x="0" y="-98" on="1"/>
        <pt x="0" y="-51" on="0"/>
        <pt x="32" y="0" on="1"/>
        <pt x="31" y="0" on="1"/>
        <pt x="65" y="190" on="1"/>
        <pt x="111" y="647" on="1"/>
        <pt x="314" y="647" on="1"/>
      </contour>
    </TTGlyph>
    <TTGlyph name="Itilde" xMin="31" yMin="0" xMax="402" yMax="912">
      <component glyphName="I" x="0" y="0" flags="0x1000"/>
      <component glyphName="tilde.i" x="-12" y="175" flags="0x1000"/>
    </TTGlyph>
    <TTGlyph name="J" xMin="-17" yMin="-112" xMax="348" yMax="647">
      <contour>
        <pt x="282" y="213" on="1"/>
        <pt x="274" y="124" on="1"/>
        <pt x="265" y="61" on="0"/>
        <pt x="213" y="-25" on="0"/>
        <pt x="110" y="-87" on="0"/>
        <pt x="23" y="-112" on="1"/>
        <pt x="-17" y="-9" on="1"/>
        <pt x="-15" y="6" on="1"/>
        <pt x="38" y="31" on="0"/>
        <pt x="85" y="86" on="0"/>
        <pt x="90" y="130" on="1"/>
        <pt x="98" y="193" on="1"/>
        <pt x="131" y="507" on="1"/>
        <pt x="48" y="504" on="1"/>
        <pt x="39" y="517" on="1"/>
        <pt x="63" y="647" on="1"/>
        <pt x="348" y="647" on="1"/>
      </contour>
    </TTGlyph>
    <TTGlyph name="Jcircumflex" xMin="-17" yMin="-112" xMax="401" yMax="914">
      <component glyphName="J" x="0" y="0" flags="0x1000"/>
      <component glyphName="circumflex.cap" x="-11" y="175" flags="0x1000"/>
    </TTGlyph>
    <TTGlyph name="K" xMin="31" yMin="-12" xMax="677" yMax="647">
      <contour>
        <pt x="517" y="202" on="0"/>
        <pt x="622" y="42" on="1"/>
        <pt x="617" y="20" on="1"/>
        <pt x="508" y="-4" on="0"/>
        <pt x="414" y="-12" on="1"/>
        <pt x="393" y="0" on="1"/>
        <pt x="313" y="175" on="0"/>
        <pt x="262" y="298" on="1"/>
        <pt x="249" y="210" on="1"/>
        <pt x="231" y="0" on="1"/>
        <pt x="31" y="0" on="1"/>
        <pt x="65" y="190" on="1"/>
        <pt x="111" y="647" on="1"/>
        <pt x="314" y="647" on="1"/>
        <pt x="274" y="376" on="1"/>
        <pt x="423" y="577" on="1"/>
        <pt x="466" y="647" on="1"/>
        <pt x="677" y="647" on="1"/>
        <pt x="448" y="330" on="1"/>
      </contour>
    </TTGlyph>
    <TTGlyph name="Kcommaaccent" xMin="31" yMin="-311" xMax="677" yMax="647">
      <component glyphName="K" x="0" y="0" flags="0x1000"/>
      <component glyphName="commaaccentcomb" x="151" y="0" flags="0x1000"/>
    </TTGlyph>
    <TTGlyph name="L" xMin="27" yMin="0" xMax="441" yMax="647">
      <contour>
        <pt x="412" y="0" on="1"/>
        <pt x="27" y="0" on="1"/>
        <pt x="60" y="190" on="1"/>
        <pt x="106" y="647" on="1"/>
        <pt x="309" y="647" on="1"/>
        <pt x="245" y="210" on="1"/>
        <pt x="241" y="163" on="1"/>
        <pt x="432" y="163" on="1"/>
        <pt x="441" y="149" on="1"/>
      </contour>
    </TTGlyph>
    <TTGlyph name="L.ss01" xMin="-128" yMin="0" xMax="535" yMax="513">
      <contour>
        <pt x="216" y="153" on="1"/>
        <pt x="370" y="153" on="1"/>
        <pt x="357" y="65" on="1"/>
        <pt x="480" y="65" on="1"/>
        <pt x="473" y="0" on="1"/>
        <pt x="-128" y="0" on="1"/>
        <pt x="-121" y="65" on="1"/>
        <pt x="34" y="65" on="1"/>
        <pt x="50" y="152" on="1"/>
        <pt x="79" y="448" on="1"/>
        <pt x="-73" y="448" on="1"/>
        <pt x="-66" y="513" on="1"/>
        <pt x="535" y="513" on="1"/>
        <pt x="529" y="448" on="1"/>
        <pt x="260" y="448" on="1"/>
        <pt x="218" y="171" on="1"/>
      </contour>
    </TTGlyph>
    <TTGlyph name="Lacute" xMin="27" yMin="0" xMax="441" yMax="917">
      <component glyphName="L" x="0" y="0" flags="0x1000"/>
      <component glyphName="acute.cap" x="-16" y="175" flags="0x1000"/>
    </TTGlyph>
    <TTGlyph name="Lcaron" xMin="27" yMin="0" xMax="536" yMax="647">
      <contour>
        <pt x="442" y="149" on="1"/>
        <pt x="412" y="0" on="1"/>
        <pt x="27" y="0" on="1"/>
        <pt x="60" y="190" on="1"/>
        <pt x="106" y="647" on="1"/>
        <pt x="309" y="647" on="1"/>
        <pt x="245" y="210" on="1"/>
        <pt x="241" y="163" on="1"/>
        <pt x="433" y="163" on="1"/>
      </contour>
      <contour>
        <pt x="464" y="358" on="1"/>
        <pt x="381" y="346" on="1"/>
        <pt x="370" y="355" on="1"/>
        <pt x="389" y="593" on="1"/>
        <pt x="528" y="601" on="1"/>
        <pt x="536" y="590" on="1"/>
      </contour>
    </TTGlyph>
    <TTGlyph name="Lcommaaccent" xMin="27" yMin="-311" xMax="441" yMax="647">
      <component glyphName="L" x="0" y="0" flags="0x1000"/>
      <component glyphName="commaaccentcomb" x="49" y="0" flags="0x1000"/>
    </TTGlyph>
    <TTGlyph name="Ldot" xMin="37" yMin="0" xMax="522" yMax="647">
      <contour>
        <pt x="451" y="149" on="1"/>
        <pt x="421" y="0" on="1"/>
        <pt x="37" y="0" on="1"/>
        <pt x="70" y="190" on="1"/>
        <pt x="116" y="647" on="1"/>
        <pt x="319" y="647" on="1"/>
        <pt x="255" y="210" on="1"/>
        <pt x="251" y="163" on="1"/>
        <pt x="442" y="163" on="1"/>
      </contour>
      <contour>
        <pt x="474" y="500" on="0"/>
        <pt x="522" y="450" on="0"/>
        <pt x="522" y="406" on="1"/>
        <pt x="522" y="358" on="0"/>
        <pt x="468" y="302" on="0"/>
        <pt x="422" y="302" on="1"/>
        <pt x="376" y="302" on="0"/>
        <pt x="328" y="351" on="0"/>
        <pt x="328" y="397" on="1"/>
        <pt x="328" y="444" on="0"/>
        <pt x="383" y="500" on="0"/>
        <pt x="430" y="500" on="1"/>
      </contour>
    </TTGlyph>
    <TTGlyph name="Lslash" xMin="-17" yMin="0" xMax="448" yMax="647">
      <contour>
        <pt x="419" y="0" on="1"/>
        <pt x="34" y="0" on="1"/>
        <pt x="67" y="190" on="1"/>
        <pt x="68" y="201" on="1"/>
        <pt x="19" y="178" on="1"/>
        <pt x="4" y="187" on="1"/>
        <pt x="-17" y="301" on="1"/>
        <pt x="83" y="349" on="1"/>
        <pt x="113" y="647" on="1"/>
        <pt x="316" y="647" on="1"/>
        <pt x="286" y="445" on="1"/>
        <pt x="359" y="480" on="1"/>
        <pt x="374" y="471" on="1"/>
        <pt x="396" y="358" on="1"/>
        <pt x="264" y="295" on="1"/>
        <pt x="252" y="210" on="1"/>
        <pt x="248" y="163" on="1"/>
        <pt x="439" y="163" on="1"/>
        <pt x="448" y="149" on="1"/>
      </contour>
    </TTGlyph>
    <TTGlyph name="M" xMin="-3" yMin="0" xMax="773" yMax="647">
      <contour>
        <pt x="570" y="0" on="1"/>
        <pt x="590" y="196" on="1"/>
        <pt x="599" y="361" on="1"/>
        <pt x="587" y="361" on="1"/>
        <pt x="444" y="61" on="1"/>
        <pt x="294" y="61" on="1"/>
        <pt x="244" y="361" on="1"/>
        <pt x="232" y="361" on="1"/>
        <pt x="199" y="215" on="1"/>
        <pt x="164" y="0" on="1"/>
        <pt x="-3" y="0" on="1"/>
        <pt x="139" y="647" on="1"/>
        <pt x="370" y="647" on="1"/>
        <pt x="378" y="555" on="1"/>
        <pt x="407" y="319" on="1"/>
        <pt x="419" y="319" on="1"/>
        <pt x="510" y="548" on="1"/>
        <pt x="546" y="647" on="1"/>
        <pt x="773" y="647" on="1"/>
        <pt x="746" y="0" on="1"/>
      </contour>
    </TTGlyph>
    <TTGlyph name="M.ss01" xMin="-128" yMin="0" xMax="825" yMax="513">
      <contour>
        <pt x="613" y="65" on="1"/>
        <pt x="770" y="65" on="1"/>
        <pt x="763" y="0" on="1"/>
        <pt x="-128" y="0" on="1"/>
        <pt x="-121" y="65" on="1"/>
        <pt x="28" y="65" on="1"/>
        <pt x="114" y="448" on="1"/>
        <pt x="-73" y="448" on="1"/>
        <pt x="-66" y="513" on="1"/>
        <pt x="825" y="513" on="1"/>
        <pt x="818" y="448" on="1"/>
        <pt x="629" y="448" on="1"/>
      </contour>
      <contour>
        <pt x="331" y="448" on="1"/>
        <pt x="332" y="433" on="1"/>
        <pt x="349" y="317" on="1"/>
        <pt x="359" y="317" on="1"/>
        <pt x="407" y="427" on="1"/>
        <pt x="415" y="448" on="1"/>
      </contour>
      <contour>
        <pt x="476" y="178" on="1"/>
        <pt x="482" y="259" on="1"/>
        <pt x="473" y="259" on="1"/>
        <pt x="381" y="93" on="1"/>
        <pt x="250" y="93" on="1"/>
        <pt x="214" y="259" on="1"/>
        <pt x="204" y="259" on="1"/>
        <pt x="190" y="192" on="1"/>
        <pt x="171" y="65" on="1"/>
        <pt x="463" y="65" on="1"/>
      </contour>
    </TTGlyph>
    <TTGlyph name="N" xMin="32" yMin="0" xMax="701" yMax="651">
      <contour>
        <pt x="618" y="0" on="1"/>
        <pt x="401" y="0" on="1"/>
        <pt x="261" y="348" on="1"/>
        <pt x="249" y="348" on="1"/>
        <pt x="234" y="234" on="1"/>
        <pt x="213" y="0" on="1"/>
        <pt x="32" y="0" on="1"/>
        <pt x="65" y="190" on="1"/>
        <pt x="111" y="647" on="1"/>
        <pt x="328" y="647" on="1"/>
        <pt x="469" y="299" on="1"/>
        <pt x="481" y="299" on="1"/>
        <pt x="517" y="640" on="1"/>
        <pt x="701" y="651" on="1"/>
        <pt x="636" y="211" on="1"/>
      </contour>
    </TTGlyph>
    <TTGlyph name="Nacute" xMin="32" yMin="0" xMax="701" yMax="917">
      <component glyphName="N" x="0" y="0" flags="0x1000"/>
      <component glyphName="acute.cap" x="188" y="175" flags="0x1000"/>
    </TTGlyph>
    <TTGlyph name="Ncaron" xMin="32" yMin="0" xMax="701" yMax="906">
      <component glyphName="N" x="0" y="0" flags="0x1000"/>
      <component glyphName="caron.cap" x="179" y="175" flags="0x1000"/>
    </TTGlyph>
    <TTGlyph name="Ncommaaccent" xMin="32" yMin="-311" xMax="701" yMax="651">
      <component glyphName="N" x="0" y="0" flags="0x1000"/>
      <component glyphName="commaaccentcomb" x="164" y="0" flags="0x1000"/>
    </TTGlyph>
    <TTGlyph name="Ntilde" xMin="32" yMin="0" xMax="701" yMax="915">
      <component glyphName="N" x="0" y="0" flags="0x1000"/>
      <component glyphName="tilde" x="183" y="175" flags="0x1000"/>
    </TTGlyph>
    <TTGlyph name="O" xMin="24" yMin="-12" xMax="654" yMax="659">
      <contour>
        <pt x="511" y="659" on="0"/>
        <pt x="654" y="518" on="0"/>
        <pt x="654" y="374" on="1"/>
        <pt x="654" y="262" on="0"/>
        <pt x="571" y="87" on="0"/>
        <pt x="411" y="-12" on="0"/>
        <pt x="299" y="-12" on="1"/>
        <pt x="168" y="-12" on="0"/>
        <pt x="24" y="131" on="0"/>
        <pt x="24" y="276" on="1"/>
        <pt x="24" y="388" on="0"/>
        <pt x="107" y="561" on="0"/>
        <pt x="268" y="659" on="0"/>
        <pt x="380" y="659" on="1"/>
      </contour>
      <contour>
        <pt x="317" y="500" on="0"/>
        <pt x="264" y="464" on="0"/>
        <pt x="233" y="365" on="0"/>
        <pt x="233" y="273" on="1"/>
        <pt x="233" y="219" on="0"/>
        <pt x="247" y="161" on="0"/>
        <pt x="284" y="135" on="0"/>
        <pt x="320" y="135" on="1"/>
        <pt x="359" y="135" on="0"/>
        <pt x="413" y="171" on="0"/>
        <pt x="444" y="270" on="0"/>
        <pt x="444" y="362" on="1"/>
        <pt x="444" y="415" on="0"/>
        <pt x="430" y="474" on="0"/>
        <pt x="393" y="500" on="0"/>
        <pt x="357" y="500" on="1"/>
      </contour>
    </TTGlyph>
    <TTGlyph name="OE" xMin="24" yMin="-12" xMax="933" yMax="659">
      <contour>
        <pt x="456" y="659" on="0"/>
        <pt x="517" y="652" on="1"/>
        <pt x="592" y="647" on="0"/>
        <pt x="602" y="647" on="1"/>
        <pt x="923" y="647" on="1"/>
        <pt x="933" y="633" on="1"/>
        <pt x="902" y="488" on="1"/>
        <pt x="743" y="494" on="1"/>
        <pt x="640" y="494" on="1"/>
        <pt x="627" y="402" on="1"/>
        <pt x="726" y="402" on="1"/>
        <pt x="831" y="405" on="1"/>
        <pt x="840" y="391" on="1"/>
        <pt x="810" y="245" on="1"/>
        <pt x="694" y="248" on="1"/>
        <pt x="603" y="248" on="1"/>
        <pt x="599" y="210" on="1"/>
        <pt x="594" y="153" on="1"/>
        <pt x="690" y="153" on="1"/>
        <pt x="857" y="159" on="1"/>
        <pt x="866" y="145" on="1"/>
        <pt x="836" y="0" on="1"/>
        <pt x="523" y="0" on="1"/>
        <pt x="499" y="1" on="0"/>
        <pt x="411" y="-5" on="1"/>
        <pt x="345" y="-12" on="0"/>
        <pt x="293" y="-12" on="1"/>
        <pt x="164" y="-12" on="0"/>
        <pt x="24" y="131" on="0"/>
        <pt x="24" y="262" on="1"/>
        <pt x="24" y="384" on="0"/>
        <pt x="116" y="563" on="0"/>
        <pt x="287" y="659" on="0"/>
        <pt x="402" y="659" on="1"/>
      </contour>
      <contour>
        <pt x="320" y="500" on="0"/>
        <pt x="264" y="462" on="0"/>
        <pt x="234" y="359" on="0"/>
        <pt x="234" y="264" on="1"/>
        <pt x="234" y="195" on="0"/>
        <pt x="277" y="135" on="0"/>
        <pt x="328" y="135" on="1"/>
        <pt x="380" y="135" on="0"/>
        <pt x="396" y="150" on="1"/>
        <pt x="412" y="165" on="0"/>
        <pt x="415" y="204" on="1"/>
        <pt x="438" y="435" on="1"/>
        <pt x="439" y="443" on="0"/>
        <pt x="439" y="456" on="1"/>
        <pt x="439" y="475" on="0"/>
        <pt x="433" y="484" on="1"/>
        <pt x="420" y="500" on="0"/>
        <pt x="365" y="500" on="1"/>
      </contour>
    </TTGlyph>
    <TTGlyph name="Oacute" xMin="24" yMin="-12" xMax="654" yMax="917">
      <component glyphName="O" x="0" y="0" flags="0x1000"/>
      <component glyphName="acute.cap" x="161" y="175" flags="0x1000"/>
    </TTGlyph>
    <TTGlyph name="Obreve" xMin="24" yMin="-12" xMax="654" yMax="899">
      <component glyphName="O" x="0" y="0" flags="0x1000"/>
      <component glyphName="breve.cap" x="152" y="175" flags="0x1000"/>
    </TTGlyph>
    <TTGlyph name="Ocaron" xMin="24" yMin="-12" xMax="654" yMax="906">
      <component glyphName="O" x="0" y="0" flags="0x1000"/>
      <component glyphName="caron.cap" x="152" y="175" flags="0x1000"/>
    </TTGlyph>
    <TTGlyph name="Ocircumflex" xMin="24" yMin="-12" xMax="654" yMax="914">
      <component glyphName="O" x="0" y="0" flags="0x1000"/>
      <component glyphName="circumflex.cap" x="158" y="175" flags="0x1000"/>
    </TTGlyph>
    <TTGlyph name="Ocircumflexacute" xMin="24" yMin="-12" xMax="654" yMax="1051">
      <component glyphName="O" x="0" y="0" flags="0x1000"/>
      <component glyphName="circumflexacute" x="158" y="175" flags="0x1000"/>
    </TTGlyph>
    <TTGlyph name="Ocircumflexdotbelow" xMin="24" yMin="-233" xMax="654" yMax="914">
      <contour>
        <pt x="329" y="863" on="0"/>
        <pt x="388" y="914" on="1"/>
        <pt x="422" y="914" on="1"/>
        <pt x="480" y="859" on="0"/>
        <pt x="570" y="796" on="1"/>
        <pt x="527" y="720" on="1"/>
        <pt x="509" y="720" on="1"/>
        <pt x="401" y="780" on="1"/>
        <pt x="381" y="770" on="0"/>
        <pt x="337" y="750" on="1"/>
        <pt x="273" y="720" on="1"/>
        <pt x="255" y="720" on="1"/>
        <pt x="230" y="796" on="1"/>
      </contour>
      <contour>
        <pt x="511" y="659" on="0"/>
        <pt x="654" y="518" on="0"/>
        <pt x="654" y="374" on="1"/>
        <pt x="654" y="262" on="0"/>
        <pt x="571" y="87" on="0"/>
        <pt x="411" y="-12" on="0"/>
        <pt x="299" y="-12" on="1"/>
        <pt x="168" y="-12" on="0"/>
        <pt x="24" y="131" on="0"/>
        <pt x="24" y="276" on="1"/>
        <pt x="24" y="388" on="0"/>
        <pt x="107" y="561" on="0"/>
        <pt x="268" y="659" on="0"/>
        <pt x="380" y="659" on="1"/>
      </contour>
      <contour>
        <pt x="317" y="500" on="0"/>
        <pt x="264" y="464" on="0"/>
        <pt x="233" y="365" on="0"/>
        <pt x="233" y="273" on="1"/>
        <pt x="233" y="219" on="0"/>
        <pt x="247" y="161" on="0"/>
        <pt x="284" y="135" on="0"/>
        <pt x="320" y="135" on="1"/>
        <pt x="359" y="135" on="0"/>
        <pt x="413" y="171" on="0"/>
        <pt x="444" y="270" on="0"/>
        <pt x="444" y="362" on="1"/>
        <pt x="444" y="415" on="0"/>
        <pt x="430" y="474" on="0"/>
        <pt x="393" y="500" on="0"/>
        <pt x="357" y="500" on="1"/>
      </contour>
      <contour>
        <pt x="359" y="-35" on="0"/>
        <pt x="408" y="-85" on="0"/>
        <pt x="408" y="-130" on="1"/>
        <pt x="408" y="-178" on="0"/>
        <pt x="354" y="-233" on="0"/>
        <pt x="307" y="-233" on="1"/>
        <pt x="262" y="-233" on="0"/>
        <pt x="214" y="-184" on="0"/>
        <pt x="214" y="-139" on="1"/>
        <pt x="214" y="-91" on="0"/>
        <pt x="268" y="-35" on="0"/>
        <pt x="315" y="-35" on="1"/>
      </contour>
    </TTGlyph>
    <TTGlyph name="Ocircumflexgrave" xMin="24" yMin="-12" xMax="654" yMax="1051">
      <component glyphName="O" x="0" y="0" flags="0x1000"/>
      <component glyphName="circumflexgrave" x="158" y="175" flags="0x1000"/>
    </TTGlyph>
    <TTGlyph name="Ocircumflexhookabove" xMin="24" yMin="-12" xMax="654" yMax="1100">
      <component glyphName="O" x="0" y="0" flags="0x1000"/>
      <component glyphName="circumflexhookabove" x="158" y="175" flags="0x1000"/>
    </TTGlyph>
    <TTGlyph name="Ocircumflextilde" xMin="24" yMin="-12" xMax="654" yMax="1080">
      <component glyphName="O" x="0" y="0" flags="0x1000"/>
      <component glyphName="circumflextilde" x="160" y="175" flags="0x1000"/>
    </TTGlyph>
    <TTGlyph name="Odieresis" xMin="24" yMin="-12" xMax="654" yMax="890">
      <component glyphName="O" x="0" y="0" flags="0x1000"/>
      <component glyphName="dieresis" x="155" y="175" flags="0x1000"/>
    </TTGlyph>
    <TTGlyph name="Odotbelow" xMin="24" yMin="-233" xMax="654" yMax="659">
      <component glyphName="O" x="0" y="0" flags="0x1000"/>
      <component glyphName="dotbelowcomb" x="162" y="0" flags="0x1000"/>
    </TTGlyph>
    <TTGlyph name="Ograve" xMin="24" yMin="-12" xMax="654" yMax="917">
      <component glyphName="O" x="0" y="0" flags="0x1000"/>
      <component glyphName="grave.cap" x="158" y="175" flags="0x1000"/>
    </TTGlyph>
    <TTGlyph name="Ohm" xMin="-18" yMin="-8" xMax="744" yMax="659">
      <component glyphName="Omega" x="0" y="0" flags="0x1000"/>
    </TTGlyph>
    <TTGlyph name="Ohookabove" xMin="24" yMin="-12" xMax="654" yMax="947">
      <component glyphName="O" x="0" y="0" flags="0x1000"/>
      <component glyphName="hookabove" x="105" y="175" flags="0x1000"/>
    </TTGlyph>
    <TTGlyph name="Ohorn" xMin="24" yMin="-12" xMax="754" yMax="789">
      <contour>
        <pt x="714" y="789" on="0"/>
        <pt x="754" y="740" on="0"/>
        <pt x="754" y="700" on="1"/>
        <pt x="754" y="644" on="0"/>
        <pt x="676" y="559" on="0"/>
        <pt x="616" y="545" on="1"/>
        <pt x="653" y="478" on="0"/>
        <pt x="653" y="381" on="1"/>
        <pt x="653" y="266" on="0"/>
        <pt x="568" y="88" on="0"/>
        <pt x="408" y="-12" on="0"/>
        <pt x="298" y="-12" on="1"/>
        <pt x="166" y="-12" on="0"/>
        <pt x="24" y="136" on="0"/>
        <pt x="24" y="277" on="1"/>
        <pt x="24" y="391" on="0"/>
        <pt x="114" y="565" on="0"/>
        <pt x="273" y="659" on="0"/>
        <pt x="373" y="659" on="1"/>
        <pt x="424" y="659" on="0"/>
        <pt x="494" y="641" on="1"/>
        <pt x="536" y="631" on="0"/>
        <pt x="550" y="631" on="1"/>
        <pt x="602" y="631" on="0"/>
        <pt x="602" y="682" on="1"/>
        <pt x="602" y="716" on="0"/>
        <pt x="580" y="738" on="1"/>
        <pt x="585" y="752" on="1"/>
        <pt x="641" y="789" on="0"/>
        <pt x="681" y="789" on="1"/>
      </contour>
      <contour>
        <pt x="317" y="500" on="0"/>
        <pt x="264" y="464" on="0"/>
        <pt x="233" y="364" on="0"/>
        <pt x="233" y="272" on="1"/>
        <pt x="233" y="220" on="0"/>
        <pt x="247" y="163" on="0"/>
        <pt x="285" y="135" on="0"/>
        <pt x="323" y="135" on="1"/>
        <pt x="361" y="135" on="0"/>
        <pt x="414" y="171" on="0"/>
        <pt x="445" y="271" on="0"/>
        <pt x="445" y="364" on="1"/>
        <pt x="445" y="415" on="0"/>
        <pt x="432" y="472" on="0"/>
        <pt x="393" y="500" on="0"/>
        <pt x="356" y="500" on="1"/>
      </contour>
    </TTGlyph>
    <TTGlyph name="Ohornacute" xMin="24" yMin="-12" xMax="754" yMax="917">
      <component glyphName="Ohorn" x="0" y="0" flags="0x1000"/>
      <component glyphName="acute.cap" x="161" y="175" flags="0x1000"/>
    </TTGlyph>
    <TTGlyph name="Ohorndotbelow" xMin="24" yMin="-233" xMax="754" yMax="789">
      <component glyphName="Ohorn" x="0" y="0" flags="0x1000"/>
      <component glyphName="dotbelowcomb" x="162" y="0" flags="0x1000"/>
    </TTGlyph>
    <TTGlyph name="Ohorngrave" xMin="24" yMin="-12" xMax="754" yMax="917">
      <component glyphName="Ohorn" x="0" y="0" flags="0x1000"/>
      <component glyphName="grave.cap" x="158" y="175" flags="0x1000"/>
    </TTGlyph>
    <TTGlyph name="Ohornhookabove" xMin="24" yMin="-12" xMax="754" yMax="947">
      <component glyphName="Ohorn" x="0" y="0" flags="0x1000"/>
      <component glyphName="hookabove" x="105" y="175" flags="0x1000"/>
    </TTGlyph>
    <TTGlyph name="Ohorntilde" xMin="24" yMin="-12" xMax="754" yMax="915">
      <component glyphName="Ohorn" x="0" y="0" flags="0x1000"/>
      <component glyphName="tilde" x="156" y="175" flags="0x1000"/>
    </TTGlyph>
    <TTGlyph name="Ohungarumlaut" xMin="24" yMin="-12" xMax="654" yMax="909">
      <component glyphName="O" x="0" y="0" flags="0x1000"/>
      <component glyphName="hungarumlaut.cap" x="158" y="175" flags="0x1000"/>
    </TTGlyph>
    <TTGlyph name="Omacron" xMin="24" yMin="-12" xMax="654" yMax="865">
      <component glyphName="O" x="0" y="0" flags="0x1000"/>
      <component glyphName="macron" x="155" y="175" flags="0x1000"/>
    </TTGlyph>
    <TTGlyph name="Omega" xMin="-18" yMin="-8" xMax="744" yMax="659">
      <contour>
        <pt x="564" y="659" on="0"/>
        <pt x="712" y="531" on="0"/>
        <pt x="712" y="416" on="1"/>
        <pt x="712" y="349" on="0"/>
        <pt x="656" y="224" on="0"/>
        <pt x="593" y="152" on="1"/>
        <pt x="596" y="147" on="1"/>
        <pt x="647" y="147" on="1"/>
        <pt x="735" y="157" on="1"/>
        <pt x="744" y="145" on="1"/>
        <pt x="703" y="-8" on="1"/>
        <pt x="571" y="0" on="1"/>
        <pt x="419" y="0" on="1"/>
        <pt x="382" y="-3" on="1"/>
        <pt x="374" y="4" on="1"/>
        <pt x="387" y="112" on="1"/>
        <pt x="452" y="180" on="0"/>
        <pt x="500" y="305" on="0"/>
        <pt x="500" y="378" on="1"/>
        <pt x="500" y="441" on="0"/>
        <pt x="463" y="500" on="0"/>
        <pt x="411" y="500" on="1"/>
        <pt x="353" y="500" on="0"/>
        <pt x="292" y="417" on="0"/>
        <pt x="292" y="313" on="1"/>
        <pt x="292" y="249" on="0"/>
        <pt x="317" y="155" on="0"/>
        <pt x="345" y="112" on="1"/>
        <pt x="332" y="4" on="1"/>
        <pt x="323" y="-3" on="1"/>
        <pt x="288" y="0" on="1"/>
        <pt x="102" y="0" on="1"/>
        <pt x="-9" y="-6" on="1"/>
        <pt x="-18" y="6" on="1"/>
        <pt x="23" y="154" on="1"/>
        <pt x="120" y="146" on="1"/>
        <pt x="146" y="147" on="1"/>
        <pt x="149" y="152" on="1"/>
        <pt x="87" y="248" on="0"/>
        <pt x="87" y="352" on="1"/>
        <pt x="87" y="442" on="0"/>
        <pt x="167" y="581" on="0"/>
        <pt x="321" y="659" on="0"/>
        <pt x="428" y="659" on="1"/>
      </contour>
    </TTGlyph>
    <TTGlyph name="Oogonek" xMin="24" yMin="-197" xMax="654" yMax="659">
      <contour>
        <pt x="550" y="-151" on="1"/>
        <pt x="490" y="-197" on="0"/>
        <pt x="439" y="-197" on="1"/>
        <pt x="391" y="-197" on="0"/>
        <pt x="335" y="-142" on="0"/>
        <pt x="335" y="-100" on="1"/>
        <pt x="335" y="-53" on="0"/>
        <pt x="368" y="-9" on="1"/>
        <pt x="370" y="-6" on="1"/>
        <pt x="337" y="-12" on="0"/>
        <pt x="299" y="-12" on="1"/>
        <pt x="168" y="-12" on="0"/>
        <pt x="24" y="131" on="0"/>
        <pt x="24" y="276" on="1"/>
        <pt x="24" y="388" on="0"/>
        <pt x="107" y="561" on="0"/>
        <pt x="268" y="659" on="0"/>
        <pt x="380" y="659" on="1"/>
        <pt x="511" y="659" on="0"/>
        <pt x="654" y="518" on="0"/>
        <pt x="654" y="374" on="1"/>
        <pt x="654" y="259" on="0"/>
        <pt x="566" y="81" on="0"/>
        <pt x="484" y="33" on="1"/>
        <pt x="447" y="-22" on="1"/>
        <pt x="431" y="-46" on="0"/>
        <pt x="431" y="-66" on="1"/>
        <pt x="431" y="-99" on="0"/>
        <pt x="467" y="-99" on="1"/>
        <pt x="496" y="-99" on="0"/>
        <pt x="528" y="-79" on="1"/>
        <pt x="538" y="-79" on="1"/>
      </contour>
      <contour>
        <pt x="233" y="219" on="0"/>
        <pt x="247" y="161" on="0"/>
        <pt x="284" y="135" on="0"/>
        <pt x="320" y="135" on="1"/>
        <pt x="359" y="135" on="0"/>
        <pt x="413" y="171" on="0"/>
        <pt x="444" y="270" on="0"/>
        <pt x="444" y="362" on="1"/>
        <pt x="444" y="415" on="0"/>
        <pt x="430" y="474" on="0"/>
        <pt x="393" y="500" on="0"/>
        <pt x="357" y="500" on="1"/>
        <pt x="317" y="500" on="0"/>
        <pt x="264" y="464" on="0"/>
        <pt x="233" y="365" on="0"/>
        <pt x="233" y="273" on="1"/>
      </contour>
    </TTGlyph>
    <TTGlyph name="Oslash" xMin="24" yMin="-135" xMax="654" yMax="752">
      <contour>
        <pt x="654" y="520" on="0"/>
        <pt x="654" y="374" on="1"/>
        <pt x="654" y="262" on="0"/>
        <pt x="571" y="87" on="0"/>
        <pt x="411" y="-12" on="0"/>
        <pt x="299" y="-12" on="1"/>
        <pt x="258" y="-12" on="0"/>
        <pt x="216" y="-4" on="1"/>
        <pt x="137" y="-135" on="1"/>
        <pt x="40" y="-88" on="1"/>
        <pt x="34" y="-71" on="1"/>
        <pt x="107" y="49" on="1"/>
        <pt x="24" y="123" on="0"/>
        <pt x="24" y="276" on="1"/>
        <pt x="24" y="388" on="0"/>
        <pt x="107" y="561" on="0"/>
        <pt x="268" y="659" on="0"/>
        <pt x="380" y="659" on="1"/>
        <pt x="429" y="659" on="0"/>
        <pt x="468" y="649" on="1"/>
        <pt x="530" y="752" on="1"/>
        <pt x="624" y="706" on="1"/>
        <pt x="633" y="687" on="1"/>
        <pt x="577" y="594" on="1"/>
      </contour>
      <contour>
        <pt x="359" y="135" on="0"/>
        <pt x="413" y="171" on="0"/>
        <pt x="444" y="270" on="0"/>
        <pt x="444" y="362" on="1"/>
        <pt x="444" y="415" on="0"/>
        <pt x="430" y="474" on="0"/>
        <pt x="393" y="500" on="0"/>
        <pt x="357" y="500" on="1"/>
        <pt x="317" y="500" on="0"/>
        <pt x="264" y="464" on="0"/>
        <pt x="233" y="365" on="0"/>
        <pt x="233" y="273" on="1"/>
        <pt x="233" y="219" on="0"/>
        <pt x="247" y="161" on="0"/>
        <pt x="284" y="135" on="0"/>
        <pt x="320" y="135" on="1"/>
      </contour>
    </TTGlyph>
    <TTGlyph name="Oslashacute" xMin="24" yMin="-135" xMax="654" yMax="920">
      <component glyphName="Oslash" x="0" y="0" flags="0x1000"/>
      <component glyphName="acute.cap" x="147" y="178" flags="0x1000"/>
    </TTGlyph>
    <TTGlyph name="Otilde" xMin="24" yMin="-12" xMax="654" yMax="915">
      <component glyphName="O" x="0" y="0" flags="0x1000"/>
      <component glyphName="tilde" x="156" y="175" flags="0x1000"/>
    </TTGlyph>
    <TTGlyph name="P" xMin="32" yMin="0" xMax="620" yMax="648">
      <contour>
        <pt x="507" y="648" on="0"/>
        <pt x="620" y="555" on="0"/>
        <pt x="620" y="471" on="1"/>
        <pt x="620" y="387" on="0"/>
        <pt x="542" y="256" on="0"/>
        <pt x="399" y="183" on="0"/>
        <pt x="306" y="183" on="1"/>
        <pt x="248" y="183" on="1"/>
        <pt x="232" y="0" on="1"/>
        <pt x="32" y="0" on="1"/>
        <pt x="65" y="190" on="1"/>
        <pt x="111" y="647" on="1"/>
        <pt x="407" y="648" on="1"/>
      </contour>
      <contour>
        <pt x="377" y="341" on="0"/>
        <pt x="408" y="396" on="0"/>
        <pt x="408" y="438" on="1"/>
        <pt x="408" y="506" on="0"/>
        <pt x="330" y="510" on="1"/>
        <pt x="294" y="507" on="1"/>
        <pt x="267" y="327" on="1"/>
        <pt x="341" y="323" on="1"/>
      </contour>
    </TTGlyph>
    <TTGlyph name="Q" xMin="24" yMin="-212" xMax="704" yMax="659">
      <contour>
        <pt x="654" y="-156" on="0"/>
        <pt x="593" y="-205" on="1"/>
        <pt x="579" y="-212" on="1"/>
        <pt x="420" y="-127" on="0"/>
        <pt x="299" y="-12" on="1"/>
        <pt x="296" y="-12" on="1"/>
        <pt x="165" y="-12" on="0"/>
        <pt x="24" y="131" on="0"/>
        <pt x="24" y="276" on="1"/>
        <pt x="24" y="388" on="0"/>
        <pt x="108" y="561" on="0"/>
        <pt x="271" y="659" on="0"/>
        <pt x="383" y="659" on="1"/>
        <pt x="514" y="659" on="0"/>
        <pt x="654" y="518" on="0"/>
        <pt x="654" y="374" on="1"/>
        <pt x="654" y="260" on="0"/>
        <pt x="567" y="83" on="0"/>
        <pt x="486" y="35" on="1"/>
        <pt x="586" y="-22" on="0"/>
        <pt x="698" y="-61" on="1"/>
        <pt x="704" y="-79" on="1"/>
      </contour>
      <contour>
        <pt x="233" y="219" on="0"/>
        <pt x="247" y="161" on="0"/>
        <pt x="284" y="135" on="0"/>
        <pt x="320" y="135" on="1"/>
        <pt x="359" y="135" on="0"/>
        <pt x="413" y="171" on="0"/>
        <pt x="444" y="270" on="0"/>
        <pt x="444" y="362" on="1"/>
        <pt x="444" y="415" on="0"/>
        <pt x="430" y="474" on="0"/>
        <pt x="393" y="500" on="0"/>
        <pt x="357" y="500" on="1"/>
        <pt x="317" y="500" on="0"/>
        <pt x="264" y="464" on="0"/>
        <pt x="233" y="365" on="0"/>
        <pt x="233" y="273" on="1"/>
      </contour>
    </TTGlyph>
    <TTGlyph name="Q.corta" xMin="24" yMin="-192" xMax="654" yMax="659">
      <contour>
        <pt x="571" y="-10" on="0"/>
        <pt x="640" y="-41" on="1"/>
        <pt x="645" y="-59" on="1"/>
        <pt x="594" y="-138" on="0"/>
        <pt x="535" y="-185" on="1"/>
        <pt x="520" y="-192" on="1"/>
        <pt x="381" y="-89" on="0"/>
        <pt x="299" y="-12" on="1"/>
        <pt x="168" y="-12" on="0"/>
        <pt x="24" y="131" on="0"/>
        <pt x="24" y="276" on="1"/>
        <pt x="24" y="388" on="0"/>
        <pt x="107" y="561" on="0"/>
        <pt x="268" y="659" on="0"/>
        <pt x="380" y="659" on="1"/>
        <pt x="511" y="659" on="0"/>
        <pt x="654" y="518" on="0"/>
        <pt x="654" y="374" on="1"/>
        <pt x="654" y="260" on="0"/>
        <pt x="569" y="83" on="0"/>
        <pt x="488" y="36" on="1"/>
      </contour>
      <contour>
        <pt x="233" y="219" on="0"/>
        <pt x="247" y="161" on="0"/>
        <pt x="284" y="135" on="0"/>
        <pt x="320" y="135" on="1"/>
        <pt x="359" y="135" on="0"/>
        <pt x="413" y="171" on="0"/>
        <pt x="444" y="270" on="0"/>
        <pt x="444" y="362" on="1"/>
        <pt x="444" y="415" on="0"/>
        <pt x="430" y="474" on="0"/>
        <pt x="393" y="500" on="0"/>
        <pt x="357" y="500" on="1"/>
        <pt x="317" y="500" on="0"/>
        <pt x="264" y="464" on="0"/>
        <pt x="233" y="365" on="0"/>
        <pt x="233" y="273" on="1"/>
      </contour>
    </TTGlyph>
    <TTGlyph name="R" xMin="31" yMin="-12" xMax="622" yMax="648">
      <contour>
        <pt x="622" y="407" on="0"/>
        <pt x="553" y="290" on="0"/>
        <pt x="490" y="250" on="1"/>
        <pt x="551" y="135" on="0"/>
        <pt x="606" y="47" on="1"/>
        <pt x="601" y="25" on="1"/>
        <pt x="495" y="-6" on="0"/>
        <pt x="396" y="-12" on="1"/>
        <pt x="379" y="4" on="1"/>
        <pt x="328" y="154" on="0"/>
        <pt x="316" y="193" on="1"/>
        <pt x="248" y="193" on="1"/>
        <pt x="231" y="0" on="1"/>
        <pt x="31" y="0" on="1"/>
        <pt x="65" y="190" on="1"/>
        <pt x="111" y="647" on="1"/>
        <pt x="407" y="648" on="1"/>
        <pt x="507" y="648" on="0"/>
        <pt x="622" y="557" on="0"/>
        <pt x="622" y="475" on="1"/>
      </contour>
      <contour>
        <pt x="408" y="476" on="0"/>
        <pt x="371" y="508" on="0"/>
        <pt x="330" y="510" on="1"/>
        <pt x="293" y="507" on="1"/>
        <pt x="268" y="339" on="1"/>
        <pt x="341" y="335" on="1"/>
        <pt x="377" y="350" on="0"/>
        <pt x="408" y="402" on="0"/>
        <pt x="408" y="442" on="1"/>
      </contour>
    </TTGlyph>
    <TTGlyph name="Racute" xMin="31" yMin="-12" xMax="622" yMax="929">
      <component glyphName="R" x="0" y="0" flags="0x1000"/>
      <component glyphName="acute" x="145" y="175" flags="0x1000"/>
    </TTGlyph>
    <TTGlyph name="Rcaron" xMin="31" yMin="-12" xMax="622" yMax="922">
      <component glyphName="R" x="0" y="0" flags="0x1000"/>
      <component glyphName="caron" x="138" y="175" flags="0x1000"/>
    </TTGlyph>
    <TTGlyph name="Rcommaaccent" xMin="31" yMin="-311" xMax="622" yMax="648">
      <component glyphName="R" x="0" y="0" flags="0x1000"/>
      <component glyphName="commaaccentcomb" x="124" y="0" flags="0x1000"/>
    </TTGlyph>
    <TTGlyph name="S" xMin="-3" yMin="-12" xMax="535" yMax="659">
      <contour>
        <pt x="446" y="659" on="0"/>
        <pt x="535" y="624" on="1"/>
        <pt x="485" y="462" on="1"/>
        <pt x="457" y="450" on="1"/>
        <pt x="418" y="476" on="0"/>
        <pt x="339" y="506" on="0"/>
        <pt x="314" y="506" on="1"/>
        <pt x="289" y="506" on="0"/>
        <pt x="260" y="485" on="0"/>
        <pt x="260" y="470" on="1"/>
        <pt x="260" y="451" on="0"/>
        <pt x="299" y="424" on="0"/>
        <pt x="342" y="404" on="1"/>
        <pt x="391" y="381" on="0"/>
        <pt x="456" y="340" on="0"/>
        <pt x="504" y="271" on="0"/>
        <pt x="504" y="222" on="1"/>
        <pt x="504" y="159" on="0"/>
        <pt x="429" y="51" on="0"/>
        <pt x="294" y="-12" on="0"/>
        <pt x="208" y="-12" on="1"/>
        <pt x="105" y="-12" on="0"/>
        <pt x="-3" y="26" on="1"/>
        <pt x="45" y="199" on="1"/>
        <pt x="66" y="211" on="1"/>
        <pt x="109" y="175" on="0"/>
        <pt x="209" y="135" on="0"/>
        <pt x="245" y="135" on="1"/>
        <pt x="300" y="135" on="0"/>
        <pt x="300" y="171" on="1"/>
        <pt x="300" y="191" on="0"/>
        <pt x="259" y="220" on="0"/>
        <pt x="216" y="240" on="1"/>
        <pt x="167" y="263" on="0"/>
        <pt x="105" y="303" on="0"/>
        <pt x="59" y="371" on="0"/>
        <pt x="59" y="420" on="1"/>
        <pt x="59" y="486" on="0"/>
        <pt x="135" y="596" on="0"/>
        <pt x="268" y="659" on="0"/>
        <pt x="350" y="659" on="1"/>
      </contour>
    </TTGlyph>
    <TTGlyph name="Sacute" xMin="-3" yMin="-12" xMax="535" yMax="929">
      <component glyphName="S" x="0" y="0" flags="0x1000"/>
      <component glyphName="acute" x="98" y="175" flags="0x1000"/>
    </TTGlyph>
    <TTGlyph name="Scaron" xMin="-3" yMin="-12" xMax="535" yMax="922">
      <component glyphName="S" x="0" y="0" flags="0x1000"/>
      <component glyphName="caron" x="91" y="175" flags="0x1000"/>
    </TTGlyph>
    <TTGlyph name="Scedilla" xMin="-2" yMin="-208" xMax="536" yMax="659">
      <contour>
        <pt x="261" y="451" on="0"/>
        <pt x="300" y="424" on="0"/>
        <pt x="343" y="404" on="1"/>
        <pt x="392" y="381" on="0"/>
        <pt x="457" y="340" on="0"/>
        <pt x="505" y="271" on="0"/>
        <pt x="505" y="222" on="1"/>
        <pt x="505" y="164" on="0"/>
        <pt x="443" y="64" on="0"/>
        <pt x="329" y="-2" on="0"/>
        <pt x="255" y="-10" on="1"/>
        <pt x="249" y="-42" on="1"/>
        <pt x="283" y="-61" on="1"/>
        <pt x="327" y="-84" on="0"/>
        <pt x="327" y="-124" on="1"/>
        <pt x="327" y="-161" on="0"/>
        <pt x="268" y="-208" on="0"/>
        <pt x="217" y="-208" on="1"/>
        <pt x="168" y="-208" on="0"/>
        <pt x="125" y="-184" on="1"/>
        <pt x="136" y="-109" on="1"/>
        <pt x="144" y="-106" on="1"/>
        <pt x="177" y="-134" on="0"/>
        <pt x="204" y="-134" on="1"/>
        <pt x="220" y="-134" on="0"/>
        <pt x="220" y="-120" on="1"/>
        <pt x="220" y="-111" on="0"/>
        <pt x="208" y="-105" on="1"/>
        <pt x="158" y="-78" on="1"/>
        <pt x="171" y="-11" on="1"/>
        <pt x="88" y="-5" on="0"/>
        <pt x="-2" y="26" on="1"/>
        <pt x="46" y="199" on="1"/>
        <pt x="67" y="211" on="1"/>
        <pt x="109" y="176" on="0"/>
        <pt x="210" y="135" on="0"/>
        <pt x="245" y="135" on="1"/>
        <pt x="301" y="135" on="0"/>
        <pt x="301" y="171" on="1"/>
        <pt x="301" y="191" on="0"/>
        <pt x="260" y="220" on="0"/>
        <pt x="217" y="240" on="1"/>
        <pt x="168" y="263" on="0"/>
        <pt x="106" y="303" on="0"/>
        <pt x="60" y="371" on="0"/>
        <pt x="60" y="420" on="1"/>
        <pt x="60" y="486" on="0"/>
        <pt x="136" y="596" on="0"/>
        <pt x="269" y="659" on="0"/>
        <pt x="351" y="659" on="1"/>
        <pt x="447" y="659" on="0"/>
        <pt x="536" y="624" on="1"/>
        <pt x="486" y="462" on="1"/>
        <pt x="457" y="450" on="1"/>
        <pt x="419" y="476" on="0"/>
        <pt x="340" y="506" on="0"/>
        <pt x="315" y="506" on="1"/>
        <pt x="290" y="506" on="0"/>
        <pt x="261" y="485" on="0"/>
        <pt x="261" y="470" on="1"/>
      </contour>
    </TTGlyph>
    <TTGlyph name="Scircumflex" xMin="-3" yMin="-12" xMax="535" yMax="926">
      <component glyphName="S" x="0" y="0" flags="0x1000"/>
      <component glyphName="circumflex" x="100" y="175" flags="0x1000"/>
    </TTGlyph>
    <TTGlyph name="Scommaaccent" xMin="-3" yMin="-311" xMax="535" yMax="659">
      <component glyphName="S" x="0" y="0" flags="0x1000"/>
      <component glyphName="commaaccentcomb" x="73" y="0" flags="0x1000"/>
    </TTGlyph>
    <TTGlyph name="T" xMin="40" yMin="0" xMax="560" yMax="647">
      <contour>
        <pt x="532" y="488" on="1"/>
        <pt x="401" y="494" on="1"/>
        <pt x="388" y="494" on="1"/>
        <pt x="348" y="210" on="1"/>
        <pt x="330" y="0" on="1"/>
        <pt x="131" y="0" on="1"/>
        <pt x="165" y="190" on="1"/>
        <pt x="197" y="494" on="1"/>
        <pt x="184" y="494" on="1"/>
        <pt x="50" y="488" on="1"/>
        <pt x="40" y="502" on="1"/>
        <pt x="69" y="647" on="1"/>
        <pt x="551" y="647" on="1"/>
        <pt x="560" y="633" on="1"/>
      </contour>
    </TTGlyph>
    <TTGlyph name="Tbar" xMin="40" yMin="0" xMax="560" yMax="647">
      <contour>
        <pt x="366" y="335" on="1"/>
        <pt x="447" y="335" on="1"/>
        <pt x="459" y="322" on="1"/>
        <pt x="452" y="235" on="1"/>
        <pt x="352" y="235" on="1"/>
        <pt x="348" y="210" on="1"/>
        <pt x="330" y="0" on="1"/>
        <pt x="131" y="0" on="1"/>
        <pt x="165" y="190" on="1"/>
        <pt x="170" y="235" on="1"/>
        <pt x="92" y="235" on="1"/>
        <pt x="80" y="248" on="1"/>
        <pt x="87" y="335" on="1"/>
        <pt x="180" y="335" on="1"/>
        <pt x="197" y="494" on="1"/>
        <pt x="184" y="494" on="1"/>
        <pt x="50" y="488" on="1"/>
        <pt x="40" y="502" on="1"/>
        <pt x="69" y="647" on="1"/>
        <pt x="551" y="647" on="1"/>
        <pt x="560" y="633" on="1"/>
        <pt x="531" y="488" on="1"/>
        <pt x="401" y="494" on="1"/>
        <pt x="388" y="494" on="1"/>
      </contour>
    </TTGlyph>
    <TTGlyph name="Tcaron" xMin="40" yMin="0" xMax="560" yMax="922">
      <component glyphName="T" x="0" y="0" flags="0x1000"/>
      <component glyphName="caron" x="81" y="175" flags="0x1000"/>
    </TTGlyph>
    <TTGlyph name="Tcedilla" xMin="40" yMin="-202" xMax="560" yMax="647">
      <contour>
        <pt x="531" y="488" on="1"/>
        <pt x="401" y="494" on="1"/>
        <pt x="388" y="494" on="1"/>
        <pt x="348" y="210" on="1"/>
        <pt x="330" y="0" on="1"/>
        <pt x="271" y="0" on="1"/>
        <pt x="263" y="-41" on="1"/>
        <pt x="296" y="-59" on="1"/>
        <pt x="338" y="-83" on="0"/>
        <pt x="338" y="-120" on="1"/>
        <pt x="338" y="-156" on="0"/>
        <pt x="281" y="-202" on="0"/>
        <pt x="232" y="-202" on="1"/>
        <pt x="186" y="-202" on="0"/>
        <pt x="143" y="-179" on="1"/>
        <pt x="154" y="-106" on="1"/>
        <pt x="161" y="-103" on="1"/>
        <pt x="194" y="-130" on="0"/>
        <pt x="220" y="-130" on="1"/>
        <pt x="235" y="-130" on="0"/>
        <pt x="235" y="-117" on="1"/>
        <pt x="235" y="-108" on="0"/>
        <pt x="224" y="-102" on="1"/>
        <pt x="175" y="-76" on="1"/>
        <pt x="190" y="0" on="1"/>
        <pt x="131" y="0" on="1"/>
        <pt x="165" y="190" on="1"/>
        <pt x="197" y="494" on="1"/>
        <pt x="184" y="494" on="1"/>
        <pt x="50" y="488" on="1"/>
        <pt x="40" y="502" on="1"/>
        <pt x="69" y="647" on="1"/>
        <pt x="551" y="647" on="1"/>
        <pt x="560" y="633" on="1"/>
      </contour>
    </TTGlyph>
    <TTGlyph name="Thorn" xMin="31" yMin="0" xMax="616" yMax="647">
      <contour>
        <pt x="505" y="556" on="0"/>
        <pt x="616" y="466" on="0"/>
        <pt x="616" y="383" on="1"/>
        <pt x="616" y="300" on="0"/>
        <pt x="539" y="172" on="0"/>
        <pt x="399" y="101" on="0"/>
        <pt x="308" y="101" on="1"/>
        <pt x="242" y="101" on="1"/>
        <pt x="233" y="0" on="1"/>
        <pt x="31" y="0" on="1"/>
        <pt x="65" y="190" on="1"/>
        <pt x="111" y="647" on="1"/>
        <pt x="316" y="647" on="1"/>
        <pt x="302" y="556" on="1"/>
        <pt x="407" y="556" on="1"/>
      </contour>
      <contour>
        <pt x="378" y="255" on="0"/>
        <pt x="408" y="309" on="0"/>
        <pt x="408" y="351" on="1"/>
        <pt x="408" y="385" on="0"/>
        <pt x="371" y="418" on="0"/>
        <pt x="332" y="420" on="1"/>
        <pt x="282" y="416" on="1"/>
        <pt x="256" y="242" on="1"/>
        <pt x="342" y="237" on="1"/>
      </contour>
    </TTGlyph>
    <TTGlyph name="U" xMin="45" yMin="-12" xMax="657" yMax="647">
      <contour>
        <pt x="597" y="216" on="1"/>
        <pt x="583" y="105" on="0"/>
        <pt x="431" y="-12" on="0"/>
        <pt x="297" y="-12" on="1"/>
        <pt x="178" y="-12" on="0"/>
        <pt x="45" y="84" on="0"/>
        <pt x="45" y="173" on="1"/>
        <pt x="45" y="194" on="0"/>
        <pt x="48" y="216" on="1"/>
        <pt x="63" y="319" on="1"/>
        <pt x="97" y="647" on="1"/>
        <pt x="297" y="647" on="1"/>
        <pt x="239" y="243" on="1"/>
        <pt x="237" y="223" on="0"/>
        <pt x="237" y="216" on="1"/>
        <pt x="237" y="179" on="0"/>
        <pt x="273" y="145" on="0"/>
        <pt x="314" y="145" on="1"/>
        <pt x="361" y="145" on="0"/>
        <pt x="409" y="191" on="0"/>
        <pt x="414" y="243" on="1"/>
        <pt x="454" y="647" on="1"/>
        <pt x="657" y="647" on="1"/>
        <pt x="610" y="319" on="1"/>
      </contour>
    </TTGlyph>
    <TTGlyph name="Uacute" xMin="45" yMin="-12" xMax="657" yMax="917">
      <component glyphName="U" x="0" y="0" flags="0x1000"/>
      <component glyphName="acute.cap" x="159" y="175" flags="0x1000"/>
    </TTGlyph>
    <TTGlyph name="Ubreve" xMin="45" yMin="-12" xMax="657" yMax="907">
      <component glyphName="U" x="0" y="0" flags="0x1000"/>
      <component glyphName="breve" x="149" y="175" flags="0x1000"/>
    </TTGlyph>
    <TTGlyph name="Ucaron" xMin="45" yMin="-12" xMax="657" yMax="922">
      <component glyphName="U" x="0" y="0" flags="0x1000"/>
      <component glyphName="caron" x="149" y="175" flags="0x1000"/>
    </TTGlyph>
    <TTGlyph name="Ucircumflex" xMin="45" yMin="-12" xMax="657" yMax="914">
      <component glyphName="U" x="0" y="0" flags="0x1000"/>
      <component glyphName="circumflex.cap" x="156" y="175" flags="0x1000"/>
    </TTGlyph>
    <TTGlyph name="Udieresis" xMin="45" yMin="-12" xMax="657" yMax="890">
      <component glyphName="U" x="0" y="0" flags="0x1000"/>
      <component glyphName="dieresis" x="153" y="175" flags="0x1000"/>
    </TTGlyph>
    <TTGlyph name="Udieresisacute" xMin="45" yMin="-12" xMax="657" yMax="1082">
      <component glyphName="U" x="0" y="0" flags="0x1000"/>
      <component glyphName="dieresisacute" x="156" y="175" flags="0x1000"/>
    </TTGlyph>
    <TTGlyph name="Udieresiscaron" xMin="45" yMin="-12" xMax="657" yMax="1069">
      <component glyphName="U" x="0" y="0" flags="0x1000"/>
      <component glyphName="dieresiscaron" x="156" y="175" flags="0x1000"/>
    </TTGlyph>
    <TTGlyph name="Udieresisgrave" xMin="45" yMin="-12" xMax="657" yMax="1082">
      <component glyphName="U" x="0" y="0" flags="0x1000"/>
      <component glyphName="dieresisgrave" x="150" y="175" flags="0x1000"/>
    </TTGlyph>
    <TTGlyph name="Udieresismacron" xMin="45" yMin="-12" xMax="657" yMax="1038">
      <component glyphName="U" x="0" y="0" flags="0x1000"/>
      <component glyphName="dieresismacron" x="156" y="175" flags="0x1000"/>
    </TTGlyph>
    <TTGlyph name="Udotbelow" xMin="45" yMin="-233" xMax="657" yMax="647">
      <component glyphName="U" x="0" y="0" flags="0x1000"/>
      <component glyphName="dotbelowcomb" x="135" y="0" flags="0x1000"/>
    </TTGlyph>
    <TTGlyph name="Ugrave" xMin="45" yMin="-12" xMax="657" yMax="917">
      <component glyphName="U" x="0" y="0" flags="0x1000"/>
      <component glyphName="grave.cap" x="156" y="175" flags="0x1000"/>
    </TTGlyph>
    <TTGlyph name="Uhookabove" xMin="45" yMin="-12" xMax="657" yMax="947">
      <component glyphName="U" x="0" y="0" flags="0x1000"/>
      <component glyphName="hookabove" x="103" y="175" flags="0x1000"/>
    </TTGlyph>
    <TTGlyph name="Uhorn" xMin="45" yMin="-12" xMax="736" yMax="805">
      <contour>
        <pt x="736" y="674" on="0"/>
        <pt x="690" y="607" on="0"/>
        <pt x="648" y="584" on="1"/>
        <pt x="610" y="319" on="1"/>
        <pt x="597" y="216" on="1"/>
        <pt x="583" y="105" on="0"/>
        <pt x="431" y="-12" on="0"/>
        <pt x="297" y="-12" on="1"/>
        <pt x="178" y="-12" on="0"/>
        <pt x="45" y="84" on="0"/>
        <pt x="45" y="173" on="1"/>
        <pt x="45" y="194" on="0"/>
        <pt x="48" y="216" on="1"/>
        <pt x="63" y="319" on="1"/>
        <pt x="97" y="647" on="1"/>
        <pt x="297" y="647" on="1"/>
        <pt x="239" y="243" on="1"/>
        <pt x="237" y="223" on="0"/>
        <pt x="237" y="216" on="1"/>
        <pt x="237" y="179" on="0"/>
        <pt x="273" y="145" on="0"/>
        <pt x="313" y="145" on="1"/>
        <pt x="361" y="145" on="0"/>
        <pt x="409" y="191" on="0"/>
        <pt x="414" y="243" on="1"/>
        <pt x="454" y="647" on="1"/>
        <pt x="529" y="647" on="1"/>
        <pt x="560" y="647" on="0"/>
        <pt x="586" y="669" on="0"/>
        <pt x="586" y="695" on="1"/>
        <pt x="586" y="730" on="0"/>
        <pt x="557" y="754" on="1"/>
        <pt x="560" y="768" on="1"/>
        <pt x="612" y="805" on="0"/>
        <pt x="653" y="805" on="1"/>
        <pt x="689" y="805" on="0"/>
        <pt x="736" y="753" on="0"/>
        <pt x="736" y="713" on="1"/>
      </contour>
    </TTGlyph>
    <TTGlyph name="Uhornacute" xMin="45" yMin="-12" xMax="736" yMax="917">
      <component glyphName="Uhorn" x="0" y="0" flags="0x1000"/>
      <component glyphName="acute.cap" x="139" y="175" flags="0x1000"/>
    </TTGlyph>
    <TTGlyph name="Uhorndotbelow" xMin="45" yMin="-233" xMax="736" yMax="805">
      <component glyphName="Uhorn" x="0" y="0" flags="0x1000"/>
      <component glyphName="dotbelowcomb" x="150" y="0" flags="0x1000"/>
    </TTGlyph>
    <TTGlyph name="Uhorngrave" xMin="45" yMin="-12" xMax="736" yMax="917">
      <component glyphName="Uhorn" x="0" y="0" flags="0x1000"/>
      <component glyphName="grave.cap" x="136" y="175" flags="0x1000"/>
    </TTGlyph>
    <TTGlyph name="Uhornhookabove" xMin="45" yMin="-12" xMax="736" yMax="947">
      <component glyphName="Uhorn" x="0" y="0" flags="0x1000"/>
      <component glyphName="hookabove" x="83" y="175" flags="0x1000"/>
    </TTGlyph>
    <TTGlyph name="Uhorntilde" xMin="45" yMin="-12" xMax="736" yMax="915">
      <component glyphName="Uhorn" x="0" y="0" flags="0x1000"/>
      <component glyphName="tilde" x="134" y="175" flags="0x1000"/>
    </TTGlyph>
    <TTGlyph name="Uhungarumlaut" xMin="45" yMin="-12" xMax="657" yMax="909">
      <component glyphName="U" x="0" y="0" flags="0x1000"/>
      <component glyphName="hungarumlaut.cap" x="156" y="175" flags="0x1000"/>
    </TTGlyph>
    <TTGlyph name="Umacron" xMin="45" yMin="-12" xMax="657" yMax="865">
      <component glyphName="U" x="0" y="0" flags="0x1000"/>
      <component glyphName="macron" x="153" y="175" flags="0x1000"/>
    </TTGlyph>
    <TTGlyph name="Uogonek" xMin="45" yMin="-197" xMax="657" yMax="647">
      <contour>
        <pt x="610" y="319" on="1"/>
        <pt x="597" y="216" on="1"/>
        <pt x="582" y="100" on="0"/>
        <pt x="501" y="42" on="1"/>
        <pt x="460" y="-22" on="1"/>
        <pt x="444" y="-46" on="0"/>
        <pt x="444" y="-66" on="1"/>
        <pt x="444" y="-99" on="0"/>
        <pt x="480" y="-99" on="1"/>
        <pt x="509" y="-99" on="0"/>
        <pt x="541" y="-79" on="1"/>
        <pt x="551" y="-79" on="1"/>
        <pt x="563" y="-151" on="1"/>
        <pt x="503" y="-197" on="0"/>
        <pt x="452" y="-197" on="1"/>
        <pt x="404" y="-197" on="0"/>
        <pt x="348" y="-142" on="0"/>
        <pt x="348" y="-100" on="1"/>
        <pt x="348" y="-56" on="0"/>
        <pt x="381" y="-9" on="1"/>
        <pt x="384" y="-5" on="1"/>
        <pt x="348" y="-12" on="0"/>
        <pt x="297" y="-12" on="1"/>
        <pt x="178" y="-12" on="0"/>
        <pt x="45" y="84" on="0"/>
        <pt x="45" y="173" on="1"/>
        <pt x="45" y="194" on="0"/>
        <pt x="48" y="216" on="1"/>
        <pt x="63" y="319" on="1"/>
        <pt x="97" y="647" on="1"/>
        <pt x="297" y="647" on="1"/>
        <pt x="239" y="243" on="1"/>
        <pt x="237" y="223" on="0"/>
        <pt x="237" y="216" on="1"/>
        <pt x="237" y="179" on="0"/>
        <pt x="273" y="145" on="0"/>
        <pt x="313" y="145" on="1"/>
        <pt x="361" y="145" on="0"/>
        <pt x="409" y="191" on="0"/>
        <pt x="414" y="243" on="1"/>
        <pt x="454" y="647" on="1"/>
        <pt x="657" y="647" on="1"/>
      </contour>
    </TTGlyph>
    <TTGlyph name="Uring" xMin="45" yMin="-12" xMax="657" yMax="930">
      <component glyphName="U" x="0" y="0" flags="0x1000"/>
      <component glyphName="ring" x="152" y="175" flags="0x1000"/>
    </TTGlyph>
    <TTGlyph name="Utilde" xMin="45" yMin="-12" xMax="657" yMax="915">
      <component glyphName="U" x="0" y="0" flags="0x1000"/>
      <component glyphName="tilde" x="154" y="175" flags="0x1000"/>
    </TTGlyph>
    <TTGlyph name="V" xMin="55" yMin="0" xMax="669" yMax="647">
      <contour>
        <pt x="153" y="0" on="1"/>
        <pt x="55" y="647" on="1"/>
        <pt x="257" y="647" on="1"/>
        <pt x="262" y="540" on="1"/>
        <pt x="294" y="178" on="1"/>
        <pt x="305" y="178" on="1"/>
        <pt x="440" y="528" on="1"/>
        <pt x="474" y="647" on="1"/>
        <pt x="669" y="647" on="1"/>
        <pt x="394" y="0" on="1"/>
      </contour>
    </TTGlyph>
    <TTGlyph name="V.ss01" xMin="-128" yMin="0" xMax="673" yMax="513">
      <contour>
        <pt x="368" y="65" on="1"/>
        <pt x="618" y="65" on="1"/>
        <pt x="611" y="0" on="1"/>
        <pt x="-128" y="0" on="1"/>
        <pt x="-121" y="65" on="1"/>
        <pt x="125" y="65" on="1"/>
        <pt x="65" y="448" on="1"/>
        <pt x="-73" y="448" on="1"/>
        <pt x="-66" y="513" on="1"/>
        <pt x="673" y="513" on="1"/>
        <pt x="666" y="448" on="1"/>
        <pt x="534" y="448" on="1"/>
      </contour>
      <contour>
        <pt x="236" y="448" on="1"/>
        <pt x="238" y="410" on="1"/>
        <pt x="257" y="166" on="1"/>
        <pt x="268" y="166" on="1"/>
        <pt x="357" y="399" on="1"/>
        <pt x="371" y="448" on="1"/>
      </contour>
    </TTGlyph>
    <TTGlyph name="W" xMin="68" yMin="0" xMax="964" yMax="647">
      <contour>
        <pt x="482" y="0" on="1"/>
        <pt x="450" y="234" on="1"/>
        <pt x="439" y="234" on="1"/>
        <pt x="353" y="0" on="1"/>
        <pt x="140" y="0" on="1"/>
        <pt x="68" y="647" on="1"/>
        <pt x="262" y="647" on="1"/>
        <pt x="260" y="547" on="1"/>
        <pt x="281" y="201" on="1"/>
        <pt x="292" y="201" on="1"/>
        <pt x="403" y="497" on="1"/>
        <pt x="387" y="647" on="1"/>
        <pt x="590" y="647" on="1"/>
        <pt x="589" y="526" on="1"/>
        <pt x="617" y="201" on="1"/>
        <pt x="628" y="201" on="1"/>
        <pt x="748" y="535" on="1"/>
        <pt x="780" y="647" on="1"/>
        <pt x="964" y="647" on="1"/>
        <pt x="694" y="0" on="1"/>
      </contour>
    </TTGlyph>
    <TTGlyph name="Wacute" xMin="68" yMin="0" xMax="964" yMax="917">
      <component glyphName="W" x="0" y="0" flags="0x1000"/>
      <component glyphName="acute.cap" x="269" y="175" flags="0x1000"/>
    </TTGlyph>
    <TTGlyph name="Wcircumflex" xMin="68" yMin="0" xMax="964" yMax="914">
      <component glyphName="W" x="0" y="0" flags="0x1000"/>
      <component glyphName="circumflex.cap" x="266" y="175" flags="0x1000"/>
    </TTGlyph>
    <TTGlyph name="Wdieresis" xMin="68" yMin="0" xMax="964" yMax="890">
      <component glyphName="W" x="0" y="0" flags="0x1000"/>
      <component glyphName="dieresis" x="263" y="175" flags="0x1000"/>
    </TTGlyph>
    <TTGlyph name="Wgrave" xMin="68" yMin="0" xMax="964" yMax="917">
      <component glyphName="W" x="0" y="0" flags="0x1000"/>
      <component glyphName="grave.cap" x="266" y="175" flags="0x1000"/>
    </TTGlyph>
    <TTGlyph name="X" xMin="-27" yMin="0" xMax="682" yMax="647">
      <contour>
        <pt x="609" y="0" on="1"/>
        <pt x="374" y="0" on="1"/>
        <pt x="350" y="79" on="1"/>
        <pt x="305" y="185" on="1"/>
        <pt x="216" y="69" on="1"/>
        <pt x="175" y="0" on="1"/>
        <pt x="-27" y="0" on="1"/>
        <pt x="203" y="321" on="1"/>
        <pt x="50" y="647" on="1"/>
        <pt x="286" y="647" on="1"/>
        <pt x="311" y="566" on="1"/>
        <pt x="355" y="463" on="1"/>
        <pt x="435" y="577" on="1"/>
        <pt x="474" y="647" on="1"/>
        <pt x="682" y="647" on="1"/>
        <pt x="459" y="332" on="1"/>
      </contour>
    </TTGlyph>
    <TTGlyph name="X.ss01" xMin="-128" yMin="0" xMax="688" yMax="513">
      <contour>
        <pt x="489" y="65" on="1"/>
        <pt x="633" y="65" on="1"/>
        <pt x="626" y="0" on="1"/>
        <pt x="-128" y="0" on="1"/>
        <pt x="-121" y="65" on="1"/>
        <pt x="39" y="65" on="1"/>
        <pt x="183" y="250" on="1"/>
        <pt x="82" y="448" on="1"/>
        <pt x="-73" y="448" on="1"/>
        <pt x="-66" y="513" on="1"/>
        <pt x="688" y="513" on="1"/>
        <pt x="681" y="448" on="1"/>
        <pt x="525" y="448" on="1"/>
        <pt x="391" y="269" on="1"/>
      </contour>
      <contour>
        <pt x="280" y="419" on="1"/>
        <pt x="307" y="368" on="1"/>
        <pt x="351" y="428" on="1"/>
        <pt x="362" y="448" on="1"/>
        <pt x="270" y="448" on="1"/>
      </contour>
      <contour>
        <pt x="291" y="97" on="1"/>
        <pt x="266" y="148" on="1"/>
        <pt x="214" y="89" on="1"/>
        <pt x="200" y="65" on="1"/>
        <pt x="301" y="65" on="1"/>
      </contour>
    </TTGlyph>
    <TTGlyph name="Y" xMin="43" yMin="0" xMax="664" yMax="647">
      <contour>
        <pt x="373" y="170" on="1"/>
        <pt x="361" y="0" on="1"/>
        <pt x="162" y="0" on="1"/>
        <pt x="192" y="170" on="1"/>
        <pt x="195" y="207" on="1"/>
        <pt x="43" y="647" on="1"/>
        <pt x="251" y="647" on="1"/>
        <pt x="260" y="593" on="1"/>
        <pt x="309" y="397" on="1"/>
        <pt x="321" y="397" on="1"/>
        <pt x="430" y="586" on="1"/>
        <pt x="460" y="647" on="1"/>
        <pt x="664" y="647" on="1"/>
        <pt x="379" y="204" on="1"/>
      </contour>
    </TTGlyph>
    <TTGlyph name="Yacute" xMin="43" yMin="0" xMax="664" yMax="917">
      <component glyphName="Y" x="0" y="0" flags="0x1000"/>
      <component glyphName="acute.cap" x="130" y="175" flags="0x1000"/>
    </TTGlyph>
    <TTGlyph name="Ycircumflex" xMin="43" yMin="0" xMax="664" yMax="914">
      <component glyphName="Y" x="0" y="0" flags="0x1000"/>
      <component glyphName="circumflex.cap" x="127" y="175" flags="0x1000"/>
    </TTGlyph>
    <TTGlyph name="Ydieresis" xMin="43" yMin="0" xMax="664" yMax="890">
      <component glyphName="Y" x="0" y="0" flags="0x1000"/>
      <component glyphName="dieresis" x="124" y="175" flags="0x1000"/>
    </TTGlyph>
    <TTGlyph name="Ydotbelow" xMin="43" yMin="-233" xMax="664" yMax="647">
      <component glyphName="Y" x="0" y="0" flags="0x1000"/>
      <component glyphName="dotbelowcomb" x="101" y="0" flags="0x1000"/>
    </TTGlyph>
    <TTGlyph name="Ygrave" xMin="43" yMin="0" xMax="664" yMax="917">
      <component glyphName="Y" x="0" y="0" flags="0x1000"/>
      <component glyphName="grave.cap" x="127" y="175" flags="0x1000"/>
    </TTGlyph>
    <TTGlyph name="Yhookabove" xMin="43" yMin="0" xMax="664" yMax="947">
      <component glyphName="Y" x="0" y="0" flags="0x1000"/>
      <component glyphName="hookabove" x="74" y="175" flags="0x1000"/>
    </TTGlyph>
    <TTGlyph name="Ytilde" xMin="43" yMin="0" xMax="664" yMax="915">
      <component glyphName="Y" x="0" y="0" flags="0x1000"/>
      <component glyphName="tilde" x="125" y="175" flags="0x1000"/>
    </TTGlyph>
    <TTGlyph name="Z" xMin="-2" yMin="-6" xMax="588" yMax="650">
      <contour>
        <pt x="251" y="147" on="1"/>
        <pt x="412" y="147" on="1"/>
        <pt x="536" y="156" on="1"/>
        <pt x="541" y="147" on="1"/>
        <pt x="506" y="-5" on="1"/>
        <pt x="330" y="0" on="1"/>
        <pt x="100" y="0" on="1"/>
        <pt x="-2" y="-6" on="1"/>
        <pt x="16" y="136" on="1"/>
        <pt x="341" y="500" on="1"/>
        <pt x="183" y="500" on="1"/>
        <pt x="62" y="490" on="1"/>
        <pt x="56" y="498" on="1"/>
        <pt x="89" y="650" on="1"/>
        <pt x="239" y="647" on="1"/>
        <pt x="513" y="647" on="1"/>
        <pt x="588" y="648" on="1"/>
        <pt x="570" y="505" on="1"/>
      </contour>
    </TTGlyph>
    <TTGlyph name="Zacute" xMin="-2" yMin="-6" xMax="588" yMax="917">
      <component glyphName="Z" x="0" y="0" flags="0x1000"/>
      <component glyphName="acute.cap" x="71" y="175" flags="0x1000"/>
    </TTGlyph>
    <TTGlyph name="Zcaron" xMin="-2" yMin="-6" xMax="588" yMax="906">
      <component glyphName="Z" x="0" y="0" flags="0x1000"/>
      <component glyphName="caron.cap" x="62" y="175" flags="0x1000"/>
    </TTGlyph>
    <TTGlyph name="Zdotaccent" xMin="-2" yMin="-6" xMax="588" yMax="905">
      <component glyphName="Z" x="0" y="0" flags="0x1000"/>
      <component glyphName="dotaccent" x="66" y="175" flags="0x1000"/>
    </TTGlyph>
    <TTGlyph name="a" xMin="8" yMin="-11" xMax="472" yMax="484">
      <contour>
        <pt x="425" y="116" on="1"/>
        <pt x="421" y="7" on="1"/>
        <pt x="244" y="-4" on="1"/>
        <pt x="259" y="106" on="1"/>
        <pt x="243" y="106" on="1"/>
        <pt x="208" y="36" on="0"/>
        <pt x="169" y="-11" on="1"/>
        <pt x="146" y="-11" on="1"/>
        <pt x="68" y="8" on="0"/>
        <pt x="8" y="91" on="0"/>
        <pt x="8" y="157" on="1"/>
        <pt x="8" y="221" on="0"/>
        <pt x="60" y="348" on="0"/>
        <pt x="168" y="451" on="0"/>
        <pt x="248" y="478" on="1"/>
        <pt x="255" y="478" on="1"/>
        <pt x="352" y="461" on="1"/>
        <pt x="461" y="484" on="1"/>
        <pt x="472" y="476" on="1"/>
      </contour>
      <contour>
        <pt x="222" y="152" on="0"/>
        <pt x="286" y="309" on="1"/>
        <pt x="289" y="331" on="1"/>
        <pt x="221" y="348" on="1"/>
        <pt x="172" y="348" on="0"/>
        <pt x="172" y="231" on="1"/>
        <pt x="172" y="152" on="0"/>
        <pt x="193" y="152" on="1"/>
      </contour>
    </TTGlyph>
    <TTGlyph name="a.sups" xMin="36" yMin="313" xMax="350" yMax="651">
      <contour>
        <pt x="317" y="399" on="1"/>
        <pt x="314" y="324" on="1"/>
        <pt x="204" y="317" on="1"/>
        <pt x="216" y="412" on="1"/>
        <pt x="206" y="412" on="1"/>
        <pt x="174" y="350" on="0"/>
        <pt x="140" y="313" on="1"/>
        <pt x="125" y="313" on="1"/>
        <pt x="75" y="326" on="0"/>
        <pt x="36" y="382" on="0"/>
        <pt x="36" y="427" on="1"/>
        <pt x="36" y="499" on="0"/>
        <pt x="122" y="624" on="0"/>
        <pt x="204" y="648" on="1"/>
        <pt x="209" y="648" on="1"/>
        <pt x="276" y="637" on="1"/>
        <pt x="342" y="651" on="1"/>
        <pt x="350" y="646" on="1"/>
      </contour>
      <contour>
        <pt x="179" y="411" on="0"/>
        <pt x="233" y="536" on="1"/>
        <pt x="236" y="558" on="1"/>
        <pt x="188" y="569" on="1"/>
        <pt x="164" y="569" on="0"/>
        <pt x="138" y="517" on="0"/>
        <pt x="138" y="471" on="1"/>
        <pt x="138" y="411" on="0"/>
        <pt x="155" y="411" on="1"/>
      </contour>
    </TTGlyph>
    <TTGlyph name="aacute" xMin="8" yMin="-11" xMax="472" yMax="754">
      <component glyphName="a" x="0" y="0" flags="0x1000"/>
      <component glyphName="acute" x="45" y="0" flags="0x1000"/>
    </TTGlyph>
    <TTGlyph name="abreve" xMin="8" yMin="-11" xMax="472" yMax="732">
      <component glyphName="a" x="0" y="0" flags="0x1000"/>
      <component glyphName="breve" x="38" y="0" flags="0x1000"/>
    </TTGlyph>
    <TTGlyph name="abreveacute" xMin="8" yMin="-11" xMax="472" yMax="880">
      <component glyphName="a" x="0" y="0" flags="0x1000"/>
      <component glyphName="breveacute" x="45" y="0" flags="0x1000"/>
    </TTGlyph>
    <TTGlyph name="abrevedotbelow" xMin="8" yMin="-233" xMax="472" yMax="732">
      <contour>
        <pt x="199" y="535" on="0"/>
        <pt x="119" y="615" on="0"/>
        <pt x="108" y="671" on="1"/>
        <pt x="155" y="732" on="1"/>
        <pt x="182" y="732" on="1"/>
        <pt x="194" y="702" on="0"/>
        <pt x="250" y="669" on="0"/>
        <pt x="286" y="669" on="1"/>
        <pt x="323" y="669" on="0"/>
        <pt x="386" y="702" on="0"/>
        <pt x="404" y="732" on="1"/>
        <pt x="431" y="732" on="1"/>
        <pt x="462" y="671" on="1"/>
        <pt x="439" y="614" on="0"/>
        <pt x="343" y="535" on="0"/>
        <pt x="274" y="535" on="1"/>
      </contour>
      <contour>
        <pt x="425" y="116" on="1"/>
        <pt x="421" y="7" on="1"/>
        <pt x="244" y="-4" on="1"/>
        <pt x="259" y="106" on="1"/>
        <pt x="243" y="106" on="1"/>
        <pt x="207" y="35" on="0"/>
        <pt x="168" y="-11" on="1"/>
        <pt x="145" y="-11" on="1"/>
        <pt x="67" y="8" on="0"/>
        <pt x="8" y="91" on="0"/>
        <pt x="8" y="157" on="1"/>
        <pt x="8" y="221" on="0"/>
        <pt x="60" y="348" on="0"/>
        <pt x="168" y="451" on="0"/>
        <pt x="248" y="478" on="1"/>
        <pt x="255" y="478" on="1"/>
        <pt x="352" y="461" on="1"/>
        <pt x="461" y="484" on="1"/>
        <pt x="472" y="476" on="1"/>
      </contour>
      <contour>
        <pt x="222" y="152" on="0"/>
        <pt x="286" y="309" on="1"/>
        <pt x="289" y="331" on="1"/>
        <pt x="221" y="348" on="1"/>
        <pt x="172" y="348" on="0"/>
        <pt x="172" y="231" on="1"/>
        <pt x="172" y="152" on="0"/>
        <pt x="193" y="152" on="1"/>
      </contour>
      <contour>
        <pt x="277" y="-35" on="0"/>
        <pt x="326" y="-85" on="0"/>
        <pt x="326" y="-130" on="1"/>
        <pt x="326" y="-178" on="0"/>
        <pt x="272" y="-233" on="0"/>
        <pt x="225" y="-233" on="1"/>
        <pt x="180" y="-233" on="0"/>
        <pt x="132" y="-184" on="0"/>
        <pt x="132" y="-139" on="1"/>
        <pt x="132" y="-91" on="0"/>
        <pt x="186" y="-35" on="0"/>
        <pt x="233" y="-35" on="1"/>
      </contour>
    </TTGlyph>
    <TTGlyph name="abrevegrave" xMin="8" yMin="-11" xMax="472" yMax="880">
      <component glyphName="a" x="0" y="0" flags="0x1000"/>
      <component glyphName="brevegrave" x="45" y="0" flags="0x1000"/>
    </TTGlyph>
    <TTGlyph name="abrevehookabove" xMin="8" yMin="-11" xMax="472" yMax="940">
      <component glyphName="a" x="0" y="0" flags="0x1000"/>
      <component glyphName="brevehookabove" x="45" y="0" flags="0x1000"/>
    </TTGlyph>
    <TTGlyph name="abrevetilde" xMin="8" yMin="-11" xMax="499" yMax="910">
      <component glyphName="a" x="0" y="0" flags="0x1000"/>
      <component glyphName="brevetilde" x="45" y="0" flags="0x1000"/>
    </TTGlyph>
    <TTGlyph name="acaron" xMin="8" yMin="-11" xMax="472" yMax="747">
      <component glyphName="a" x="0" y="0" flags="0x1000"/>
      <component glyphName="caron" x="38" y="0" flags="0x1000"/>
    </TTGlyph>
    <TTGlyph name="acircumflex" xMin="8" yMin="-11" xMax="472" yMax="751">
      <component glyphName="a" x="0" y="0" flags="0x1000"/>
      <component glyphName="circumflex" x="47" y="0" flags="0x1000"/>
    </TTGlyph>
    <TTGlyph name="acircumflexacute" xMin="8" yMin="-11" xMax="539" yMax="876">
      <component glyphName="a" x="0" y="0" flags="0x1000"/>
      <component glyphName="circumflexacute" x="45" y="0" flags="0x1000"/>
    </TTGlyph>
    <TTGlyph name="acircumflexdotbelow" xMin="8" yMin="-233" xMax="472" yMax="751">
      <contour>
        <pt x="107" y="602" on="1"/>
        <pt x="163" y="645" on="0"/>
        <pt x="285" y="751" on="1"/>
        <pt x="319" y="751" on="1"/>
        <pt x="371" y="692" on="0"/>
        <pt x="466" y="602" on="1"/>
        <pt x="410" y="530" on="1"/>
        <pt x="392" y="530" on="1"/>
        <pt x="318" y="582" on="0"/>
        <pt x="287" y="608" on="1"/>
        <pt x="251" y="582" on="0"/>
        <pt x="163" y="530" on="1"/>
        <pt x="145" y="530" on="1"/>
      </contour>
      <contour>
        <pt x="425" y="116" on="1"/>
        <pt x="421" y="7" on="1"/>
        <pt x="244" y="-4" on="1"/>
        <pt x="259" y="106" on="1"/>
        <pt x="243" y="106" on="1"/>
        <pt x="207" y="35" on="0"/>
        <pt x="168" y="-11" on="1"/>
        <pt x="145" y="-11" on="1"/>
        <pt x="67" y="8" on="0"/>
        <pt x="8" y="91" on="0"/>
        <pt x="8" y="157" on="1"/>
        <pt x="8" y="221" on="0"/>
        <pt x="60" y="348" on="0"/>
        <pt x="168" y="451" on="0"/>
        <pt x="248" y="478" on="1"/>
        <pt x="255" y="478" on="1"/>
        <pt x="352" y="461" on="1"/>
        <pt x="461" y="484" on="1"/>
        <pt x="472" y="476" on="1"/>
      </contour>
      <contour>
        <pt x="222" y="152" on="0"/>
        <pt x="286" y="309" on="1"/>
        <pt x="289" y="331" on="1"/>
        <pt x="221" y="348" on="1"/>
        <pt x="172" y="348" on="0"/>
        <pt x="172" y="231" on="1"/>
        <pt x="172" y="152" on="0"/>
        <pt x="193" y="152" on="1"/>
      </contour>
      <contour>
        <pt x="277" y="-35" on="0"/>
        <pt x="326" y="-85" on="0"/>
        <pt x="326" y="-130" on="1"/>
        <pt x="326" y="-178" on="0"/>
        <pt x="272" y="-233" on="0"/>
        <pt x="225" y="-233" on="1"/>
        <pt x="180" y="-233" on="0"/>
        <pt x="132" y="-184" on="0"/>
        <pt x="132" y="-139" on="1"/>
        <pt x="132" y="-91" on="0"/>
        <pt x="186" y="-35" on="0"/>
        <pt x="233" y="-35" on="1"/>
      </contour>
    </TTGlyph>
    <TTGlyph name="acircumflexgrave" xMin="8" yMin="-11" xMax="472" yMax="876">
      <component glyphName="a" x="0" y="0" flags="0x1000"/>
      <component glyphName="circumflexgrave" x="45" y="0" flags="0x1000"/>
    </TTGlyph>
    <TTGlyph name="acircumflexhookabove" xMin="8" yMin="-11" xMax="485" yMax="925">
      <component glyphName="a" x="0" y="0" flags="0x1000"/>
      <component glyphName="circumflexhookabove" x="45" y="0" flags="0x1000"/>
    </TTGlyph>
    <TTGlyph name="acircumflextilde" xMin="8" yMin="-11" xMax="497" yMax="905">
      <component glyphName="a" x="0" y="0" flags="0x1000"/>
      <component glyphName="circumflextilde" x="47" y="0" flags="0x1000"/>
    </TTGlyph>
    <TTGlyph name="acute" xMin="98" yMin="521" xMax="385" yMax="754">
      <contour>
        <pt x="385" y="647" on="1"/>
        <pt x="382" y="630" on="1"/>
        <pt x="240" y="558" on="0"/>
        <pt x="159" y="521" on="1"/>
        <pt x="142" y="522" on="1"/>
        <pt x="98" y="594" on="1"/>
        <pt x="197" y="667" on="0"/>
        <pt x="299" y="754" on="1"/>
        <pt x="316" y="753" on="1"/>
      </contour>
    </TTGlyph>
    <TTGlyph name="acute.cap" xMin="96" yMin="537" xMax="387" yMax="742">
      <contour>
        <pt x="387" y="622" on="1"/>
        <pt x="381" y="606" on="1"/>
        <pt x="249" y="564" on="0"/>
        <pt x="143" y="537" on="1"/>
        <pt x="126" y="541" on="1"/>
        <pt x="96" y="620" on="1"/>
        <pt x="210" y="676" on="0"/>
        <pt x="321" y="742" on="1"/>
        <pt x="338" y="738" on="1"/>
      </contour>
    </TTGlyph>
    <TTGlyph name="adieresis" xMin="8" yMin="-11" xMax="472" yMax="715">
      <component glyphName="a" x="0" y="0" flags="0x1000"/>
      <component glyphName="dieresis" x="42" y="0" flags="0x1000"/>
    </TTGlyph>
    <TTGlyph name="adotbelow" xMin="8" yMin="-233" xMax="472" yMax="484">
      <component glyphName="a" x="0" y="0" flags="0x1000"/>
      <component glyphName="dotbelowcomb" x="80" y="0" flags="0x1000"/>
    </TTGlyph>
    <TTGlyph name="ae" xMin="8" yMin="-11" xMax="679" yMax="484">
      <contour>
        <pt x="469" y="480" on="0"/>
        <pt x="542" y="484" on="1"/>
        <pt x="558" y="482" on="1"/>
        <pt x="613" y="472" on="0"/>
        <pt x="679" y="408" on="0"/>
        <pt x="679" y="355" on="1"/>
        <pt x="679" y="295" on="0"/>
        <pt x="568" y="211" on="0"/>
        <pt x="434" y="178" on="1"/>
        <pt x="438" y="161" on="1"/>
        <pt x="449" y="122" on="0"/>
        <pt x="486" y="122" on="1"/>
        <pt x="540" y="122" on="0"/>
        <pt x="582" y="186" on="1"/>
        <pt x="603" y="183" on="1"/>
        <pt x="659" y="112" on="1"/>
        <pt x="583" y="21" on="0"/>
        <pt x="472" y="-11" on="1"/>
        <pt x="456" y="-11" on="1"/>
        <pt x="375" y="-2" on="0"/>
        <pt x="293" y="65" on="0"/>
        <pt x="275" y="126" on="1"/>
        <pt x="271" y="143" on="1"/>
        <pt x="225" y="57" on="0"/>
        <pt x="168" y="-11" on="1"/>
        <pt x="145" y="-11" on="1"/>
        <pt x="67" y="8" on="0"/>
        <pt x="8" y="92" on="0"/>
        <pt x="8" y="154" on="1"/>
        <pt x="8" y="221" on="0"/>
        <pt x="61" y="349" on="0"/>
        <pt x="169" y="452" on="0"/>
        <pt x="249" y="478" on="1"/>
        <pt x="256" y="478" on="1"/>
        <pt x="412" y="451" on="1"/>
      </contour>
      <contour>
        <pt x="439" y="372" on="0"/>
        <pt x="432" y="274" on="1"/>
        <pt x="483" y="285" on="0"/>
        <pt x="526" y="317" on="0"/>
        <pt x="526" y="344" on="1"/>
        <pt x="526" y="372" on="0"/>
        <pt x="497" y="372" on="1"/>
      </contour>
      <contour>
        <pt x="169" y="349" on="0"/>
        <pt x="169" y="228" on="1"/>
        <pt x="169" y="150" on="0"/>
        <pt x="191" y="150" on="1"/>
        <pt x="222" y="150" on="0"/>
        <pt x="287" y="310" on="1"/>
        <pt x="291" y="320" on="0"/>
        <pt x="294" y="324" on="0"/>
        <pt x="297" y="330" on="1"/>
        <pt x="223" y="349" on="1"/>
      </contour>
    </TTGlyph>
    <TTGlyph name="aeacute" xMin="8" yMin="-11" xMax="679" yMax="754">
      <component glyphName="ae" x="0" y="0" flags="0x1000"/>
      <component glyphName="acute" x="161" y="0" flags="0x1000"/>
    </TTGlyph>
    <TTGlyph name="agrave" xMin="8" yMin="-11" xMax="472" yMax="754">
      <component glyphName="a" x="0" y="0" flags="0x1000"/>
      <component glyphName="grave" x="26" y="0" flags="0x1000"/>
    </TTGlyph>
    <TTGlyph name="ahookabove" xMin="8" yMin="-11" xMax="472" yMax="772">
      <component glyphName="a" x="0" y="0" flags="0x1000"/>
      <component glyphName="hookabove" x="-8" y="0" flags="0x1000"/>
    </TTGlyph>
    <TTGlyph name="amacron" xMin="8" yMin="-11" xMax="472" yMax="690">
      <component glyphName="a" x="0" y="0" flags="0x1000"/>
      <component glyphName="macron" x="42" y="0" flags="0x1000"/>
    </TTGlyph>
    <TTGlyph name="ampersand" xMin="33" yMin="-12" xMax="668" yMax="659">
      <contour>
        <pt x="421" y="659" on="0"/>
        <pt x="511" y="633" on="1"/>
        <pt x="469" y="495" on="1"/>
        <pt x="448" y="489" on="1"/>
        <pt x="364" y="535" on="0"/>
        <pt x="316" y="535" on="1"/>
        <pt x="245" y="535" on="0"/>
        <pt x="245" y="468" on="1"/>
        <pt x="245" y="385" on="0"/>
        <pt x="319" y="385" on="1"/>
        <pt x="516" y="397" on="1"/>
        <pt x="650" y="415" on="1"/>
        <pt x="668" y="399" on="1"/>
        <pt x="639" y="280" on="1"/>
        <pt x="526" y="277" on="1"/>
        <pt x="521" y="271" on="1"/>
        <pt x="536" y="242" on="0"/>
        <pt x="536" y="198" on="1"/>
        <pt x="536" y="146" on="0"/>
        <pt x="478" y="50" on="0"/>
        <pt x="356" y="-12" on="0"/>
        <pt x="265" y="-12" on="1"/>
        <pt x="156" y="-12" on="0"/>
        <pt x="33" y="80" on="0"/>
        <pt x="33" y="162" on="1"/>
        <pt x="33" y="262" on="0"/>
        <pt x="162" y="319" on="1"/>
        <pt x="162" y="323" on="1"/>
        <pt x="93" y="381" on="0"/>
        <pt x="93" y="465" on="1"/>
        <pt x="93" y="523" on="0"/>
        <pt x="154" y="610" on="0"/>
        <pt x="268" y="659" on="0"/>
        <pt x="347" y="659" on="1"/>
      </contour>
      <contour>
        <pt x="199" y="231" on="0"/>
        <pt x="199" y="177" on="1"/>
        <pt x="199" y="102" on="0"/>
        <pt x="285" y="102" on="1"/>
        <pt x="396" y="102" on="0"/>
        <pt x="396" y="204" on="1"/>
        <pt x="396" y="248" on="0"/>
        <pt x="367" y="272" on="1"/>
        <pt x="257" y="268" on="1"/>
      </contour>
    </TTGlyph>
    <TTGlyph name="ampersand.sc" xMin="16" yMin="-13" xMax="723" yMax="712">
      <contour>
        <pt x="699" y="265" on="1"/>
        <pt x="687" y="146" on="1"/>
        <pt x="542" y="146" on="1"/>
        <pt x="478" y="-13" on="0"/>
        <pt x="289" y="-13" on="1"/>
        <pt x="158" y="-13" on="0"/>
        <pt x="16" y="126" on="0"/>
        <pt x="16" y="254" on="1"/>
        <pt x="16" y="378" on="0"/>
        <pt x="145" y="523" on="0"/>
        <pt x="260" y="523" on="1"/>
        <pt x="328" y="523" on="0"/>
        <pt x="398" y="474" on="0"/>
        <pt x="401" y="431" on="1"/>
        <pt x="568" y="565" on="0"/>
        <pt x="634" y="712" on="1"/>
        <pt x="649" y="712" on="1"/>
        <pt x="706" y="660" on="0"/>
        <pt x="723" y="593" on="1"/>
        <pt x="704" y="540" on="0"/>
        <pt x="542" y="378" on="0"/>
        <pt x="314" y="216" on="0"/>
        <pt x="202" y="162" on="1"/>
        <pt x="232" y="120" on="0"/>
        <pt x="301" y="120" on="1"/>
        <pt x="365" y="120" on="0"/>
        <pt x="435" y="193" on="0"/>
        <pt x="444" y="269" on="1"/>
        <pt x="457" y="279" on="1"/>
        <pt x="688" y="279" on="1"/>
      </contour>
      <contour>
        <pt x="219" y="403" on="0"/>
        <pt x="179" y="346" on="0"/>
        <pt x="176" y="292" on="1"/>
        <pt x="223" y="315" on="0"/>
        <pt x="262" y="337" on="1"/>
        <pt x="285" y="352" on="0"/>
        <pt x="285" y="377" on="1"/>
        <pt x="285" y="403" on="0"/>
        <pt x="254" y="403" on="1"/>
      </contour>
    </TTGlyph>
    <TTGlyph name="aogonek" xMin="8" yMin="-197" xMax="472" yMax="484">
      <contour>
        <pt x="425" y="116" on="1"/>
        <pt x="421" y="7" on="1"/>
        <pt x="345" y="2" on="1"/>
        <pt x="317" y="-25" on="0"/>
        <pt x="298" y="-55" on="0"/>
        <pt x="298" y="-68" on="1"/>
        <pt x="298" y="-81" on="0"/>
        <pt x="316" y="-99" on="0"/>
        <pt x="333" y="-99" on="1"/>
        <pt x="357" y="-99" on="0"/>
        <pt x="385" y="-79" on="1"/>
        <pt x="395" y="-79" on="1"/>
        <pt x="407" y="-151" on="1"/>
        <pt x="378" y="-175" on="0"/>
        <pt x="332" y="-197" on="0"/>
        <pt x="304" y="-197" on="1"/>
        <pt x="258" y="-197" on="0"/>
        <pt x="202" y="-141" on="0"/>
        <pt x="202" y="-96" on="1"/>
        <pt x="202" y="-50" on="0"/>
        <pt x="245" y="1" on="1"/>
        <pt x="259" y="106" on="1"/>
        <pt x="243" y="106" on="1"/>
        <pt x="207" y="35" on="0"/>
        <pt x="168" y="-11" on="1"/>
        <pt x="145" y="-11" on="1"/>
        <pt x="67" y="8" on="0"/>
        <pt x="8" y="91" on="0"/>
        <pt x="8" y="157" on="1"/>
        <pt x="8" y="221" on="0"/>
        <pt x="60" y="348" on="0"/>
        <pt x="168" y="451" on="0"/>
        <pt x="248" y="478" on="1"/>
        <pt x="255" y="478" on="1"/>
        <pt x="352" y="461" on="1"/>
        <pt x="461" y="484" on="1"/>
        <pt x="472" y="476" on="1"/>
      </contour>
      <contour>
        <pt x="222" y="152" on="0"/>
        <pt x="286" y="309" on="1"/>
        <pt x="289" y="331" on="1"/>
        <pt x="221" y="348" on="1"/>
        <pt x="172" y="348" on="0"/>
        <pt x="172" y="231" on="1"/>
        <pt x="172" y="152" on="0"/>
        <pt x="193" y="152" on="1"/>
      </contour>
    </TTGlyph>
    <TTGlyph name="approxequal" xMin="3" yMin="46" xMax="506" yMax="461">
      <component glyphName="asciitilde" x="25" y="105" flags="0x1000"/>
      <component glyphName="asciitilde" x="0" y="-106" flags="0x1000"/>
    </TTGlyph>
    <TTGlyph name="aring" xMin="8" yMin="-11" xMax="472" yMax="755">
      <component glyphName="a" x="0" y="0" flags="0x1000"/>
      <component glyphName="ring" x="41" y="0" flags="0x1000"/>
    </TTGlyph>
    <TTGlyph name="aringacute" xMin="8" yMin="-11" xMax="472" yMax="924">
      <component glyphName="a" x="0" y="0" flags="0x1000"/>
      <component glyphName="newGlyph#3" x="45" y="0" flags="0x1000"/>
    </TTGlyph>
    <TTGlyph name="arrowdown" xMin="51" yMin="-12" xMax="499" yMax="484">
      <contour>
        <pt x="290" y="-12" on="1"/>
        <pt x="261" y="-12" on="1"/>
        <pt x="51" y="189" on="1"/>
        <pt x="73" y="294" on="1"/>
        <pt x="97" y="294" on="1"/>
        <pt x="216" y="183" on="1"/>
        <pt x="208" y="472" on="1"/>
        <pt x="222" y="484" on="1"/>
        <pt x="341" y="478" on="1"/>
        <pt x="333" y="182" on="1"/>
        <pt x="453" y="294" on="1"/>
        <pt x="477" y="294" on="1"/>
        <pt x="499" y="189" on="1"/>
      </contour>
    </TTGlyph>
    <TTGlyph name="arrowdownleft" xMin="84" yMin="43" xMax="495" yMax="450">
      <component glyphName="arrowdown" x="-85" y="263" scalex="0.706970214844" scale01="-0.706970214844" scale10="0.706970214844" scaley="0.706970214844" flags="0x1000"/>
    </TTGlyph>
    <TTGlyph name="arrowdownright" xMin="59" yMin="39" xMax="466" yMax="450">
      <component glyphName="arrowdown" x="246" y="-130" scalex="0.706970214844" scale01="0.706970214844" scale10="-0.706970214844" scaley="0.706970214844" flags="0x1000"/>
    </TTGlyph>
    <TTGlyph name="arrowleft" xMin="24" yMin="17" xMax="520" yMax="465">
      <component glyphName="arrowdown" x="36" y="516" scalex="0.0" scale01="-1.0" scale10="1.0" scaley="0.0" flags="0x1000"/>
    </TTGlyph>
    <TTGlyph name="arrowright" xMin="28" yMin="19" xMax="524" yMax="467">
      <component glyphName="arrowdown" x="512" y="-32" scalex="0.0" scale01="1.0" scale10="-1.0" scaley="0.0" flags="0x1000"/>
    </TTGlyph>
    <TTGlyph name="arrowup" xMin="52" yMin="-1" xMax="500" yMax="495">
      <component glyphName="arrowdown" x="551" y="483" scale="-1.0" flags="0x1000"/>
    </TTGlyph>
    <TTGlyph name="arrowupleft" xMin="81" yMin="28" xMax="488" yMax="439">
      <component glyphName="arrowdown" x="301" y="608" scalex="-0.706970214844" scale01="-0.706970214844" scale10="0.706970214844" scaley="-0.706970214844" flags="0x1000"/>
    </TTGlyph>
    <TTGlyph name="arrowupright" xMin="55" yMin="37" xMax="466" yMax="444">
      <component glyphName="arrowdown" x="635" y="224" scalex="-0.706970214844" scale01="0.706970214844" scale10="-0.706970214844" scaley="-0.706970214844" flags="0x1000"/>
    </TTGlyph>
    <TTGlyph name="asciicircum" xMin="2" yMin="111" xMax="440" yMax="502">
      <contour>
        <pt x="425" y="145" on="1"/>
        <pt x="314" y="119" on="1"/>
        <pt x="254" y="371" on="1"/>
        <pt x="245" y="371" on="1"/>
        <pt x="121" y="118" on="1"/>
        <pt x="107" y="111" on="1"/>
        <pt x="2" y="151" on="1"/>
        <pt x="174" y="491" on="1"/>
        <pt x="192" y="502" on="1"/>
        <pt x="347" y="502" on="1"/>
        <pt x="440" y="161" on="1"/>
      </contour>
    </TTGlyph>
    <TTGlyph name="asciitilde" xMin="3" yMin="152" xMax="481" yMax="356">
      <contour>
        <pt x="130" y="212" on="0"/>
        <pt x="95" y="184" on="0"/>
        <pt x="63" y="152" on="1"/>
        <pt x="47" y="152" on="1"/>
        <pt x="3" y="214" on="1"/>
        <pt x="5" y="230" on="1"/>
        <pt x="112" y="345" on="1"/>
        <pt x="128" y="352" on="1"/>
        <pt x="157" y="347" on="0"/>
        <pt x="232" y="323" on="1"/>
        <pt x="322" y="295" on="0"/>
        <pt x="338" y="295" on="1"/>
        <pt x="353" y="295" on="0"/>
        <pt x="385" y="319" on="0"/>
        <pt x="417" y="350" on="0"/>
        <pt x="423" y="356" on="1"/>
        <pt x="439" y="356" on="1"/>
        <pt x="481" y="293" on="1"/>
        <pt x="479" y="277" on="1"/>
        <pt x="374" y="162" on="1"/>
        <pt x="357" y="157" on="1"/>
        <pt x="327" y="161" on="0"/>
        <pt x="242" y="188" on="1"/>
        <pt x="162" y="212" on="0"/>
        <pt x="148" y="212" on="1"/>
      </contour>
    </TTGlyph>
    <TTGlyph name="asterisk" xMin="60" yMin="370" xMax="437" yMax="751">
      <contour>
        <pt x="266" y="614" on="1"/>
        <pt x="215" y="608" on="1"/>
        <pt x="206" y="616" on="1"/>
        <pt x="200" y="734" on="1"/>
        <pt x="243" y="749" on="0"/>
        <pt x="297" y="751" on="1"/>
        <pt x="302" y="741" on="1"/>
      </contour>
      <contour>
        <pt x="185" y="554" on="1"/>
        <pt x="174" y="549" on="1"/>
        <pt x="60" y="579" on="1"/>
        <pt x="59" y="623" on="0"/>
        <pt x="73" y="676" on="1"/>
        <pt x="85" y="679" on="1"/>
        <pt x="194" y="605" on="1"/>
      </contour>
      <contour>
        <pt x="419" y="609" on="0"/>
        <pt x="437" y="561" on="1"/>
        <pt x="430" y="553" on="1"/>
        <pt x="298" y="549" on="1"/>
        <pt x="275" y="595" on="1"/>
        <pt x="280" y="606" on="1"/>
        <pt x="392" y="648" on="1"/>
      </contour>
      <contour>
        <pt x="369" y="440" on="1"/>
        <pt x="345" y="407" on="0"/>
        <pt x="300" y="370" on="1"/>
        <pt x="290" y="374" on="1"/>
        <pt x="245" y="499" on="1"/>
        <pt x="282" y="534" on="1"/>
        <pt x="294" y="533" on="1"/>
      </contour>
      <contour>
        <pt x="228" y="498" on="1"/>
        <pt x="164" y="398" on="1"/>
        <pt x="126" y="409" on="0"/>
        <pt x="75" y="440" on="1"/>
        <pt x="76" y="452" on="1"/>
        <pt x="180" y="533" on="1"/>
        <pt x="226" y="509" on="1"/>
      </contour>
    </TTGlyph>
    <TTGlyph name="at" xMin="19" yMin="-225" xMax="855" yMax="659">
      <contour>
        <pt x="855" y="170" on="0"/>
        <pt x="638" y="2" on="0"/>
        <pt x="436" y="2" on="1"/>
        <pt x="450" y="106" on="1"/>
        <pt x="435" y="106" on="1"/>
        <pt x="399" y="36" on="0"/>
        <pt x="364" y="-5" on="1"/>
        <pt x="343" y="-5" on="1"/>
        <pt x="269" y="13" on="0"/>
        <pt x="213" y="91" on="0"/>
        <pt x="213" y="154" on="1"/>
        <pt x="213" y="214" on="0"/>
        <pt x="262" y="333" on="0"/>
        <pt x="365" y="431" on="0"/>
        <pt x="440" y="456" on="1"/>
        <pt x="446" y="456" on="1"/>
        <pt x="537" y="441" on="1"/>
        <pt x="640" y="462" on="1"/>
        <pt x="651" y="454" on="1"/>
        <pt x="608" y="132" on="1"/>
        <pt x="664" y="145" on="0"/>
        <pt x="731" y="249" on="0"/>
        <pt x="731" y="321" on="1"/>
        <pt x="731" y="422" on="0"/>
        <pt x="598" y="540" on="0"/>
        <pt x="485" y="540" on="1"/>
        <pt x="384" y="540" on="0"/>
        <pt x="230" y="453" on="0"/>
        <pt x="145" y="300" on="0"/>
        <pt x="145" y="204" on="1"/>
        <pt x="145" y="103" on="0"/>
        <pt x="239" y="-43" on="0"/>
        <pt x="410" y="-119" on="0"/>
        <pt x="524" y="-119" on="1"/>
        <pt x="530" y="-136" on="1"/>
        <pt x="481" y="-225" on="1"/>
        <pt x="341" y="-225" on="0"/>
        <pt x="133" y="-131" on="0"/>
        <pt x="19" y="53" on="0"/>
        <pt x="19" y="183" on="1"/>
        <pt x="19" y="316" on="0"/>
        <pt x="137" y="534" on="0"/>
        <pt x="351" y="659" on="0"/>
        <pt x="491" y="659" on="1"/>
        <pt x="600" y="659" on="0"/>
        <pt x="765" y="580" on="0"/>
        <pt x="855" y="430" on="0"/>
        <pt x="855" y="327" on="1"/>
      </contour>
      <contour>
        <pt x="415" y="149" on="0"/>
        <pt x="475" y="296" on="1"/>
        <pt x="478" y="318" on="1"/>
        <pt x="414" y="334" on="1"/>
        <pt x="368" y="334" on="0"/>
        <pt x="368" y="223" on="1"/>
        <pt x="368" y="149" on="0"/>
        <pt x="388" y="149" on="1"/>
      </contour>
    </TTGlyph>
    <TTGlyph name="atilde" xMin="8" yMin="-11" xMax="482" yMax="740">
      <component glyphName="a" x="0" y="0" flags="0x1000"/>
      <component glyphName="tilde" x="43" y="0" flags="0x1000"/>
    </TTGlyph>
    <TTGlyph name="b" xMin="19" yMin="-11" xMax="481" yMax="704">
      <contour>
        <pt x="420" y="459" on="0"/>
        <pt x="481" y="379" on="0"/>
        <pt x="481" y="311" on="1"/>
        <pt x="481" y="245" on="0"/>
        <pt x="428" y="117" on="0"/>
        <pt x="322" y="14" on="0"/>
        <pt x="246" y="-11" on="1"/>
        <pt x="239" y="-11" on="1"/>
        <pt x="130" y="8" on="1"/>
        <pt x="19" y="27" on="1"/>
        <pt x="92" y="580" on="1"/>
        <pt x="96" y="693" on="1"/>
        <pt x="273" y="704" on="1"/>
        <pt x="227" y="357" on="1"/>
        <pt x="243" y="357" on="1"/>
        <pt x="278" y="424" on="0"/>
        <pt x="322" y="478" on="1"/>
        <pt x="345" y="478" on="1"/>
      </contour>
      <contour>
        <pt x="318" y="118" on="0"/>
        <pt x="318" y="238" on="1"/>
        <pt x="318" y="321" on="0"/>
        <pt x="298" y="321" on="1"/>
        <pt x="271" y="321" on="0"/>
        <pt x="202" y="167" on="1"/>
        <pt x="198" y="138" on="1"/>
        <pt x="273" y="118" on="1"/>
      </contour>
    </TTGlyph>
    <TTGlyph name="b.sups" xMin="44" yMin="313" xMax="357" yMax="813">
      <contour>
        <pt x="317" y="634" on="0"/>
        <pt x="357" y="580" on="0"/>
        <pt x="357" y="535" on="1"/>
        <pt x="357" y="461" on="0"/>
        <pt x="270" y="336" on="0"/>
        <pt x="191" y="313" on="1"/>
        <pt x="186" y="313" on="1"/>
        <pt x="97" y="329" on="1"/>
        <pt x="44" y="337" on="1"/>
        <pt x="96" y="730" on="1"/>
        <pt x="99" y="806" on="1"/>
        <pt x="209" y="813" on="1"/>
        <pt x="174" y="547" on="1"/>
        <pt x="184" y="547" on="1"/>
        <pt x="217" y="608" on="0"/>
        <pt x="253" y="647" on="1"/>
        <pt x="268" y="647" on="1"/>
      </contour>
      <contour>
        <pt x="230" y="391" on="0"/>
        <pt x="255" y="446" on="0"/>
        <pt x="255" y="491" on="1"/>
        <pt x="255" y="552" on="0"/>
        <pt x="239" y="552" on="1"/>
        <pt x="215" y="552" on="0"/>
        <pt x="159" y="430" on="1"/>
        <pt x="155" y="404" on="1"/>
        <pt x="207" y="391" on="1"/>
      </contour>
    </TTGlyph>
    <TTGlyph name="backslash" xMin="58" yMin="-118" xMax="411" yMax="683">
      <contour>
        <pt x="411" y="-103" on="1"/>
        <pt x="400" y="-118" on="1"/>
        <pt x="266" y="-118" on="1"/>
        <pt x="58" y="667" on="1"/>
        <pt x="73" y="683" on="1"/>
        <pt x="203" y="683" on="1"/>
      </contour>
    </TTGlyph>
    <TTGlyph name="bar" xMin="17" yMin="-256" xMax="295" yMax="810">
      <contour>
        <pt x="228" y="294" on="1"/>
        <pt x="163" y="-245" on="1"/>
        <pt x="30" y="-256" on="1"/>
        <pt x="17" y="-240" on="1"/>
        <pt x="82" y="279" on="1"/>
        <pt x="146" y="799" on="1"/>
        <pt x="283" y="810" on="1"/>
        <pt x="295" y="797" on="1"/>
      </contour>
    </TTGlyph>
    <TTGlyph name="braceleft" xMin="26" yMin="-104" xMax="354" yMax="659">
      <contour>
        <pt x="312" y="659" on="0"/>
        <pt x="349" y="647" on="1"/>
        <pt x="354" y="634" on="1"/>
        <pt x="328" y="539" on="1"/>
        <pt x="310" y="544" on="0"/>
        <pt x="295" y="544" on="1"/>
        <pt x="270" y="544" on="0"/>
        <pt x="243" y="513" on="0"/>
        <pt x="243" y="487" on="1"/>
        <pt x="243" y="474" on="0"/>
        <pt x="249" y="442" on="1"/>
        <pt x="255" y="410" on="0"/>
        <pt x="255" y="393" on="1"/>
        <pt x="255" y="359" on="0"/>
        <pt x="212" y="299" on="0"/>
        <pt x="172" y="281" on="1"/>
        <pt x="171" y="274" on="1"/>
        <pt x="199" y="259" on="0"/>
        <pt x="229" y="211" on="0"/>
        <pt x="229" y="183" on="1"/>
        <pt x="229" y="156" on="0"/>
        <pt x="207" y="112" on="1"/>
        <pt x="188" y="72" on="0"/>
        <pt x="188" y="52" on="1"/>
        <pt x="188" y="11" on="0"/>
        <pt x="230" y="11" on="1"/>
        <pt x="244" y="11" on="0"/>
        <pt x="264" y="16" on="1"/>
        <pt x="267" y="-79" on="1"/>
        <pt x="258" y="-92" on="1"/>
        <pt x="218" y="-104" on="0"/>
        <pt x="177" y="-104" on="1"/>
        <pt x="107" y="-104" on="0"/>
        <pt x="32" y="-47" on="0"/>
        <pt x="32" y="5" on="1"/>
        <pt x="32" y="45" on="0"/>
        <pt x="56" y="105" on="1"/>
        <pt x="73" y="150" on="0"/>
        <pt x="73" y="171" on="1"/>
        <pt x="73" y="213" on="0"/>
        <pt x="26" y="234" on="1"/>
        <pt x="37" y="321" on="1"/>
        <pt x="101" y="347" on="0"/>
        <pt x="101" y="404" on="1"/>
        <pt x="101" y="401" on="0"/>
        <pt x="98" y="449" on="1"/>
        <pt x="94" y="487" on="0"/>
        <pt x="94" y="510" on="1"/>
        <pt x="94" y="582" on="0"/>
        <pt x="186" y="659" on="0"/>
        <pt x="271" y="659" on="1"/>
      </contour>
    </TTGlyph>
    <TTGlyph name="braceright" xMin="-42" yMin="-105" xMax="286" yMax="658">
      <component glyphName="braceleft" x="312" y="554" scale="-1.0" flags="0x1000"/>
    </TTGlyph>
    <TTGlyph name="bracketleft" xMin="16" yMin="-123" xMax="361" yMax="649">
      <contour>
        <pt x="350" y="554" on="1"/>
        <pt x="253" y="540" on="1"/>
        <pt x="186" y="-14" on="1"/>
        <pt x="279" y="-29" on="1"/>
        <pt x="268" y="-114" on="1"/>
        <pt x="260" y="-123" on="1"/>
        <pt x="16" y="-113" on="1"/>
        <pt x="73" y="263" on="1"/>
        <pt x="109" y="639" on="1"/>
        <pt x="355" y="649" on="1"/>
        <pt x="361" y="640" on="1"/>
      </contour>
    </TTGlyph>
    <TTGlyph name="bracketright" xMin="-53" yMin="-124" xMax="292" yMax="648">
      <component glyphName="bracketleft" x="308" y="525" scale="-1.0" flags="0x1000"/>
    </TTGlyph>
    <TTGlyph name="breve" xMin="70" yMin="535" xMax="424" yMax="732">
      <contour>
        <pt x="401" y="614" on="0"/>
        <pt x="305" y="535" on="0"/>
        <pt x="236" y="535" on="1"/>
        <pt x="161" y="535" on="0"/>
        <pt x="81" y="615" on="0"/>
        <pt x="70" y="671" on="1"/>
        <pt x="117" y="732" on="1"/>
        <pt x="144" y="732" on="1"/>
        <pt x="156" y="702" on="0"/>
        <pt x="212" y="669" on="0"/>
        <pt x="248" y="669" on="1"/>
        <pt x="285" y="669" on="0"/>
        <pt x="348" y="702" on="0"/>
        <pt x="366" y="732" on="1"/>
        <pt x="393" y="732" on="1"/>
        <pt x="424" y="671" on="1"/>
      </contour>
    </TTGlyph>
    <TTGlyph name="breve.cap" xMin="69" yMin="541" xMax="424" yMax="724">
      <contour>
        <pt x="367" y="541" on="0"/>
        <pt x="241" y="541" on="1"/>
        <pt x="176" y="541" on="0"/>
        <pt x="86" y="605" on="0"/>
        <pt x="69" y="665" on="1"/>
        <pt x="117" y="724" on="1"/>
        <pt x="144" y="724" on="1"/>
        <pt x="158" y="699" on="0"/>
        <pt x="215" y="674" on="0"/>
        <pt x="251" y="674" on="1"/>
        <pt x="328" y="674" on="0"/>
        <pt x="365" y="724" on="1"/>
        <pt x="392" y="724" on="1"/>
        <pt x="424" y="665" on="1"/>
      </contour>
    </TTGlyph>
    <TTGlyph name="breveacute" xMin="67" yMin="521" xMax="422" yMax="880">
      <contour>
        <pt x="384" y="809" on="1"/>
        <pt x="322" y="747" on="0"/>
        <pt x="256" y="690" on="1"/>
        <pt x="241" y="686" on="1"/>
        <pt x="183" y="730" on="1"/>
        <pt x="249" y="826" on="0"/>
        <pt x="280" y="876" on="1"/>
        <pt x="293" y="880" on="1"/>
        <pt x="382" y="823" on="1"/>
      </contour>
      <contour>
        <pt x="365" y="521" on="0"/>
        <pt x="239" y="521" on="1"/>
        <pt x="174" y="521" on="0"/>
        <pt x="84" y="585" on="0"/>
        <pt x="67" y="645" on="1"/>
        <pt x="115" y="704" on="1"/>
        <pt x="142" y="704" on="1"/>
        <pt x="156" y="679" on="0"/>
        <pt x="213" y="654" on="0"/>
        <pt x="249" y="654" on="1"/>
        <pt x="326" y="654" on="0"/>
        <pt x="363" y="704" on="1"/>
        <pt x="390" y="704" on="1"/>
        <pt x="422" y="645" on="1"/>
      </contour>
    </TTGlyph>
    <TTGlyph name="brevegrave" xMin="67" yMin="521" xMax="422" yMax="880">
      <contour>
        <pt x="238" y="690" on="1"/>
        <pt x="176" y="743" on="0"/>
        <pt x="109" y="809" on="1"/>
        <pt x="112" y="823" on="1"/>
        <pt x="201" y="880" on="1"/>
        <pt x="214" y="876" on="1"/>
        <pt x="245" y="826" on="0"/>
        <pt x="311" y="730" on="1"/>
        <pt x="253" y="686" on="1"/>
      </contour>
      <contour>
        <pt x="365" y="521" on="0"/>
        <pt x="239" y="521" on="1"/>
        <pt x="174" y="521" on="0"/>
        <pt x="84" y="585" on="0"/>
        <pt x="67" y="645" on="1"/>
        <pt x="115" y="704" on="1"/>
        <pt x="142" y="704" on="1"/>
        <pt x="156" y="679" on="0"/>
        <pt x="213" y="654" on="0"/>
        <pt x="249" y="654" on="1"/>
        <pt x="326" y="654" on="0"/>
        <pt x="363" y="704" on="1"/>
        <pt x="390" y="704" on="1"/>
        <pt x="422" y="645" on="1"/>
      </contour>
    </TTGlyph>
    <TTGlyph name="brevehookabove" xMin="67" yMin="521" xMax="422" yMax="940">
      <contour>
        <pt x="280" y="940" on="0"/>
        <pt x="337" y="891" on="0"/>
        <pt x="337" y="852" on="1"/>
        <pt x="337" y="830" on="0"/>
        <pt x="311" y="792" on="0"/>
        <pt x="276" y="760" on="1"/>
        <pt x="303" y="717" on="1"/>
        <pt x="239" y="679" on="1"/>
        <pt x="185" y="758" on="1"/>
        <pt x="210" y="776" on="0"/>
        <pt x="239" y="818" on="0"/>
        <pt x="239" y="834" on="1"/>
        <pt x="239" y="858" on="0"/>
        <pt x="209" y="858" on="1"/>
        <pt x="173" y="858" on="0"/>
        <pt x="139" y="832" on="1"/>
        <pt x="110" y="879" on="1"/>
        <pt x="136" y="907" on="0"/>
        <pt x="203" y="940" on="0"/>
        <pt x="237" y="940" on="1"/>
      </contour>
      <contour>
        <pt x="365" y="521" on="0"/>
        <pt x="239" y="521" on="1"/>
        <pt x="174" y="521" on="0"/>
        <pt x="84" y="585" on="0"/>
        <pt x="67" y="645" on="1"/>
        <pt x="115" y="704" on="1"/>
        <pt x="142" y="704" on="1"/>
        <pt x="156" y="679" on="0"/>
        <pt x="213" y="654" on="0"/>
        <pt x="249" y="654" on="1"/>
        <pt x="326" y="654" on="0"/>
        <pt x="363" y="704" on="1"/>
        <pt x="390" y="704" on="1"/>
        <pt x="422" y="645" on="1"/>
      </contour>
    </TTGlyph>
    <TTGlyph name="brevetilde" xMin="79" yMin="520" xMax="454" yMax="910">
      <contour>
        <pt x="454" y="845" on="1"/>
        <pt x="381" y="742" on="1"/>
        <pt x="366" y="737" on="1"/>
        <pt x="337" y="741" on="0"/>
        <pt x="287" y="756" on="1"/>
        <pt x="239" y="769" on="0"/>
        <pt x="227" y="769" on="1"/>
        <pt x="213" y="769" on="0"/>
        <pt x="189" y="748" on="0"/>
        <pt x="168" y="721" on="0"/>
        <pt x="164" y="716" on="1"/>
        <pt x="150" y="716" on="1"/>
        <pt x="98" y="765" on="1"/>
        <pt x="98" y="780" on="1"/>
        <pt x="172" y="882" on="1"/>
        <pt x="186" y="888" on="1"/>
        <pt x="208" y="885" on="0"/>
        <pt x="262" y="870" on="1"/>
        <pt x="312" y="857" on="0"/>
        <pt x="325" y="857" on="1"/>
        <pt x="341" y="857" on="0"/>
        <pt x="365" y="881" on="0"/>
        <pt x="388" y="910" on="1"/>
        <pt x="403" y="910" on="1"/>
        <pt x="454" y="860" on="1"/>
      </contour>
      <contour>
        <pt x="356" y="520" on="0"/>
        <pt x="239" y="520" on="1"/>
        <pt x="179" y="520" on="0"/>
        <pt x="95" y="580" on="0"/>
        <pt x="79" y="635" on="1"/>
        <pt x="124" y="690" on="1"/>
        <pt x="149" y="690" on="1"/>
        <pt x="162" y="667" on="0"/>
        <pt x="216" y="644" on="0"/>
        <pt x="249" y="644" on="1"/>
        <pt x="320" y="644" on="0"/>
        <pt x="355" y="690" on="1"/>
        <pt x="380" y="690" on="1"/>
        <pt x="410" y="635" on="1"/>
      </contour>
    </TTGlyph>
    <TTGlyph name="brokenbar" xMin="17" yMin="-256" xMax="295" yMax="810">
      <contour>
        <pt x="240" y="382" on="1"/>
        <pt x="105" y="365" on="1"/>
        <pt x="94" y="376" on="1"/>
        <pt x="146" y="799" on="1"/>
        <pt x="283" y="810" on="1"/>
        <pt x="295" y="797" on="1"/>
      </contour>
      <contour>
        <pt x="163" y="-245" on="1"/>
        <pt x="30" y="-256" on="1"/>
        <pt x="17" y="-240" on="1"/>
        <pt x="65" y="146" on="1"/>
        <pt x="197" y="161" on="1"/>
        <pt x="210" y="145" on="1"/>
      </contour>
    </TTGlyph>
    <TTGlyph name="bullet" xMin="38" yMin="170" xMax="306" yMax="443">
      <component glyphName="period" x="40" y="183" scale="1.37554931641" flags="0x1000"/>
    </TTGlyph>
    <TTGlyph name="bulletoperator" xMin="6" yMin="122" xMax="273" yMax="394">
      <contour>
        <pt x="207" y="394" on="0"/>
        <pt x="273" y="326" on="0"/>
        <pt x="273" y="264" on="1"/>
        <pt x="273" y="198" on="0"/>
        <pt x="199" y="122" on="0"/>
        <pt x="135" y="122" on="1"/>
        <pt x="72" y="122" on="0"/>
        <pt x="6" y="189" on="0"/>
        <pt x="6" y="252" on="1"/>
        <pt x="6" y="317" on="0"/>
        <pt x="82" y="394" on="0"/>
        <pt x="146" y="394" on="1"/>
      </contour>
    </TTGlyph>
    <TTGlyph name="c" xMin="10" yMin="-10" xMax="386" yMax="481">
      <contour>
        <pt x="386" y="437" on="1"/>
        <pt x="335" y="308" on="1"/>
        <pt x="296" y="307" on="1"/>
        <pt x="278" y="330" on="0"/>
        <pt x="259" y="346" on="0"/>
        <pt x="242" y="346" on="1"/>
        <pt x="209" y="346" on="0"/>
        <pt x="181" y="283" on="0"/>
        <pt x="181" y="216" on="1"/>
        <pt x="181" y="176" on="0"/>
        <pt x="197" y="141" on="0"/>
        <pt x="216" y="141" on="1"/>
        <pt x="231" y="141" on="0"/>
        <pt x="257" y="166" on="0"/>
        <pt x="277" y="201" on="1"/>
        <pt x="300" y="200" on="1"/>
        <pt x="356" y="130" on="1"/>
        <pt x="324" y="74" on="0"/>
        <pt x="250" y="10" on="0"/>
        <pt x="194" y="-10" on="1"/>
        <pt x="171" y="-10" on="1"/>
        <pt x="84" y="3" on="0"/>
        <pt x="10" y="97" on="0"/>
        <pt x="10" y="181" on="1"/>
        <pt x="10" y="262" on="0"/>
        <pt x="71" y="399" on="0"/>
        <pt x="199" y="481" on="0"/>
        <pt x="293" y="481" on="1"/>
        <pt x="382" y="455" on="1"/>
      </contour>
    </TTGlyph>
    <TTGlyph name="c.sups" xMin="39" yMin="314" xMax="298" yMax="649">
      <contour>
        <pt x="298" y="621" on="1"/>
        <pt x="268" y="544" on="1"/>
        <pt x="244" y="543" on="1"/>
        <pt x="222" y="568" on="0"/>
        <pt x="202" y="568" on="1"/>
        <pt x="145" y="568" on="0"/>
        <pt x="145" y="466" on="1"/>
        <pt x="145" y="433" on="0"/>
        <pt x="160" y="404" on="0"/>
        <pt x="177" y="404" on="1"/>
        <pt x="202" y="404" on="0"/>
        <pt x="229" y="449" on="1"/>
        <pt x="243" y="449" on="1"/>
        <pt x="279" y="407" on="1"/>
        <pt x="257" y="368" on="0"/>
        <pt x="205" y="326" on="0"/>
        <pt x="166" y="314" on="1"/>
        <pt x="151" y="314" on="1"/>
        <pt x="91" y="322" on="0"/>
        <pt x="39" y="385" on="0"/>
        <pt x="39" y="446" on="1"/>
        <pt x="39" y="533" on="0"/>
        <pt x="137" y="649" on="0"/>
        <pt x="233" y="649" on="1"/>
        <pt x="294" y="632" on="1"/>
      </contour>
    </TTGlyph>
    <TTGlyph name="cacute" xMin="10" yMin="-10" xMax="409" yMax="754">
      <component glyphName="c" x="0" y="0" flags="0x1000"/>
      <component glyphName="acute" x="24" y="0" flags="0x1000"/>
    </TTGlyph>
    <TTGlyph name="caron" xMin="69" yMin="526" xMax="428" yMax="747">
      <contour>
        <pt x="394" y="650" on="0"/>
        <pt x="268" y="542" on="1"/>
        <pt x="250" y="526" on="1"/>
        <pt x="216" y="526" on="1"/>
        <pt x="169" y="580" on="0"/>
        <pt x="69" y="676" on="1"/>
        <pt x="125" y="747" on="1"/>
        <pt x="143" y="747" on="1"/>
        <pt x="206" y="703" on="0"/>
        <pt x="246" y="669" on="1"/>
        <pt x="278" y="691" on="0"/>
        <pt x="354" y="736" on="1"/>
        <pt x="372" y="747" on="1"/>
        <pt x="390" y="747" on="1"/>
        <pt x="428" y="676" on="1"/>
      </contour>
    </TTGlyph>
    <TTGlyph name="caron.alt" xMin="164" yMin="501" xMax="331" yMax="756">
      <contour>
        <pt x="259" y="514" on="1"/>
        <pt x="175" y="501" on="1"/>
        <pt x="164" y="511" on="1"/>
        <pt x="183" y="748" on="1"/>
        <pt x="323" y="756" on="1"/>
        <pt x="331" y="745" on="1"/>
      </contour>
    </TTGlyph>
    <TTGlyph name="caron.cap" xMin="77" yMin="537" xMax="417" yMax="731">
      <contour>
        <pt x="328" y="597" on="0"/>
        <pt x="259" y="537" on="1"/>
        <pt x="225" y="537" on="1"/>
        <pt x="167" y="592" on="0"/>
        <pt x="77" y="656" on="1"/>
        <pt x="120" y="731" on="1"/>
        <pt x="138" y="731" on="1"/>
        <pt x="246" y="671" on="1"/>
        <pt x="295" y="695" on="0"/>
        <pt x="319" y="705" on="1"/>
        <pt x="374" y="731" on="1"/>
        <pt x="392" y="731" on="1"/>
        <pt x="417" y="656" on="1"/>
      </contour>
    </TTGlyph>
    <TTGlyph name="ccaron" xMin="10" yMin="-10" xMax="445" yMax="747">
      <component glyphName="c" x="0" y="0" flags="0x1000"/>
      <component glyphName="caron" x="17" y="0" flags="0x1000"/>
    </TTGlyph>
    <TTGlyph name="ccedilla" xMin="10" yMin="-208" xMax="385" yMax="481">
      <contour>
        <pt x="356" y="130" on="1"/>
        <pt x="327" y="80" on="0"/>
        <pt x="263" y="19" on="0"/>
        <pt x="218" y="0" on="1"/>
        <pt x="210" y="-42" on="1"/>
        <pt x="244" y="-61" on="1"/>
        <pt x="288" y="-84" on="0"/>
        <pt x="288" y="-124" on="1"/>
        <pt x="288" y="-161" on="0"/>
        <pt x="229" y="-208" on="0"/>
        <pt x="178" y="-208" on="1"/>
        <pt x="129" y="-208" on="0"/>
        <pt x="86" y="-184" on="1"/>
        <pt x="97" y="-109" on="1"/>
        <pt x="105" y="-106" on="1"/>
        <pt x="138" y="-134" on="0"/>
        <pt x="165" y="-134" on="1"/>
        <pt x="181" y="-134" on="0"/>
        <pt x="181" y="-120" on="1"/>
        <pt x="181" y="-111" on="0"/>
        <pt x="169" y="-105" on="1"/>
        <pt x="119" y="-78" on="1"/>
        <pt x="134" y="-2" on="1"/>
        <pt x="68" y="16" on="0"/>
        <pt x="10" y="106" on="0"/>
        <pt x="10" y="181" on="1"/>
        <pt x="10" y="262" on="0"/>
        <pt x="71" y="399" on="0"/>
        <pt x="199" y="481" on="0"/>
        <pt x="293" y="481" on="1"/>
        <pt x="381" y="455" on="1"/>
        <pt x="385" y="437" on="1"/>
        <pt x="335" y="308" on="1"/>
        <pt x="296" y="307" on="1"/>
        <pt x="278" y="330" on="0"/>
        <pt x="259" y="346" on="0"/>
        <pt x="242" y="346" on="1"/>
        <pt x="208" y="346" on="0"/>
        <pt x="181" y="283" on="0"/>
        <pt x="181" y="216" on="1"/>
        <pt x="181" y="176" on="0"/>
        <pt x="197" y="141" on="0"/>
        <pt x="216" y="141" on="1"/>
        <pt x="231" y="141" on="0"/>
        <pt x="257" y="167" on="0"/>
        <pt x="277" y="201" on="1"/>
        <pt x="300" y="200" on="1"/>
      </contour>
    </TTGlyph>
    <TTGlyph name="ccircumflex" xMin="10" yMin="-10" xMax="445" yMax="751">
      <component glyphName="c" x="0" y="0" flags="0x1000"/>
      <component glyphName="circumflex" x="26" y="0" flags="0x1000"/>
    </TTGlyph>
    <TTGlyph name="cdotaccent" xMin="10" yMin="-10" xMax="386" yMax="730">
      <component glyphName="c" x="0" y="0" flags="0x1000"/>
      <component glyphName="dotaccent" x="22" y="0" flags="0x1000"/>
    </TTGlyph>
    <TTGlyph name="cedilla" xMin="46" yMin="-209" xMax="248" yMax="33">
      <contour>
        <pt x="204" y="-62" on="1"/>
        <pt x="248" y="-85" on="0"/>
        <pt x="248" y="-125" on="1"/>
        <pt x="248" y="-162" on="0"/>
        <pt x="189" y="-209" on="0"/>
        <pt x="138" y="-209" on="1"/>
        <pt x="89" y="-209" on="0"/>
        <pt x="46" y="-185" on="1"/>
        <pt x="57" y="-110" on="1"/>
        <pt x="65" y="-107" on="1"/>
        <pt x="98" y="-135" on="0"/>
        <pt x="125" y="-135" on="1"/>
        <pt x="141" y="-135" on="0"/>
        <pt x="141" y="-121" on="1"/>
        <pt x="141" y="-112" on="0"/>
        <pt x="129" y="-106" on="1"/>
        <pt x="79" y="-79" on="1"/>
        <pt x="101" y="33" on="1"/>
        <pt x="184" y="33" on="1"/>
        <pt x="170" y="-43" on="1"/>
      </contour>
    </TTGlyph>
    <TTGlyph name="cent" xMin="13" yMin="-127" xMax="392" yMax="660">
      <contour>
        <pt x="365" y="166" on="1"/>
        <pt x="315" y="82" on="0"/>
        <pt x="244" y="47" on="1"/>
        <pt x="219" y="-127" on="1"/>
        <pt x="122" y="-127" on="1"/>
        <pt x="111" y="-113" on="1"/>
        <pt x="132" y="39" on="1"/>
        <pt x="69" y="58" on="0"/>
        <pt x="13" y="148" on="0"/>
        <pt x="13" y="224" on="1"/>
        <pt x="13" y="325" on="0"/>
        <pt x="108" y="477" on="0"/>
        <pt x="201" y="504" on="1"/>
        <pt x="223" y="660" on="1"/>
        <pt x="317" y="660" on="1"/>
        <pt x="332" y="646" on="1"/>
        <pt x="313" y="512" on="1"/>
        <pt x="386" y="492" on="1"/>
        <pt x="392" y="475" on="1"/>
        <pt x="347" y="357" on="1"/>
        <pt x="311" y="356" on="1"/>
        <pt x="293" y="376" on="0"/>
        <pt x="268" y="393" on="0"/>
        <pt x="251" y="393" on="1"/>
        <pt x="170" y="393" on="0"/>
        <pt x="170" y="256" on="1"/>
        <pt x="170" y="210" on="0"/>
        <pt x="192" y="168" on="0"/>
        <pt x="217" y="168" on="1"/>
        <pt x="235" y="168" on="0"/>
        <pt x="268" y="196" on="0"/>
        <pt x="290" y="232" on="1"/>
        <pt x="311" y="231" on="1"/>
      </contour>
    </TTGlyph>
    <TTGlyph name="circle1" xMin="-2" yMin="-12" xMax="474" yMax="464">
      <contour>
        <pt x="300" y="464" on="0"/>
        <pt x="410" y="400" on="0"/>
        <pt x="474" y="290" on="0"/>
        <pt x="474" y="226" on="1"/>
        <pt x="474" y="162" on="0"/>
        <pt x="410" y="52" on="0"/>
        <pt x="300" y="-12" on="0"/>
        <pt x="236" y="-12" on="1"/>
        <pt x="172" y="-12" on="0"/>
        <pt x="62" y="52" on="0"/>
        <pt x="-2" y="162" on="0"/>
        <pt x="-2" y="226" on="1"/>
        <pt x="-2" y="290" on="0"/>
        <pt x="62" y="400" on="0"/>
        <pt x="172" y="464" on="0"/>
        <pt x="236" y="464" on="1"/>
      </contour>
    </TTGlyph>
    <TTGlyph name="circle2" xMin="-8" yMin="-14" xMax="655" yMax="649">
      <contour>
        <pt x="413" y="649" on="0"/>
        <pt x="566" y="560" on="0"/>
        <pt x="655" y="407" on="0"/>
        <pt x="655" y="317" on="1"/>
        <pt x="655" y="227" on="0"/>
        <pt x="566" y="75" on="0"/>
        <pt x="413" y="-14" on="0"/>
        <pt x="323" y="-14" on="1"/>
        <pt x="233" y="-14" on="0"/>
        <pt x="81" y="75" on="0"/>
        <pt x="-8" y="227" on="0"/>
        <pt x="-8" y="317" on="1"/>
        <pt x="-8" y="407" on="0"/>
        <pt x="81" y="560" on="0"/>
        <pt x="233" y="649" on="0"/>
        <pt x="323" y="649" on="1"/>
      </contour>
    </TTGlyph>
    <TTGlyph name="circumflex" xMin="60" yMin="530" xMax="419" yMax="751">
      <contour>
        <pt x="116" y="645" on="0"/>
        <pt x="238" y="751" on="1"/>
        <pt x="272" y="751" on="1"/>
        <pt x="324" y="692" on="0"/>
        <pt x="419" y="602" on="1"/>
        <pt x="363" y="530" on="1"/>
        <pt x="345" y="530" on="1"/>
        <pt x="271" y="582" on="0"/>
        <pt x="240" y="608" on="1"/>
        <pt x="204" y="582" on="0"/>
        <pt x="116" y="530" on="1"/>
        <pt x="98" y="530" on="1"/>
        <pt x="60" y="602" on="1"/>
      </contour>
    </TTGlyph>
    <TTGlyph name="circumflex.cap" xMin="72" yMin="545" xMax="412" yMax="739">
      <contour>
        <pt x="171" y="688" on="0"/>
        <pt x="230" y="739" on="1"/>
        <pt x="264" y="739" on="1"/>
        <pt x="322" y="684" on="0"/>
        <pt x="412" y="621" on="1"/>
        <pt x="369" y="545" on="1"/>
        <pt x="351" y="545" on="1"/>
        <pt x="243" y="605" on="1"/>
        <pt x="223" y="595" on="0"/>
        <pt x="179" y="575" on="1"/>
        <pt x="115" y="545" on="1"/>
        <pt x="97" y="545" on="1"/>
        <pt x="72" y="621" on="1"/>
      </contour>
    </TTGlyph>
    <TTGlyph name="circumflexacute" xMin="73" yMin="526" xMax="494" yMax="876">
      <contour>
        <pt x="494" y="822" on="1"/>
        <pt x="384" y="674" on="1"/>
        <pt x="373" y="674" on="1"/>
        <pt x="310" y="720" on="1"/>
        <pt x="380" y="869" on="1"/>
        <pt x="392" y="876" on="1"/>
        <pt x="489" y="835" on="1"/>
      </contour>
      <contour>
        <pt x="321" y="666" on="0"/>
        <pt x="412" y="602" on="1"/>
        <pt x="370" y="526" on="1"/>
        <pt x="352" y="526" on="1"/>
        <pt x="244" y="586" on="1"/>
        <pt x="224" y="576" on="0"/>
        <pt x="180" y="556" on="1"/>
        <pt x="116" y="526" on="1"/>
        <pt x="98" y="526" on="1"/>
        <pt x="73" y="602" on="1"/>
        <pt x="172" y="669" on="0"/>
        <pt x="231" y="720" on="1"/>
        <pt x="265" y="720" on="1"/>
      </contour>
    </TTGlyph>
    <TTGlyph name="circumflexgrave" xMin="66" yMin="525" xMax="426" yMax="876">
      <contour>
        <pt x="426" y="720" on="1"/>
        <pt x="363" y="674" on="1"/>
        <pt x="352" y="674" on="1"/>
        <pt x="242" y="822" on="1"/>
        <pt x="247" y="835" on="1"/>
        <pt x="345" y="876" on="1"/>
        <pt x="356" y="869" on="1"/>
      </contour>
      <contour>
        <pt x="316" y="664" on="0"/>
        <pt x="406" y="601" on="1"/>
        <pt x="363" y="525" on="1"/>
        <pt x="345" y="525" on="1"/>
        <pt x="237" y="585" on="1"/>
        <pt x="217" y="575" on="0"/>
        <pt x="173" y="555" on="1"/>
        <pt x="109" y="525" on="1"/>
        <pt x="91" y="525" on="1"/>
        <pt x="66" y="601" on="1"/>
        <pt x="165" y="668" on="0"/>
        <pt x="224" y="719" on="1"/>
        <pt x="258" y="719" on="1"/>
      </contour>
    </TTGlyph>
    <TTGlyph name="circumflexhookabove" xMin="67" yMin="526" xMax="440" yMax="925">
      <contour>
        <pt x="386" y="925" on="0"/>
        <pt x="440" y="879" on="0"/>
        <pt x="440" y="841" on="1"/>
        <pt x="440" y="821" on="0"/>
        <pt x="415" y="784" on="0"/>
        <pt x="382" y="754" on="1"/>
        <pt x="407" y="713" on="1"/>
        <pt x="346" y="676" on="1"/>
        <pt x="295" y="752" on="1"/>
        <pt x="318" y="768" on="0"/>
        <pt x="346" y="808" on="0"/>
        <pt x="346" y="824" on="1"/>
        <pt x="346" y="847" on="0"/>
        <pt x="318" y="847" on="1"/>
        <pt x="284" y="847" on="0"/>
        <pt x="251" y="822" on="1"/>
        <pt x="224" y="867" on="1"/>
        <pt x="248" y="894" on="0"/>
        <pt x="313" y="925" on="0"/>
        <pt x="345" y="925" on="1"/>
      </contour>
      <contour>
        <pt x="317" y="665" on="0"/>
        <pt x="407" y="602" on="1"/>
        <pt x="364" y="526" on="1"/>
        <pt x="346" y="526" on="1"/>
        <pt x="238" y="586" on="1"/>
        <pt x="218" y="576" on="0"/>
        <pt x="174" y="556" on="1"/>
        <pt x="110" y="526" on="1"/>
        <pt x="92" y="526" on="1"/>
        <pt x="67" y="602" on="1"/>
        <pt x="166" y="669" on="0"/>
        <pt x="225" y="720" on="1"/>
        <pt x="259" y="720" on="1"/>
      </contour>
    </TTGlyph>
    <TTGlyph name="circumflextilde" xMin="72" yMin="527" xMax="450" yMax="905">
      <contour>
        <pt x="450" y="840" on="1"/>
        <pt x="377" y="738" on="1"/>
        <pt x="362" y="733" on="1"/>
        <pt x="339" y="736" on="0"/>
        <pt x="283" y="751" on="1"/>
        <pt x="237" y="764" on="0"/>
        <pt x="223" y="764" on="1"/>
        <pt x="209" y="764" on="0"/>
        <pt x="185" y="743" on="0"/>
        <pt x="164" y="716" on="0"/>
        <pt x="160" y="711" on="1"/>
        <pt x="146" y="711" on="1"/>
        <pt x="94" y="760" on="1"/>
        <pt x="94" y="775" on="1"/>
        <pt x="168" y="877" on="1"/>
        <pt x="182" y="883" on="1"/>
        <pt x="204" y="880" on="0"/>
        <pt x="258" y="865" on="1"/>
        <pt x="308" y="852" on="0"/>
        <pt x="321" y="852" on="1"/>
        <pt x="337" y="852" on="0"/>
        <pt x="361" y="876" on="0"/>
        <pt x="384" y="905" on="1"/>
        <pt x="399" y="905" on="1"/>
        <pt x="450" y="855" on="1"/>
      </contour>
      <contour>
        <pt x="320" y="667" on="0"/>
        <pt x="411" y="603" on="1"/>
        <pt x="369" y="527" on="1"/>
        <pt x="351" y="527" on="1"/>
        <pt x="243" y="587" on="1"/>
        <pt x="223" y="577" on="0"/>
        <pt x="179" y="557" on="1"/>
        <pt x="115" y="527" on="1"/>
        <pt x="97" y="527" on="1"/>
        <pt x="72" y="603" on="1"/>
        <pt x="171" y="670" on="0"/>
        <pt x="230" y="721" on="1"/>
        <pt x="264" y="721" on="1"/>
      </contour>
    </TTGlyph>
    <TTGlyph name="colon" xMin="-1" yMin="-9" xMax="225" yMax="444">
      <component glyphName="period" x="0" y="0" flags="0x1000"/>
      <component glyphName="period" x="32" y="255" flags="0x1000"/>
    </TTGlyph>
    <TTGlyph name="comma" xMin="-20" yMin="-142" xMax="194" yMax="182">
      <contour>
        <pt x="194" y="136" on="0"/>
        <pt x="194" y="76" on="1"/>
        <pt x="194" y="18" on="0"/>
        <pt x="121" y="-88" on="0"/>
        <pt x="43" y="-142" on="1"/>
        <pt x="-18" y="-89" on="1"/>
        <pt x="-20" y="-75" on="1"/>
        <pt x="36" y="-26" on="0"/>
        <pt x="36" y="34" on="1"/>
        <pt x="36" y="76" on="0"/>
        <pt x="3" y="108" on="1"/>
        <pt x="4" y="124" on="1"/>
        <pt x="76" y="164" on="0"/>
        <pt x="147" y="182" on="1"/>
      </contour>
    </TTGlyph>
    <TTGlyph name="commaaccentcomb" xMin="46" yMin="-311" xMax="231" yMax="-33">
      <contour>
        <pt x="231" y="-73" on="0"/>
        <pt x="231" y="-124" on="1"/>
        <pt x="231" y="-222" on="0"/>
        <pt x="100" y="-311" on="1"/>
        <pt x="48" y="-266" on="1"/>
        <pt x="46" y="-254" on="1"/>
        <pt x="94" y="-213" on="0"/>
        <pt x="94" y="-161" on="1"/>
        <pt x="94" y="-124" on="0"/>
        <pt x="66" y="-96" on="1"/>
        <pt x="67" y="-83" on="1"/>
        <pt x="126" y="-49" on="0"/>
        <pt x="190" y="-33" on="1"/>
      </contour>
    </TTGlyph>
    <TTGlyph name="copyright" xMin="50" yMin="-12" xMax="659" yMax="598">
      <contour>
        <pt x="445" y="598" on="0"/>
        <pt x="583" y="522" on="0"/>
        <pt x="659" y="384" on="0"/>
        <pt x="659" y="293" on="1"/>
        <pt x="659" y="202" on="0"/>
        <pt x="583" y="64" on="0"/>
        <pt x="445" y="-12" on="0"/>
        <pt x="354" y="-12" on="1"/>
        <pt x="264" y="-12" on="0"/>
        <pt x="126" y="64" on="0"/>
        <pt x="50" y="202" on="0"/>
        <pt x="50" y="293" on="1"/>
        <pt x="50" y="384" on="0"/>
        <pt x="126" y="522" on="0"/>
        <pt x="264" y="598" on="0"/>
        <pt x="354" y="598" on="1"/>
      </contour>
      <contour>
        <pt x="283" y="537" on="0"/>
        <pt x="173" y="476" on="0"/>
        <pt x="112" y="365" on="0"/>
        <pt x="112" y="293" on="1"/>
        <pt x="112" y="221" on="0"/>
        <pt x="173" y="110" on="0"/>
        <pt x="283" y="49" on="0"/>
        <pt x="354" y="49" on="1"/>
        <pt x="426" y="49" on="0"/>
        <pt x="536" y="110" on="0"/>
        <pt x="597" y="221" on="0"/>
        <pt x="597" y="293" on="1"/>
        <pt x="597" y="365" on="0"/>
        <pt x="536" y="476" on="0"/>
        <pt x="426" y="537" on="0"/>
        <pt x="354" y="537" on="1"/>
      </contour>
      <contour>
        <pt x="421" y="464" on="0"/>
        <pt x="468" y="455" on="1"/>
        <pt x="446" y="355" on="1"/>
        <pt x="439" y="350" on="1"/>
        <pt x="414" y="362" on="0"/>
        <pt x="379" y="362" on="1"/>
        <pt x="353" y="362" on="0"/>
        <pt x="332" y="339" on="0"/>
        <pt x="332" y="307" on="1"/>
        <pt x="332" y="267" on="0"/>
        <pt x="358" y="231" on="0"/>
        <pt x="388" y="231" on="1"/>
        <pt x="418" y="231" on="0"/>
        <pt x="446" y="236" on="1"/>
        <pt x="456" y="230" on="1"/>
        <pt x="446" y="131" on="1"/>
        <pt x="434" y="129" on="0"/>
        <pt x="411" y="129" on="1"/>
        <pt x="378" y="129" on="1"/>
        <pt x="199" y="129" on="0"/>
        <pt x="199" y="292" on="1"/>
        <pt x="199" y="373" on="0"/>
        <pt x="296" y="464" on="0"/>
        <pt x="384" y="464" on="1"/>
      </contour>
    </TTGlyph>
    <TTGlyph name="currency" xMin="-17" yMin="108" xMax="474" yMax="574">
      <contour>
        <pt x="472" y="474" on="1"/>
        <pt x="393" y="413" on="1"/>
        <pt x="402" y="388" on="0"/>
        <pt x="402" y="356" on="1"/>
        <pt x="402" y="316" on="0"/>
        <pt x="380" y="274" on="1"/>
        <pt x="445" y="219" on="1"/>
        <pt x="446" y="202" on="1"/>
        <pt x="351" y="114" on="1"/>
        <pt x="335" y="114" on="1"/>
        <pt x="285" y="185" on="1"/>
        <pt x="248" y="166" on="0"/>
        <pt x="207" y="166" on="1"/>
        <pt x="174" y="166" on="0"/>
        <pt x="141" y="181" on="1"/>
        <pt x="79" y="111" on="1"/>
        <pt x="61" y="108" on="1"/>
        <pt x="-17" y="191" on="1"/>
        <pt x="-14" y="207" on="1"/>
        <pt x="63" y="266" on="1"/>
        <pt x="54" y="290" on="0"/>
        <pt x="54" y="322" on="1"/>
        <pt x="54" y="366" on="0"/>
        <pt x="77" y="407" on="1"/>
        <pt x="14" y="462" on="1"/>
        <pt x="14" y="479" on="1"/>
        <pt x="108" y="568" on="1"/>
        <pt x="124" y="567" on="1"/>
        <pt x="175" y="496" on="1"/>
        <pt x="212" y="512" on="0"/>
        <pt x="249" y="512" on="1"/>
        <pt x="281" y="512" on="0"/>
        <pt x="312" y="499" on="1"/>
        <pt x="378" y="571" on="1"/>
        <pt x="396" y="574" on="1"/>
        <pt x="474" y="490" on="1"/>
      </contour>
      <contour>
        <pt x="200" y="411" on="0"/>
        <pt x="155" y="367" on="0"/>
        <pt x="155" y="329" on="1"/>
        <pt x="155" y="300" on="0"/>
        <pt x="188" y="267" on="0"/>
        <pt x="219" y="267" on="1"/>
        <pt x="257" y="267" on="0"/>
        <pt x="301" y="312" on="0"/>
        <pt x="301" y="349" on="1"/>
        <pt x="301" y="378" on="0"/>
        <pt x="267" y="411" on="0"/>
        <pt x="237" y="411" on="1"/>
      </contour>
    </TTGlyph>
    <TTGlyph name="d" xMin="7" yMin="-11" xMax="501" yMax="704">
      <contour>
        <pt x="423" y="116" on="1"/>
        <pt x="419" y="7" on="1"/>
        <pt x="242" y="-4" on="1"/>
        <pt x="257" y="108" on="1"/>
        <pt x="244" y="108" on="1"/>
        <pt x="206" y="36" on="0"/>
        <pt x="167" y="-11" on="1"/>
        <pt x="144" y="-11" on="1"/>
        <pt x="66" y="8" on="0"/>
        <pt x="7" y="90" on="0"/>
        <pt x="7" y="155" on="1"/>
        <pt x="7" y="219" on="0"/>
        <pt x="60" y="347" on="0"/>
        <pt x="170" y="451" on="0"/>
        <pt x="251" y="478" on="1"/>
        <pt x="258" y="478" on="1"/>
        <pt x="305" y="470" on="1"/>
        <pt x="320" y="580" on="1"/>
        <pt x="324" y="693" on="1"/>
        <pt x="501" y="704" on="1"/>
      </contour>
      <contour>
        <pt x="220" y="150" on="0"/>
        <pt x="282" y="295" on="1"/>
        <pt x="287" y="332" on="1"/>
        <pt x="223" y="349" on="1"/>
        <pt x="170" y="349" on="0"/>
        <pt x="170" y="227" on="1"/>
        <pt x="170" y="150" on="0"/>
        <pt x="191" y="150" on="1"/>
      </contour>
    </TTGlyph>
    <TTGlyph name="d.sups" xMin="35" yMin="313" xMax="371" yMax="813">
      <contour>
        <pt x="316" y="399" on="1"/>
        <pt x="313" y="324" on="1"/>
        <pt x="203" y="317" on="1"/>
        <pt x="216" y="412" on="1"/>
        <pt x="207" y="412" on="1"/>
        <pt x="171" y="348" on="0"/>
        <pt x="139" y="313" on="1"/>
        <pt x="124" y="313" on="1"/>
        <pt x="74" y="326" on="0"/>
        <pt x="35" y="381" on="0"/>
        <pt x="35" y="425" on="1"/>
        <pt x="35" y="497" on="0"/>
        <pt x="123" y="624" on="0"/>
        <pt x="206" y="647" on="1"/>
        <pt x="211" y="647" on="1"/>
        <pt x="246" y="642" on="1"/>
        <pt x="258" y="730" on="1"/>
        <pt x="260" y="806" on="1"/>
        <pt x="371" y="813" on="1"/>
      </contour>
      <contour>
        <pt x="177" y="410" on="0"/>
        <pt x="231" y="530" on="1"/>
        <pt x="235" y="560" on="1"/>
        <pt x="190" y="570" on="1"/>
        <pt x="164" y="570" on="0"/>
        <pt x="136" y="515" on="0"/>
        <pt x="136" y="468" on="1"/>
        <pt x="136" y="410" on="0"/>
        <pt x="153" y="410" on="1"/>
      </contour>
    </TTGlyph>
    <TTGlyph name="dagger" xMin="45" yMin="-94" xMax="509" yMax="593">
      <contour>
        <pt x="329" y="295" on="1"/>
        <pt x="328" y="291" on="1"/>
        <pt x="283" y="-85" on="1"/>
        <pt x="164" y="-94" on="1"/>
        <pt x="154" y="-81" on="1"/>
        <pt x="198" y="279" on="1"/>
        <pt x="200" y="295" on="1"/>
        <pt x="56" y="295" on="1"/>
        <pt x="45" y="307" on="1"/>
        <pt x="69" y="422" on="1"/>
        <pt x="216" y="422" on="1"/>
        <pt x="236" y="584" on="1"/>
        <pt x="360" y="593" on="1"/>
        <pt x="368" y="582" on="1"/>
        <pt x="346" y="422" on="1"/>
        <pt x="499" y="422" on="1"/>
        <pt x="509" y="409" on="1"/>
        <pt x="486" y="295" on="1"/>
      </contour>
    </TTGlyph>
    <TTGlyph name="daggerdbl" xMin="16" yMin="-94" xMax="511" yMax="593">
      <contour>
        <pt x="315" y="179" on="1"/>
        <pt x="469" y="179" on="1"/>
        <pt x="479" y="166" on="1"/>
        <pt x="456" y="51" on="1"/>
        <pt x="300" y="51" on="1"/>
        <pt x="283" y="-85" on="1"/>
        <pt x="164" y="-94" on="1"/>
        <pt x="154" y="-81" on="1"/>
        <pt x="170" y="51" on="1"/>
        <pt x="26" y="51" on="1"/>
        <pt x="16" y="64" on="1"/>
        <pt x="39" y="179" on="1"/>
        <pt x="186" y="179" on="1"/>
        <pt x="198" y="279" on="1"/>
        <pt x="202" y="311" on="1"/>
        <pt x="58" y="311" on="1"/>
        <pt x="48" y="324" on="1"/>
        <pt x="71" y="439" on="1"/>
        <pt x="218" y="439" on="1"/>
        <pt x="237" y="584" on="1"/>
        <pt x="360" y="593" on="1"/>
        <pt x="368" y="582" on="1"/>
        <pt x="349" y="439" on="1"/>
        <pt x="501" y="439" on="1"/>
        <pt x="511" y="426" on="1"/>
        <pt x="488" y="311" on="1"/>
        <pt x="332" y="311" on="1"/>
        <pt x="329" y="291" on="1"/>
      </contour>
    </TTGlyph>
    <TTGlyph name="dcaron" xMin="7" yMin="-11" xMax="677" yMax="704">
      <contour>
        <pt x="501" y="704" on="1"/>
        <pt x="423" y="116" on="1"/>
        <pt x="419" y="7" on="1"/>
        <pt x="242" y="-4" on="1"/>
        <pt x="257" y="108" on="1"/>
        <pt x="244" y="108" on="1"/>
        <pt x="206" y="35" on="0"/>
        <pt x="166" y="-11" on="1"/>
        <pt x="143" y="-11" on="1"/>
        <pt x="66" y="8" on="0"/>
        <pt x="7" y="90" on="0"/>
        <pt x="7" y="155" on="1"/>
        <pt x="7" y="219" on="0"/>
        <pt x="60" y="347" on="0"/>
        <pt x="170" y="451" on="0"/>
        <pt x="251" y="478" on="1"/>
        <pt x="258" y="478" on="1"/>
        <pt x="305" y="470" on="1"/>
        <pt x="320" y="580" on="1"/>
        <pt x="324" y="693" on="1"/>
      </contour>
      <contour>
        <pt x="605" y="393" on="1"/>
        <pt x="522" y="380" on="1"/>
        <pt x="511" y="390" on="1"/>
        <pt x="530" y="627" on="1"/>
        <pt x="669" y="635" on="1"/>
        <pt x="677" y="624" on="1"/>
      </contour>
      <contour>
        <pt x="220" y="150" on="0"/>
        <pt x="282" y="295" on="1"/>
        <pt x="287" y="332" on="1"/>
        <pt x="223" y="349" on="1"/>
        <pt x="170" y="349" on="0"/>
        <pt x="170" y="227" on="1"/>
        <pt x="170" y="150" on="0"/>
        <pt x="191" y="150" on="1"/>
      </contour>
    </TTGlyph>
    <TTGlyph name="dcroat" xMin="7" yMin="-11" xMax="560" yMax="704">
      <contour>
        <pt x="477" y="524" on="1"/>
        <pt x="423" y="116" on="1"/>
        <pt x="419" y="7" on="1"/>
        <pt x="242" y="-4" on="1"/>
        <pt x="257" y="108" on="1"/>
        <pt x="244" y="108" on="1"/>
        <pt x="206" y="35" on="0"/>
        <pt x="166" y="-11" on="1"/>
        <pt x="143" y="-11" on="1"/>
        <pt x="66" y="8" on="0"/>
        <pt x="7" y="90" on="0"/>
        <pt x="7" y="155" on="1"/>
        <pt x="7" y="219" on="0"/>
        <pt x="60" y="347" on="0"/>
        <pt x="170" y="451" on="0"/>
        <pt x="251" y="478" on="1"/>
        <pt x="258" y="478" on="1"/>
        <pt x="305" y="470" on="1"/>
        <pt x="313" y="524" on="1"/>
        <pt x="205" y="524" on="1"/>
        <pt x="193" y="537" on="1"/>
        <pt x="200" y="625" on="1"/>
        <pt x="322" y="625" on="1"/>
        <pt x="324" y="693" on="1"/>
        <pt x="501" y="704" on="1"/>
        <pt x="491" y="625" on="1"/>
        <pt x="548" y="625" on="1"/>
        <pt x="560" y="612" on="1"/>
        <pt x="553" y="524" on="1"/>
      </contour>
      <contour>
        <pt x="220" y="150" on="0"/>
        <pt x="282" y="295" on="1"/>
        <pt x="287" y="332" on="1"/>
        <pt x="223" y="349" on="1"/>
        <pt x="170" y="349" on="0"/>
        <pt x="170" y="227" on="1"/>
        <pt x="170" y="150" on="0"/>
        <pt x="191" y="150" on="1"/>
      </contour>
    </TTGlyph>
    <TTGlyph name="degree" xMin="46" yMin="389" xMax="318" yMax="659">
      <contour>
        <pt x="250" y="659" on="0"/>
        <pt x="318" y="589" on="0"/>
        <pt x="318" y="538" on="1"/>
        <pt x="318" y="498" on="0"/>
        <pt x="276" y="429" on="0"/>
        <pt x="205" y="389" on="0"/>
        <pt x="165" y="389" on="1"/>
        <pt x="114" y="389" on="0"/>
        <pt x="46" y="459" on="0"/>
        <pt x="46" y="510" on="1"/>
        <pt x="46" y="550" on="0"/>
        <pt x="88" y="619" on="0"/>
        <pt x="158" y="659" on="0"/>
        <pt x="198" y="659" on="1"/>
      </contour>
      <contour>
        <pt x="161" y="580" on="0"/>
        <pt x="125" y="545" on="0"/>
        <pt x="125" y="517" on="1"/>
        <pt x="125" y="494" on="0"/>
        <pt x="152" y="468" on="0"/>
        <pt x="175" y="468" on="1"/>
        <pt x="202" y="468" on="0"/>
        <pt x="238" y="503" on="0"/>
        <pt x="238" y="531" on="1"/>
        <pt x="238" y="553" on="0"/>
        <pt x="211" y="580" on="0"/>
        <pt x="189" y="580" on="1"/>
      </contour>
    </TTGlyph>
    <TTGlyph name="dieresis" xMin="62" yMin="543" xMax="424" yMax="715">
      <contour>
        <pt x="188" y="715" on="0"/>
        <pt x="231" y="673" on="0"/>
        <pt x="231" y="634" on="1"/>
        <pt x="231" y="592" on="0"/>
        <pt x="184" y="543" on="0"/>
        <pt x="143" y="543" on="1"/>
        <pt x="103" y="543" on="0"/>
        <pt x="62" y="586" on="0"/>
        <pt x="62" y="626" on="1"/>
        <pt x="62" y="668" on="0"/>
        <pt x="109" y="715" on="0"/>
        <pt x="150" y="715" on="1"/>
      </contour>
      <contour>
        <pt x="382" y="715" on="0"/>
        <pt x="424" y="672" on="0"/>
        <pt x="424" y="634" on="1"/>
        <pt x="424" y="592" on="0"/>
        <pt x="377" y="543" on="0"/>
        <pt x="337" y="543" on="1"/>
        <pt x="297" y="543" on="0"/>
        <pt x="255" y="586" on="0"/>
        <pt x="255" y="626" on="1"/>
        <pt x="255" y="668" on="0"/>
        <pt x="303" y="715" on="0"/>
        <pt x="344" y="715" on="1"/>
      </contour>
    </TTGlyph>
    <TTGlyph name="dieresis.i" xMin="67" yMin="543" xMax="419" yMax="715">
      <contour>
        <pt x="193" y="715" on="0"/>
        <pt x="236" y="672" on="0"/>
        <pt x="236" y="633" on="1"/>
        <pt x="236" y="592" on="0"/>
        <pt x="188" y="543" on="0"/>
        <pt x="148" y="543" on="1"/>
        <pt x="109" y="543" on="0"/>
        <pt x="67" y="585" on="0"/>
        <pt x="67" y="625" on="1"/>
        <pt x="67" y="667" on="0"/>
        <pt x="114" y="715" on="0"/>
        <pt x="155" y="715" on="1"/>
      </contour>
      <contour>
        <pt x="377" y="715" on="0"/>
        <pt x="419" y="672" on="0"/>
        <pt x="419" y="633" on="1"/>
        <pt x="419" y="592" on="0"/>
        <pt x="372" y="543" on="0"/>
        <pt x="332" y="543" on="1"/>
        <pt x="292" y="543" on="0"/>
        <pt x="250" y="585" on="0"/>
        <pt x="250" y="625" on="1"/>
        <pt x="250" y="667" on="0"/>
        <pt x="298" y="715" on="0"/>
        <pt x="339" y="715" on="1"/>
      </contour>
    </TTGlyph>
    <TTGlyph name="dieresisacute" xMin="61" yMin="524" xMax="421" yMax="907">
      <contour>
        <pt x="392" y="777" on="1"/>
        <pt x="383" y="762" on="1"/>
        <pt x="234" y="744" on="0"/>
        <pt x="137" y="735" on="1"/>
        <pt x="121" y="742" on="1"/>
        <pt x="105" y="825" on="1"/>
        <pt x="235" y="864" on="0"/>
        <pt x="348" y="907" on="1"/>
        <pt x="364" y="900" on="1"/>
      </contour>
      <contour>
        <pt x="187" y="696" on="0"/>
        <pt x="229" y="653" on="0"/>
        <pt x="229" y="615" on="1"/>
        <pt x="229" y="573" on="0"/>
        <pt x="182" y="524" on="0"/>
        <pt x="142" y="524" on="1"/>
        <pt x="102" y="524" on="0"/>
        <pt x="61" y="567" on="0"/>
        <pt x="61" y="607" on="1"/>
        <pt x="61" y="648" on="0"/>
        <pt x="108" y="696" on="0"/>
        <pt x="149" y="696" on="1"/>
      </contour>
      <contour>
        <pt x="380" y="696" on="0"/>
        <pt x="421" y="653" on="0"/>
        <pt x="421" y="615" on="1"/>
        <pt x="421" y="573" on="0"/>
        <pt x="375" y="524" on="0"/>
        <pt x="335" y="524" on="1"/>
        <pt x="295" y="524" on="0"/>
        <pt x="253" y="567" on="0"/>
        <pt x="253" y="607" on="1"/>
        <pt x="253" y="648" on="0"/>
        <pt x="301" y="696" on="0"/>
        <pt x="342" y="696" on="1"/>
      </contour>
    </TTGlyph>
    <TTGlyph name="dieresiscaron" xMin="67" yMin="524" xMax="427" yMax="894">
      <contour>
        <pt x="334" y="761" on="0"/>
        <pt x="263" y="700" on="1"/>
        <pt x="229" y="700" on="1"/>
        <pt x="170" y="755" on="0"/>
        <pt x="81" y="818" on="1"/>
        <pt x="124" y="894" on="1"/>
        <pt x="142" y="894" on="1"/>
        <pt x="250" y="834" on="1"/>
        <pt x="299" y="858" on="0"/>
        <pt x="323" y="868" on="1"/>
        <pt x="378" y="894" on="1"/>
        <pt x="396" y="894" on="1"/>
        <pt x="421" y="818" on="1"/>
      </contour>
      <contour>
        <pt x="193" y="696" on="0"/>
        <pt x="235" y="653" on="0"/>
        <pt x="235" y="615" on="1"/>
        <pt x="235" y="573" on="0"/>
        <pt x="188" y="524" on="0"/>
        <pt x="148" y="524" on="1"/>
        <pt x="108" y="524" on="0"/>
        <pt x="67" y="567" on="0"/>
        <pt x="67" y="607" on="1"/>
        <pt x="67" y="648" on="0"/>
        <pt x="114" y="696" on="0"/>
        <pt x="155" y="696" on="1"/>
      </contour>
      <contour>
        <pt x="385" y="696" on="0"/>
        <pt x="427" y="653" on="0"/>
        <pt x="427" y="615" on="1"/>
        <pt x="427" y="573" on="0"/>
        <pt x="381" y="524" on="0"/>
        <pt x="341" y="524" on="1"/>
        <pt x="301" y="524" on="0"/>
        <pt x="259" y="567" on="0"/>
        <pt x="259" y="607" on="1"/>
        <pt x="259" y="648" on="0"/>
        <pt x="307" y="696" on="0"/>
        <pt x="348" y="696" on="1"/>
      </contour>
    </TTGlyph>
    <TTGlyph name="dieresisgrave" xMin="60" yMin="524" xMax="420" yMax="907">
      <contour>
        <pt x="283" y="865" on="0"/>
        <pt x="408" y="825" on="1"/>
        <pt x="382" y="742" on="1"/>
        <pt x="365" y="735" on="1"/>
        <pt x="267" y="744" on="0"/>
        <pt x="123" y="762" on="1"/>
        <pt x="115" y="777" on="1"/>
        <pt x="159" y="900" on="1"/>
        <pt x="175" y="907" on="1"/>
      </contour>
      <contour>
        <pt x="186" y="696" on="0"/>
        <pt x="228" y="654" on="0"/>
        <pt x="228" y="615" on="1"/>
        <pt x="228" y="573" on="0"/>
        <pt x="181" y="524" on="0"/>
        <pt x="141" y="524" on="1"/>
        <pt x="101" y="524" on="0"/>
        <pt x="60" y="567" on="0"/>
        <pt x="60" y="607" on="1"/>
        <pt x="60" y="648" on="0"/>
        <pt x="107" y="696" on="0"/>
        <pt x="148" y="696" on="1"/>
      </contour>
      <contour>
        <pt x="379" y="696" on="0"/>
        <pt x="420" y="654" on="0"/>
        <pt x="420" y="615" on="1"/>
        <pt x="420" y="573" on="0"/>
        <pt x="374" y="524" on="0"/>
        <pt x="334" y="524" on="1"/>
        <pt x="294" y="524" on="0"/>
        <pt x="252" y="567" on="0"/>
        <pt x="252" y="607" on="1"/>
        <pt x="252" y="648" on="0"/>
        <pt x="300" y="696" on="0"/>
        <pt x="341" y="696" on="1"/>
      </contour>
    </TTGlyph>
    <TTGlyph name="dieresismacron" xMin="61" yMin="524" xMax="422" yMax="863">
      <contour>
        <pt x="405" y="744" on="1"/>
        <pt x="102" y="744" on="1"/>
        <pt x="89" y="756" on="1"/>
        <pt x="99" y="863" on="1"/>
        <pt x="402" y="863" on="1"/>
        <pt x="415" y="850" on="1"/>
      </contour>
      <contour>
        <pt x="187" y="696" on="0"/>
        <pt x="229" y="653" on="0"/>
        <pt x="229" y="615" on="1"/>
        <pt x="229" y="573" on="0"/>
        <pt x="182" y="524" on="0"/>
        <pt x="142" y="524" on="1"/>
        <pt x="103" y="524" on="0"/>
        <pt x="61" y="567" on="0"/>
        <pt x="61" y="607" on="1"/>
        <pt x="61" y="648" on="0"/>
        <pt x="108" y="696" on="0"/>
        <pt x="149" y="696" on="1"/>
      </contour>
      <contour>
        <pt x="380" y="696" on="0"/>
        <pt x="422" y="653" on="0"/>
        <pt x="422" y="615" on="1"/>
        <pt x="422" y="573" on="0"/>
        <pt x="375" y="524" on="0"/>
        <pt x="335" y="524" on="1"/>
        <pt x="295" y="524" on="0"/>
        <pt x="253" y="567" on="0"/>
        <pt x="253" y="607" on="1"/>
        <pt x="253" y="648" on="0"/>
        <pt x="301" y="696" on="0"/>
        <pt x="342" y="696" on="1"/>
      </contour>
    </TTGlyph>
    <TTGlyph name="divide" xMin="16" yMin="6" xMax="467" yMax="435">
      <component glyphName="minus" x="0" y="0" flags="0x1000"/>
      <component glyphName="period" x="116" y="14" scale="0.819152832031" flags="0x1000"/>
      <component glyphName="period" x="148" y="280" scale="0.819152832031" flags="0x1000"/>
    </TTGlyph>
    <TTGlyph name="divisionslash" xMin="-55" yMin="-118" xMax="353" yMax="683">
      <component glyphName="slash" x="0" y="0" flags="0x1000"/>
    </TTGlyph>
    <TTGlyph name="dollar" xMin="0" yMin="-140" xMax="452" yMax="645">
      <contour>
        <pt x="235" y="359" on="0"/>
        <pt x="262" y="343" on="0"/>
        <pt x="292" y="332" on="1"/>
        <pt x="332" y="317" on="0"/>
        <pt x="387" y="285" on="0"/>
        <pt x="428" y="228" on="0"/>
        <pt x="428" y="184" on="1"/>
        <pt x="428" y="123" on="0"/>
        <pt x="350" y="19" on="0"/>
        <pt x="272" y="-1" on="1"/>
        <pt x="257" y="-140" on="1"/>
        <pt x="161" y="-140" on="1"/>
        <pt x="150" y="-126" on="1"/>
        <pt x="162" y="-12" on="1"/>
        <pt x="74" y="-8" on="0"/>
        <pt x="0" y="16" on="1"/>
        <pt x="44" y="176" on="1"/>
        <pt x="62" y="189" on="1"/>
        <pt x="98" y="158" on="0"/>
        <pt x="186" y="118" on="0"/>
        <pt x="216" y="118" on="1"/>
        <pt x="242" y="118" on="0"/>
        <pt x="242" y="137" on="1"/>
        <pt x="242" y="148" on="0"/>
        <pt x="215" y="164" on="0"/>
        <pt x="186" y="175" on="1"/>
        <pt x="145" y="190" on="0"/>
        <pt x="89" y="222" on="0"/>
        <pt x="48" y="280" on="0"/>
        <pt x="48" y="325" on="1"/>
        <pt x="48" y="394" on="0"/>
        <pt x="140" y="497" on="0"/>
        <pt x="221" y="515" on="1"/>
        <pt x="235" y="645" on="1"/>
        <pt x="330" y="645" on="1"/>
        <pt x="344" y="631" on="1"/>
        <pt x="332" y="522" on="1"/>
        <pt x="396" y="516" on="0"/>
        <pt x="452" y="496" on="1"/>
        <pt x="409" y="343" on="1"/>
        <pt x="383" y="336" on="1"/>
        <pt x="351" y="359" on="0"/>
        <pt x="278" y="387" on="0"/>
        <pt x="257" y="387" on="1"/>
        <pt x="235" y="387" on="0"/>
        <pt x="235" y="371" on="1"/>
      </contour>
    </TTGlyph>
    <TTGlyph name="dotaccent" xMin="145" yMin="532" xMax="339" yMax="730">
      <contour>
        <pt x="291" y="730" on="0"/>
        <pt x="339" y="681" on="0"/>
        <pt x="339" y="636" on="1"/>
        <pt x="339" y="588" on="0"/>
        <pt x="285" y="532" on="0"/>
        <pt x="239" y="532" on="1"/>
        <pt x="193" y="532" on="0"/>
        <pt x="145" y="581" on="0"/>
        <pt x="145" y="627" on="1"/>
        <pt x="145" y="675" on="0"/>
        <pt x="200" y="730" on="0"/>
        <pt x="247" y="730" on="1"/>
      </contour>
    </TTGlyph>
    <TTGlyph name="dotbelowcomb" xMin="52" yMin="-233" xMax="246" yMax="-35">
      <contour>
        <pt x="197" y="-35" on="0"/>
        <pt x="246" y="-85" on="0"/>
        <pt x="246" y="-130" on="1"/>
        <pt x="246" y="-178" on="0"/>
        <pt x="192" y="-233" on="0"/>
        <pt x="145" y="-233" on="1"/>
        <pt x="100" y="-233" on="0"/>
        <pt x="52" y="-184" on="0"/>
        <pt x="52" y="-139" on="1"/>
        <pt x="52" y="-91" on="0"/>
        <pt x="106" y="-35" on="0"/>
        <pt x="153" y="-35" on="1"/>
      </contour>
    </TTGlyph>
    <TTGlyph name="dotlessi" xMin="15" yMin="-4" xMax="243" yMax="476">
      <contour>
        <pt x="192" y="7" on="1"/>
        <pt x="15" y="-4" on="1"/>
        <pt x="62" y="352" on="1"/>
        <pt x="66" y="465" on="1"/>
        <pt x="243" y="476" on="1"/>
        <pt x="197" y="116" on="1"/>
      </contour>
    </TTGlyph>
    <TTGlyph name="dotlessj" xMin="-53" yMin="-195" xMax="266" yMax="476">
      <contour>
        <pt x="217" y="118" on="1"/>
        <pt x="209" y="36" on="1"/>
        <pt x="199" y="-44" on="0"/>
        <pt x="100" y="-156" on="0"/>
        <pt x="3" y="-195" on="1"/>
        <pt x="-53" y="-115" on="1"/>
        <pt x="-51" y="-99" on="1"/>
        <pt x="27" y="-62" on="0"/>
        <pt x="40" y="26" on="1"/>
        <pt x="83" y="347" on="1"/>
        <pt x="81" y="362" on="1"/>
        <pt x="18" y="362" on="1"/>
        <pt x="11" y="373" on="1"/>
        <pt x="24" y="463" on="1"/>
        <pt x="97" y="463" on="1"/>
        <pt x="262" y="476" on="1"/>
        <pt x="266" y="472" on="1"/>
      </contour>
    </TTGlyph>
    <TTGlyph name="down" xMin="60" yMin="70" xMax="371" yMax="381">
      <contour>
        <pt x="60" y="381" on="1"/>
        <pt x="371" y="381" on="1"/>
        <pt x="216" y="70" on="1"/>
      </contour>
    </TTGlyph>
    <TTGlyph name="e" xMin="12" yMin="-11" xMax="424" yMax="484">
      <contour>
        <pt x="404" y="112" on="1"/>
        <pt x="328" y="21" on="0"/>
        <pt x="218" y="-11" on="1"/>
        <pt x="202" y="-11" on="1"/>
        <pt x="102" y="0" on="0"/>
        <pt x="12" y="97" on="0"/>
        <pt x="12" y="183" on="1"/>
        <pt x="12" y="270" on="0"/>
        <pt x="78" y="402" on="0"/>
        <pt x="202" y="479" on="0"/>
        <pt x="287" y="484" on="1"/>
        <pt x="303" y="482" on="1"/>
        <pt x="359" y="471" on="0"/>
        <pt x="424" y="407" on="0"/>
        <pt x="424" y="354" on="1"/>
        <pt x="424" y="294" on="0"/>
        <pt x="312" y="210" on="0"/>
        <pt x="181" y="178" on="1"/>
        <pt x="185" y="149" on="0"/>
        <pt x="210" y="124" on="0"/>
        <pt x="233" y="124" on="1"/>
        <pt x="284" y="124" on="0"/>
        <pt x="326" y="187" on="1"/>
        <pt x="348" y="184" on="1"/>
      </contour>
      <contour>
        <pt x="186" y="371" on="0"/>
        <pt x="179" y="276" on="1"/>
        <pt x="227" y="286" on="0"/>
        <pt x="268" y="316" on="0"/>
        <pt x="268" y="343" on="1"/>
        <pt x="268" y="371" on="0"/>
        <pt x="241" y="371" on="1"/>
      </contour>
    </TTGlyph>
    <TTGlyph name="e.sups" xMin="38" yMin="313" xMax="317" yMax="651">
      <contour>
        <pt x="302" y="397" on="1"/>
        <pt x="250" y="333" on="0"/>
        <pt x="174" y="313" on="1"/>
        <pt x="164" y="313" on="1"/>
        <pt x="38" y="327" on="0"/>
        <pt x="38" y="447" on="1"/>
        <pt x="38" y="537" on="0"/>
        <pt x="139" y="646" on="0"/>
        <pt x="225" y="651" on="1"/>
        <pt x="235" y="650" on="1"/>
        <pt x="317" y="635" on="0"/>
        <pt x="317" y="568" on="1"/>
        <pt x="317" y="527" on="0"/>
        <pt x="235" y="467" on="0"/>
        <pt x="142" y="443" on="1"/>
        <pt x="147" y="394" on="0"/>
        <pt x="183" y="394" on="1"/>
        <pt x="222" y="394" on="0"/>
        <pt x="253" y="441" on="1"/>
        <pt x="267" y="439" on="1"/>
      </contour>
      <contour>
        <pt x="150" y="583" on="0"/>
        <pt x="142" y="503" on="1"/>
        <pt x="183" y="514" on="0"/>
        <pt x="220" y="540" on="0"/>
        <pt x="220" y="561" on="1"/>
        <pt x="220" y="583" on="0"/>
        <pt x="197" y="583" on="1"/>
      </contour>
    </TTGlyph>
    <TTGlyph name="eacute" xMin="12" yMin="-11" xMax="424" yMax="754">
      <component glyphName="e" x="0" y="0" flags="0x1000"/>
      <component glyphName="acute" x="21" y="0" flags="0x1000"/>
    </TTGlyph>
    <TTGlyph name="ebreve" xMin="12" yMin="-11" xMax="438" yMax="732">
      <component glyphName="e" x="0" y="0" flags="0x1000"/>
      <component glyphName="breve" x="14" y="0" flags="0x1000"/>
    </TTGlyph>
    <TTGlyph name="ecaron" xMin="12" yMin="-11" xMax="442" yMax="747">
      <component glyphName="e" x="0" y="0" flags="0x1000"/>
      <component glyphName="caron" x="14" y="0" flags="0x1000"/>
    </TTGlyph>
    <TTGlyph name="ecircumflex" xMin="12" yMin="-11" xMax="442" yMax="751">
      <component glyphName="e" x="0" y="0" flags="0x1000"/>
      <component glyphName="circumflex" x="23" y="0" flags="0x1000"/>
    </TTGlyph>
    <TTGlyph name="ecircumflexacute" xMin="12" yMin="-11" xMax="515" yMax="876">
      <component glyphName="e" x="0" y="0" flags="0x1000"/>
      <component glyphName="circumflexacute" x="21" y="0" flags="0x1000"/>
    </TTGlyph>
    <TTGlyph name="ecircumflexdotbelow" xMin="12" yMin="-233" xMax="442" yMax="751">
      <component glyphName="e" x="0" y="0" flags="0x1000"/>
      <component glyphName="dotbelowcomb" x="49" y="0" flags="0x1000"/>
      <component glyphName="circumflex" x="23" y="0" flags="0x1000"/>
    </TTGlyph>
    <TTGlyph name="ecircumflexgrave" xMin="12" yMin="-11" xMax="447" yMax="876">
      <component glyphName="e" x="0" y="0" flags="0x1000"/>
      <component glyphName="circumflexgrave" x="21" y="0" flags="0x1000"/>
    </TTGlyph>
    <TTGlyph name="ecircumflexhookabove" xMin="12" yMin="-11" xMax="461" yMax="925">
      <component glyphName="e" x="0" y="0" flags="0x1000"/>
      <component glyphName="circumflexhookabove" x="21" y="0" flags="0x1000"/>
    </TTGlyph>
    <TTGlyph name="ecircumflextilde" xMin="12" yMin="-11" xMax="473" yMax="905">
      <component glyphName="e" x="0" y="0" flags="0x1000"/>
      <component glyphName="circumflextilde" x="23" y="0" flags="0x1000"/>
    </TTGlyph>
    <TTGlyph name="edieresis" xMin="12" yMin="-11" xMax="442" yMax="715">
      <component glyphName="e" x="0" y="0" flags="0x1000"/>
      <component glyphName="dieresis" x="18" y="0" flags="0x1000"/>
    </TTGlyph>
    <TTGlyph name="edotaccent" xMin="12" yMin="-11" xMax="424" yMax="730">
      <component glyphName="e" x="0" y="0" flags="0x1000"/>
      <component glyphName="dotaccent" x="19" y="0" flags="0x1000"/>
    </TTGlyph>
    <TTGlyph name="edotbelow" xMin="12" yMin="-233" xMax="424" yMax="484">
      <component glyphName="e" x="0" y="0" flags="0x1000"/>
      <component glyphName="dotbelowcomb" x="49" y="0" flags="0x1000"/>
    </TTGlyph>
    <TTGlyph name="egrave" xMin="12" yMin="-11" xMax="424" yMax="754">
      <component glyphName="e" x="0" y="0" flags="0x1000"/>
      <component glyphName="grave" x="2" y="0" flags="0x1000"/>
    </TTGlyph>
    <TTGlyph name="ehookabove" xMin="12" yMin="-11" xMax="424" yMax="772">
      <component glyphName="e" x="0" y="0" flags="0x1000"/>
      <component glyphName="hookabove" x="-32" y="0" flags="0x1000"/>
    </TTGlyph>
    <TTGlyph name="eight" xMin="24" yMin="-12" xMax="489" yMax="598">
      <contour>
        <pt x="387" y="598" on="0"/>
        <pt x="489" y="520" on="0"/>
        <pt x="489" y="453" on="1"/>
        <pt x="489" y="368" on="0"/>
        <pt x="394" y="313" on="1"/>
        <pt x="393" y="305" on="1"/>
        <pt x="432" y="281" on="0"/>
        <pt x="474" y="220" on="0"/>
        <pt x="474" y="173" on="1"/>
        <pt x="474" y="118" on="0"/>
        <pt x="417" y="34" on="0"/>
        <pt x="312" y="-12" on="0"/>
        <pt x="243" y="-12" on="1"/>
        <pt x="141" y="-12" on="0"/>
        <pt x="24" y="68" on="0"/>
        <pt x="24" y="135" on="1"/>
        <pt x="24" y="186" on="0"/>
        <pt x="81" y="253" on="0"/>
        <pt x="141" y="275" on="1"/>
        <pt x="142" y="283" on="1"/>
        <pt x="68" y="329" on="0"/>
        <pt x="68" y="415" on="1"/>
        <pt x="68" y="469" on="0"/>
        <pt x="125" y="552" on="0"/>
        <pt x="228" y="598" on="0"/>
        <pt x="297" y="598" on="1"/>
      </contour>
      <contour>
        <pt x="256" y="467" on="0"/>
        <pt x="227" y="442" on="0"/>
        <pt x="227" y="423" on="1"/>
        <pt x="227" y="402" on="0"/>
        <pt x="259" y="374" on="0"/>
        <pt x="293" y="360" on="1"/>
        <pt x="335" y="393" on="0"/>
        <pt x="335" y="425" on="1"/>
        <pt x="335" y="467" on="0"/>
        <pt x="283" y="467" on="1"/>
      </contour>
      <contour>
        <pt x="186" y="204" on="0"/>
        <pt x="186" y="165" on="1"/>
        <pt x="186" y="115" on="0"/>
        <pt x="247" y="115" on="1"/>
        <pt x="280" y="115" on="0"/>
        <pt x="315" y="143" on="0"/>
        <pt x="315" y="162" on="1"/>
        <pt x="315" y="183" on="0"/>
        <pt x="278" y="211" on="0"/>
        <pt x="243" y="225" on="1"/>
      </contour>
    </TTGlyph>
    <TTGlyph name="eight.dnom" xMin="11" yMin="-8" xMax="352" yMax="401">
      <contour>
        <pt x="276" y="401" on="0"/>
        <pt x="352" y="348" on="0"/>
        <pt x="352" y="305" on="1"/>
        <pt x="352" y="252" on="0"/>
        <pt x="285" y="213" on="1"/>
        <pt x="284" y="207" on="1"/>
        <pt x="313" y="191" on="0"/>
        <pt x="339" y="152" on="0"/>
        <pt x="339" y="122" on="1"/>
        <pt x="339" y="63" on="0"/>
        <pt x="245" y="-8" on="0"/>
        <pt x="163" y="-8" on="1"/>
        <pt x="92" y="-8" on="0"/>
        <pt x="11" y="46" on="0"/>
        <pt x="11" y="91" on="1"/>
        <pt x="11" y="152" on="0"/>
        <pt x="95" y="181" on="1"/>
        <pt x="96" y="186" on="1"/>
        <pt x="43" y="214" on="0"/>
        <pt x="43" y="273" on="1"/>
        <pt x="43" y="331" on="0"/>
        <pt x="134" y="401" on="0"/>
        <pt x="210" y="401" on="1"/>
      </contour>
      <contour>
        <pt x="164" y="307" on="0"/>
        <pt x="164" y="282" on="1"/>
        <pt x="164" y="261" on="0"/>
        <pt x="209" y="243" on="1"/>
        <pt x="235" y="265" on="0"/>
        <pt x="235" y="284" on="1"/>
        <pt x="235" y="307" on="0"/>
        <pt x="201" y="307" on="1"/>
      </contour>
      <contour>
        <pt x="133" y="136" on="0"/>
        <pt x="133" y="112" on="1"/>
        <pt x="133" y="82" on="0"/>
        <pt x="174" y="82" on="1"/>
        <pt x="196" y="82" on="0"/>
        <pt x="219" y="99" on="0"/>
        <pt x="219" y="110" on="1"/>
        <pt x="219" y="130" on="0"/>
        <pt x="171" y="147" on="1"/>
      </contour>
    </TTGlyph>
    <TTGlyph name="eight.lf" xMin="24" yMin="-12" xMax="489" yMax="598">
      <component glyphName="eight" x="0" y="0" flags="0x1000"/>
    </TTGlyph>
    <TTGlyph name="eight.numr" xMin="42" yMin="246" xMax="383" yMax="655">
      <component glyphName="eight.dnom" x="31" y="254" flags="0x1000"/>
    </TTGlyph>
    <TTGlyph name="eight.sinf" xMin="-3" yMin="-128" xMax="338" yMax="281">
      <component glyphName="eight.dnom" x="-14" y="-120" flags="0x1000"/>
    </TTGlyph>
    <TTGlyph name="eight.tf" xMin="10" yMin="-12" xMax="464" yMax="598">
      <contour>
        <pt x="365" y="598" on="0"/>
        <pt x="464" y="520" on="0"/>
        <pt x="464" y="454" on="1"/>
        <pt x="464" y="368" on="0"/>
        <pt x="373" y="313" on="1"/>
        <pt x="372" y="305" on="1"/>
        <pt x="409" y="282" on="0"/>
        <pt x="448" y="220" on="0"/>
        <pt x="448" y="174" on="1"/>
        <pt x="448" y="119" on="0"/>
        <pt x="392" y="35" on="0"/>
        <pt x="289" y="-12" on="0"/>
        <pt x="222" y="-12" on="1"/>
        <pt x="123" y="-12" on="0"/>
        <pt x="10" y="68" on="0"/>
        <pt x="10" y="134" on="1"/>
        <pt x="10" y="186" on="0"/>
        <pt x="64" y="253" on="0"/>
        <pt x="122" y="275" on="1"/>
        <pt x="123" y="283" on="1"/>
        <pt x="53" y="329" on="0"/>
        <pt x="53" y="414" on="1"/>
        <pt x="53" y="469" on="0"/>
        <pt x="108" y="552" on="0"/>
        <pt x="210" y="598" on="0"/>
        <pt x="277" y="598" on="1"/>
      </contour>
      <contour>
        <pt x="238" y="467" on="0"/>
        <pt x="212" y="442" on="0"/>
        <pt x="212" y="423" on="1"/>
        <pt x="212" y="402" on="0"/>
        <pt x="242" y="374" on="0"/>
        <pt x="273" y="360" on="1"/>
        <pt x="310" y="393" on="0"/>
        <pt x="310" y="425" on="1"/>
        <pt x="310" y="467" on="0"/>
        <pt x="262" y="467" on="1"/>
      </contour>
      <contour>
        <pt x="194" y="214" on="0"/>
        <pt x="172" y="186" on="0"/>
        <pt x="172" y="165" on="1"/>
        <pt x="172" y="115" on="0"/>
        <pt x="227" y="115" on="1"/>
        <pt x="257" y="115" on="0"/>
        <pt x="289" y="143" on="0"/>
        <pt x="289" y="162" on="1"/>
        <pt x="289" y="183" on="0"/>
        <pt x="255" y="211" on="0"/>
        <pt x="222" y="225" on="1"/>
      </contour>
    </TTGlyph>
    <TTGlyph name="eight.tosf" xMin="14" yMin="-12" xMax="465" yMax="598">
      <contour>
        <pt x="366" y="598" on="0"/>
        <pt x="465" y="520" on="0"/>
        <pt x="465" y="454" on="1"/>
        <pt x="465" y="369" on="0"/>
        <pt x="374" y="313" on="1"/>
        <pt x="373" y="305" on="1"/>
        <pt x="410" y="282" on="0"/>
        <pt x="449" y="220" on="0"/>
        <pt x="449" y="174" on="1"/>
        <pt x="449" y="119" on="0"/>
        <pt x="393" y="35" on="0"/>
        <pt x="292" y="-12" on="0"/>
        <pt x="225" y="-12" on="1"/>
        <pt x="127" y="-12" on="0"/>
        <pt x="14" y="68" on="0"/>
        <pt x="14" y="134" on="1"/>
        <pt x="14" y="186" on="0"/>
        <pt x="68" y="253" on="0"/>
        <pt x="125" y="276" on="1"/>
        <pt x="126" y="283" on="1"/>
        <pt x="57" y="329" on="0"/>
        <pt x="57" y="414" on="1"/>
        <pt x="57" y="469" on="0"/>
        <pt x="112" y="552" on="0"/>
        <pt x="212" y="598" on="0"/>
        <pt x="279" y="598" on="1"/>
      </contour>
      <contour>
        <pt x="240" y="469" on="0"/>
        <pt x="213" y="443" on="0"/>
        <pt x="213" y="423" on="1"/>
        <pt x="213" y="402" on="0"/>
        <pt x="243" y="373" on="0"/>
        <pt x="275" y="359" on="1"/>
        <pt x="313" y="391" on="0"/>
        <pt x="313" y="426" on="1"/>
        <pt x="313" y="469" on="0"/>
        <pt x="264" y="469" on="1"/>
      </contour>
      <contour>
        <pt x="197" y="215" on="0"/>
        <pt x="174" y="186" on="0"/>
        <pt x="174" y="164" on="1"/>
        <pt x="174" y="113" on="0"/>
        <pt x="229" y="113" on="1"/>
        <pt x="259" y="113" on="0"/>
        <pt x="293" y="143" on="0"/>
        <pt x="293" y="162" on="1"/>
        <pt x="293" y="183" on="0"/>
        <pt x="258" y="212" on="0"/>
        <pt x="225" y="226" on="1"/>
      </contour>
    </TTGlyph>
    <TTGlyph name="eightsuperior" xMin="49" yMin="299" xMax="390" yMax="708">
      <component glyphName="eight.dnom" x="38" y="307" flags="0x1000"/>
    </TTGlyph>
    <TTGlyph name="ellipsis" xMin="-23" yMin="-9" xMax="629" yMax="189">
      <component glyphName="period" x="207" y="0" flags="0x1000"/>
      <component glyphName="period" x="436" y="0" flags="0x1000"/>
      <component glyphName="period" x="-22" y="0" flags="0x1000"/>
    </TTGlyph>
    <TTGlyph name="emacron" xMin="12" yMin="-11" xMax="424" yMax="690">
      <component glyphName="e" x="0" y="0" flags="0x1000"/>
      <component glyphName="macron" x="18" y="0" flags="0x1000"/>
    </TTGlyph>
    <TTGlyph name="emdash" xMin="-23" yMin="195" xMax="870" yMax="325">
      <contour>
        <pt x="847" y="195" on="1"/>
        <pt x="-12" y="195" on="1"/>
        <pt x="-23" y="208" on="1"/>
        <pt x="1" y="325" on="1"/>
        <pt x="860" y="325" on="1"/>
        <pt x="870" y="312" on="1"/>
      </contour>
    </TTGlyph>
    <TTGlyph name="endash" xMin="-19" yMin="195" xMax="475" yMax="325">
      <contour>
        <pt x="452" y="195" on="1"/>
        <pt x="-8" y="195" on="1"/>
        <pt x="-19" y="208" on="1"/>
        <pt x="5" y="325" on="1"/>
        <pt x="465" y="325" on="1"/>
        <pt x="475" y="312" on="1"/>
      </contour>
    </TTGlyph>
</ttFont>
